<svg width="48" height="56" viewBox="0 0 48 56" fill="none" xmlns="http://www.w3.org/2000/svg">
<path fill-rule="evenodd" clip-rule="evenodd" d="M28 11.4075V11.4074C37.1633 11.4074 44.5926 18.8367 44.5926 28H43.6828C43.6828 19.3517 36.6467 12.3172 28.0001 12.3172V28.0001H12.3172C12.3172 36.6484 19.3533 43.6828 28 43.6828V44.5926C18.8367 44.5926 11.4074 37.1633 11.4074 28H11.4075C11.4075 18.8302 18.8302 11.4075 28 11.4075ZM28.0001 28.0001H44.5926C44.5926 37.1699 37.1699 44.5927 28.0001 44.5927V28.0001ZM0 28C0 12.5365 12.5365 0 28 0C43.4635 0 56 12.5365 56 28C56 43.4635 43.4635 56 28 56C12.5365 56 0 43.4635 0 28ZM28 54.1792C42.4593 54.1792 54.1792 42.4577 54.1792 28C54.1792 13.5423 42.4577 1.82079 28 1.82079C13.5423 1.82079 1.82079 13.5423 1.82079 28C1.82079 42.4577 13.5407 54.1792 28 54.1792ZM16.0343 14.4924C16.9291 13.5564 17.4357 12.4751 16.5409 11.4428C16.0541 10.8825 15.2366 10.76 14.559 11.036L14.4915 11.0622L14.5129 11.0034C14.6133 10.7371 14.6774 9.88774 13.9488 9.30134C13.5935 9.01549 13.1478 8.90932 12.6971 8.95505C11.8566 9.03999 11.2102 9.61006 9.45035 11.5587C8.91909 12.1468 8.14605 13.0746 7.68223 13.6757L12.5162 18.2297C13.7827 16.8376 14.456 16.1367 15.3066 15.2513L15.307 15.2509C15.5322 15.0164 15.7699 14.769 16.0343 14.4924ZM9.72667 13.3784C10.7004 12.1958 11.7349 11.1226 12.2037 10.6979C12.3517 10.564 12.5129 10.43 12.7086 10.3778C13.0261 10.2912 13.3534 10.515 13.4274 10.8384C13.5014 11.1634 13.2958 11.4722 13.0672 11.727C12.5524 12.3036 10.6642 14.2653 10.6642 14.2653L9.72667 13.3784ZM11.6198 15.1621C11.6198 15.1621 13.4586 13.2314 14.059 12.6139C14.2975 12.3689 14.4504 12.2203 14.6149 12.1402C14.8271 12.0373 15.059 12.0161 15.2662 12.1533C15.4702 12.2889 15.5639 12.5225 15.5129 12.7544C15.4521 13.0305 15.2251 13.2934 15.0376 13.4944C14.7843 13.7639 12.6034 16.0817 12.6001 16.085L11.6198 15.1621ZM28.5526 9.06123L30.1003 5.61796L30.199 5.31251L30.1711 5.63103L30.3339 10.2324C30.8767 10.283 31.4375 10.3582 31.9902 10.4496L31.7385 3.63498C30.9655 3.55004 30.1957 3.4896 29.426 3.45693L27.9013 7.21545L27.847 7.49477L27.7927 7.21545L26.2697 3.45693C25.4999 3.4896 24.7302 3.55004 23.9572 3.63498L23.7055 10.4496C24.2581 10.3582 24.819 10.2847 25.3618 10.2324L25.5246 5.63103L25.4967 5.31251L25.5953 5.61796L27.1431 9.06123H28.5526ZM41.4064 16.1846C41.7864 16.5897 42.3341 17.2431 42.6417 17.64L48.3062 14.0693C48.0233 13.7018 47.5727 13.1432 47.2355 12.7495L43.6483 15.1049L43.4032 15.314L43.5858 15.0494L45.1697 11.9099L44.0496 10.7976L40.8867 12.3706L40.6203 12.5519L40.8324 12.3085L43.2058 8.74761C42.7881 8.39479 42.3867 8.07137 41.8752 7.67935L38.2798 13.3C38.7354 13.6479 39.3357 14.1592 39.7189 14.5071L43.1038 12.7626L43.3209 12.6041L43.1614 12.8197L41.4064 16.1846Z" fill="#8A8A9C"/>
</svg>
