<svg width="48" height="47" viewBox="0 0 48 47" fill="none" xmlns="http://www.w3.org/2000/svg">
<path fill-rule="evenodd" clip-rule="evenodd" d="M45.5585 1.61008C49.9372 2.35857 54.9521 3.93041 55.7006 11.4153C55.8877 13.4363 55.9626 16.0934 56 18.9751C55.9354 23.0773 55.6199 26.0365 55.3903 28.1896C55.3539 28.5311 55.3197 28.8523 55.2889 29.1547C55.1392 30.6516 54.503 35.2549 53.6797 37.6126C52.5569 40.8686 51.5465 41.8042 50.3489 42.7772C48.3673 44.4172 45.2005 44.9967 44.0945 45.1991C43.9889 45.2184 43.9022 45.2342 43.837 45.2473C39.7951 45.9958 31.5991 46.108 28.0063 46.108C24.3761 46.108 16.2175 45.9583 12.1757 45.2473C12.1182 45.2358 12.044 45.2219 11.955 45.2052C10.8841 45.0044 7.66783 44.4012 5.66377 42.7772C4.46618 41.8042 3.45571 40.8686 2.33297 37.6126C1.50963 35.2549 0.873413 30.6891 0.723713 29.1547C0.690258 28.8201 0.65265 28.4648 0.61262 28.0866C0.383973 25.9264 0.07634 23.0199 0.0126432 18.9751C-0.0247811 16.1309 0.0126434 13.4737 0.237191 11.4153C0.985685 3.93041 6.0006 2.35857 10.3793 1.61008C12.5873 1.23583 16.5169 0.936431 19.0244 0.824158C21.2324 0.674459 26.3971 0.599609 27.9689 0.599609C29.5407 0.599609 34.7053 0.674458 36.9134 0.824158C39.4209 0.936431 43.3504 1.23583 45.5585 1.61008ZM51.2096 36.1531C51.9581 33.5708 52.4821 29.978 52.9312 23.99C53.1931 20.3599 53.1557 14.5216 52.744 11.4153C52.1453 6.73726 49.8249 4.3795 44.8474 3.48131C42.5271 3.06964 39.3834 2.77024 36.4269 2.62054C34.0691 2.47084 30.1395 2.35857 27.9689 2.39599C25.7608 2.39599 21.8687 2.47084 19.4735 2.62054C16.5169 2.77024 13.3733 3.06964 11.0529 3.48131C6.07544 4.34208 3.75511 6.69983 3.19374 11.4153C2.78207 14.559 2.74464 20.3973 3.00662 23.99C3.41829 29.978 3.97966 33.5708 4.72815 36.1531C5.40179 38.3986 6.22514 39.933 7.42273 41.0183C9.36415 42.7799 11.9963 43.1946 13.6603 43.4568C13.7285 43.4675 13.795 43.478 13.8598 43.4883C17.3777 44.0123 23.2908 44.1994 27.9689 44.1994C32.6096 44.1994 38.5601 44.0123 42.078 43.4883C42.1428 43.478 42.2093 43.4675 42.2775 43.4568C43.9415 43.1946 46.5736 42.7799 48.5151 41.0183C49.7126 39.933 50.536 38.436 51.2096 36.1531ZM39.9347 8.58547C40.1984 7.37844 40.4923 6.03305 40.8431 4.45439C40.8431 4.45439 42.1155 4.49182 42.6769 4.52924C43.4254 4.56667 44.0616 4.64152 44.6978 4.71637C44.6978 4.71637 43.9493 16.5426 43.6125 21.5201C43.2757 26.7969 42.6395 35.6292 42.0781 42.3282C42.0781 42.3282 40.9928 42.4779 39.1964 42.5902C37.3252 42.7024 36.5018 42.7024 36.5018 42.7024C36.4443 42.4751 36.3854 42.2411 36.3252 42.002C35.603 39.1322 34.6968 35.5313 33.695 33.9076C32.8241 32.5287 31.531 32.3461 30.7367 32.2339C30.7119 32.2304 30.6875 32.2269 30.6636 32.2235C29.466 32.0364 28.4555 32.0364 27.969 32.0364C27.5199 32.0364 26.472 32.0738 25.2744 32.2235C25.2505 32.2269 25.2261 32.2304 25.2013 32.2339C24.407 32.3461 23.1139 32.5287 22.243 33.9076C21.329 35.3891 20.5211 38.5163 19.8194 41.2326C19.6879 41.7415 19.5602 42.2359 19.4362 42.7024C19.4362 42.7024 18.5754 42.7024 16.7042 42.5902C14.9078 42.5153 13.8225 42.3282 13.8225 42.3282C13.2611 35.6292 12.6249 26.7595 12.2881 21.5201C11.9512 16.5051 11.2027 4.71637 11.2027 4.71637C11.2467 4.71119 11.2905 4.70602 11.3342 4.70086C11.9226 4.63135 12.4921 4.56408 13.2237 4.52924C13.785 4.49182 15.0575 4.45439 15.0575 4.45439C15.3958 5.97698 15.6813 7.27994 15.9377 8.45051C16.6456 11.6821 17.1325 13.9047 17.9018 16.9542C18.0067 17.3823 18.1096 17.8073 18.2111 18.2271C19.0509 21.6986 19.8061 24.8201 21.008 26.4227C22.3553 28.2565 24.1891 28.6308 25.4241 28.7805C26.0603 28.8553 26.5469 28.8927 27.9316 28.8927C29.3163 28.8927 29.8028 28.8553 30.439 28.7805C31.674 28.6308 33.5079 28.2565 34.8551 26.4227C36.0232 24.8654 36.7693 21.8735 37.6055 18.5201C37.7339 18.0054 37.8644 17.4821 37.9988 16.9542C38.7578 13.9725 39.2419 11.7565 39.9347 8.58547Z" fill="#8A8A9C"/>
</svg>
