<svg width="48" height="56" viewBox="0 0 48 56" fill="none" xmlns="http://www.w3.org/2000/svg">
<path fill-rule="evenodd" clip-rule="evenodd" d="M0 28C0 43.4635 12.5362 56 28 56C43.4641 56 56 43.4635 56 28C56 12.5362 43.4641 0 28 0C12.5362 0 0 12.5362 0 28ZM5.27476 41.6385L28.0077 32.2295L50.8374 41.4929C46.0964 49.5646 37.4409 54.5249 28.1045 54.5491C18.7442 54.5975 10.0645 49.6867 5.27476 41.6385ZM27.6925 1.58732L24.0699 25.5843L4.93572 41.0475C0.340327 32.9024 0.389079 22.9342 5.08134 14.8379C9.74939 6.74161 18.3561 1.70872 27.6925 1.58732ZM51.1774 40.8792L31.8246 25.9026L28.3719 1.58923C32.945 1.65918 37.4222 2.91188 41.3676 5.22542C45.313 7.53896 48.5923 10.8345 50.8862 14.7914C55.5781 22.8389 55.6756 32.7345 51.1774 40.8792Z" fill="#8A8A9C"/>
</svg>
