<svg width="48" height="56" viewBox="0 0 48 56" fill="none" xmlns="http://www.w3.org/2000/svg">
<path fill-rule="evenodd" clip-rule="evenodd" d="M13.3916 25.6107V3.29912H21.8349C24.9215 3.35013 27.2088 3.98786 29.0114 5.26329C31.4007 6.96386 32.6761 9.67628 32.6761 12.9159C32.6846 18.3832 28.9093 25.3471 13.3916 25.6107ZM40.7028 49.5208C39.64 48.5685 38.3645 47.0805 37.7778 44.1555C36.613 38.7902 34.2747 31.2396 29.5981 25.8743C29.6954 25.8275 29.7821 25.7897 29.867 25.7527C29.9676 25.7088 30.0657 25.666 30.1763 25.6107C35.4906 22.8983 38.7387 18.3832 38.7387 12.8564C38.7897 8.97905 36.8255 4.99119 33.3223 2.60188C30.5589 0.739752 26.8346 0 22.107 0H4.19995L4.26289 0.0410042L4.31894 0.0773947C5.55037 0.876528 7.43956 2.10251 7.43956 6.31764V43.1947C7.43956 47.4369 5.57017 48.6344 4.33841 49.4234C4.29129 49.4536 4.24508 49.4832 4.19995 49.5123H16.6312C16.562 49.4648 16.4895 49.4162 16.4145 49.3658C15.227 48.569 13.3916 47.3374 13.3916 43.1947V28.9013C17.745 28.9013 21.8349 28.3656 25.2956 27.4643C28.4332 31.2396 30.7715 37.0811 31.5197 42.4464C32.0469 46.4938 30.6694 48.56 29.7171 49.5123L40.7028 49.5208ZM24.1817 49.6824V35.389C25.5592 35.338 26.8941 35.287 28.2206 35.1764C27.7444 34.0626 27.2597 32.9487 26.6816 31.8858C26.171 31.951 25.643 31.9745 25.1044 31.9986C24.7999 32.0121 24.4919 32.0259 24.1817 32.0474V29.0714C22.3196 29.4965 20.3044 29.8111 18.2297 30.0237V49.6824C18.2297 53.9042 16.3265 55.1354 15.1025 55.9272C15.0643 55.9518 15.0268 55.9761 14.9901 56H27.4213C27.3663 55.9626 27.3092 55.9244 27.2504 55.8851C26.065 55.0913 24.1817 53.8301 24.1817 49.6824ZM53.0915 55.9575C52.0797 54.9967 50.8043 53.5087 50.1665 50.5922C49.0016 45.2183 46.5528 37.5147 41.4001 31.7753C46.4508 29.0118 49.5288 24.6584 49.5288 19.293C49.5798 15.4668 47.6157 11.4279 44.1125 9.03857C42.6245 8.07774 40.8729 7.38901 38.7982 6.96386C39.5464 8.56241 40.0226 10.263 40.1246 11.9636C42.3014 13.6641 43.4748 16.266 43.4748 19.4036C43.4748 23.3914 41.4596 28.0595 34.3937 30.4573C34.9719 31.5712 35.5586 32.7446 36.0347 33.8585C36.2217 33.8075 36.4086 33.7544 36.5955 33.7013C36.7827 33.6481 36.9699 33.5949 37.1571 33.5439C40.4477 37.3702 43.1006 43.3732 43.8999 48.9511C44.4866 52.99 43.0496 55.0052 42.0973 55.966L53.0915 55.9575ZM24.1818 9.82933V22.4221C22.4812 23.1193 20.4575 23.5955 18.2212 23.9101V12.8053C18.2212 8.57301 16.3677 7.3752 15.1358 6.57915C15.0832 6.54517 15.0317 6.51192 14.9816 6.4792H28.3822C29.5471 7.32949 30.3973 8.44336 30.8735 9.82933H24.1818Z" fill="#8A8A9C"/>
</svg>
