<svg width="48" height="56" viewBox="0 0 48 56" fill="none" xmlns="http://www.w3.org/2000/svg">
<path d="M18.5299 2.94713C29.0563 2.57617 39.5933 2.9445 50.1014 3.61934C51.2077 3.71537 52.3285 3.70748 53.4177 3.94032C54.007 4.08239 54.6437 4.30734 54.9884 4.84274C55.3028 5.4255 55.3094 6.1056 55.3909 6.74756C55.6409 9.90076 55.7145 13.0671 55.95 16.2203C55.4949 16.2756 55.0397 16.2059 54.5845 16.1914C46.4799 15.7718 38.3686 15.4232 30.2508 15.4126C26.0465 15.4245 21.837 15.3837 17.6366 15.5876C16.6185 15.7376 15.4661 16.0783 14.8781 16.9859C18.0563 17.5503 21.2279 18.1593 24.4048 18.7342C34.9339 20.7048 45.4709 22.632 56 24.5999C55.9908 26.5968 55.9947 28.5937 55.9987 30.5906C50.0777 29.6106 44.1672 28.553 38.2502 27.5414C25.5203 25.3471 12.7944 23.1227 0.060511 20.9495C0.0855051 18.7329 0.180219 16.5176 0.226261 14.2997C0.306505 12.5436 0.256517 10.7637 0.653792 9.03912C0.920834 7.8223 1.41546 6.59891 2.33761 5.72937C3.92934 4.15343 6.23143 3.71011 8.37435 3.4878C11.7512 3.17471 15.1425 3.0721 18.5299 2.94713ZM0 23.8659C18.2378 27.2309 36.4691 30.6525 54.7042 34.0372C55.1028 34.1345 55.5291 34.1424 55.9119 34.2885L55.9579 34.3937C55.8579 37.3851 55.8 40.3791 55.6922 43.3705C55.6224 45.2162 55.4278 47.1473 54.478 48.7732C53.4598 50.4544 51.5629 51.3844 49.6857 51.7357C46.9192 52.2553 44.0936 52.2895 41.2916 52.4434C29.2352 52.9906 17.1539 52.6881 5.11722 51.8593C4.1556 51.7922 3.17688 51.7751 2.24289 51.5081C1.7588 51.3555 1.25891 51.1095 0.985294 50.6622C0.691941 50.0755 0.673525 49.406 0.601173 48.7666C0.343339 45.2767 0.206529 41.7801 0.0236777 38.2862C6.23275 38.6808 12.4523 38.9018 18.6732 39.04C24.6797 39.1373 30.6862 39.136 36.6927 39.1952C37.9884 39.2491 39.3894 39.0018 40.3721 38.0915C40.5155 37.9271 40.7483 37.7745 40.7246 37.5285C38.0174 37.122 35.3259 36.6169 32.6239 36.1722C21.7528 34.3134 10.8764 32.4718 0.0065758 30.6025C-0.00657901 28.357 0.00920836 26.1114 0 23.8659Z" fill="#8A8A9C"/>
</svg>
