<svg width="48" height="56" viewBox="0 0 48 56" fill="none" xmlns="http://www.w3.org/2000/svg">
<path d="M28 53.424C14.056 53.424 2.632 41.944 2.632 28C2.632 24.864 3.192 21.896 4.256 19.096L19.096 48.944C19.264 49.336 19.544 49.672 19.992 49.672C20.44 49.672 20.72 49.336 20.888 48.944L27.72 33.656C27.776 33.488 27.888 33.32 28.056 33.32C28.224 33.32 28.28 33.488 28.392 33.656L35.224 48.944C35.392 49.336 35.672 49.672 36.12 49.672C36.568 49.672 36.848 49.336 37.016 48.944L51.856 19.096C52.92 21.896 53.48 24.864 53.48 28C53.368 41.944 41.944 53.424 28 53.424ZM28 22.232C27.832 22.232 27.776 22.064 27.664 21.896L19.712 3.976C22.288 3.024 25.088 2.52 28 2.52C30.912 2.52 33.712 3.024 36.288 3.976L28.336 21.896C28.224 22.12 28.168 22.232 28 22.232ZM19.88 40.656C19.712 40.656 19.656 40.488 19.544 40.32L6.664 14.336C8.96 10.808 12.04 7.84 15.792 5.768L25.088 26.432C25.2 26.768 25.48 26.88 25.76 26.88H30.24C30.576 26.88 30.8 26.824 30.968 26.432L40.264 5.768C43.96 7.84 47.096 10.808 49.392 14.336L36.4 40.32C36.344 40.488 36.232 40.656 36.064 40.656C35.896 40.656 35.84 40.488 35.728 40.32L30.856 29.232C30.688 28.84 30.464 28.784 30.128 28.784H25.648C25.312 28.784 25.088 28.84 24.92 29.232L20.216 40.32C20.16 40.488 20.048 40.656 19.88 40.656ZM28 56C43.512 56 56 43.512 56 28C56 12.488 43.512 0 28 0C12.488 0 0 12.488 0 28C0 43.512 12.488 56 28 56Z" fill="#8A8A9C"/>
</svg>
