<svg width="40" height="40" viewBox="0 0 40 40" fill="none" xmlns="http://www.w3.org/2000/svg">
<path fill-rule="evenodd" clip-rule="evenodd" d="M37.84 10.9083L38.3852 12.0595C40.0776 15.9528 40.5448 20.9852 39.2818 25.2135C38.2575 28.8471 36.2644 32.2441 33.2007 34.8772C30.2685 37.433 26.88 38.9795 23.124 39.6379C16.0935 40.6329 9.66048 38.2385 4.99311 33.1085C0.192876 27.8252 -1.39183 19.5338 1.31963 12.8018C2.94307 8.16464 7.16173 3.64522 11.7575 1.7512C15.8039 -0.107094 21.1441 -0.575948 25.5489 0.784812C30.5472 2.12057 35.4943 6.09499 37.84 10.9083ZM29.0872 36.5269C33.3622 34.2388 36.834 29.9103 38.1287 25.4069C39.4905 21.2 39.1104 16.0241 37.2861 12.1313C35.4486 7.8211 31.2607 3.91932 26.9311 2.29437C22.1054 0.286938 15.7421 0.662696 11.2373 3.11699C6.66537 5.35188 2.94274 10.0994 1.69336 14.8334C0.496163 19.0286 0.886673 24.0502 2.73222 27.8329C4.77 32.5709 9.48636 36.6017 14.3201 38.0153C19.0561 39.5832 24.9338 38.9354 29.0872 36.5269ZM16.1927 6.60797C20.5283 5.35289 25.272 6.40415 28.6619 9.13389V9.13406C29.888 10.1607 31.0491 11.4297 31.848 12.7554C34.1431 16.2936 34.4915 21.6674 32.6659 25.5361C31.5797 27.9606 29.6359 30.302 27.247 31.7112C27.128 31.6931 27.0665 31.7635 27.0033 31.8359C26.9553 31.8908 26.9064 31.9469 26.8307 31.9663C25.0881 32.9322 23.1896 33.5802 21.1016 33.7128C15.5744 34.1497 10.4031 31.3309 7.75974 26.4425C5.76155 22.9136 5.55707 17.7039 7.42794 14.0658C9.0576 10.5389 12.5038 7.51866 16.1927 6.60797ZM7.15871 19.994C7.15871 27.0635 12.8899 32.7945 19.9594 32.7945C27.0289 32.7945 32.76 27.0635 32.76 19.994C32.76 12.9245 27.0291 7.1934 19.9594 7.1934C12.8898 7.1934 7.15871 12.9245 7.15871 19.994ZM25.0853 2.43662C24.6337 2.29604 24.1714 2.18869 23.7091 2.08133C23.4542 2.99292 23.2608 3.93152 23.0697 4.85964L23.0696 4.85986C23.0521 4.94503 23.0345 5.0301 23.017 5.11507C23.0007 5.19378 22.9844 5.27239 22.9681 5.35087C22.9505 5.43524 22.9329 5.51945 22.9151 5.60351L24.2251 5.92625C24.3176 5.55448 24.4157 5.18378 24.5137 4.81348C24.7232 4.02155 24.9323 3.23147 25.0853 2.43662ZM15.3868 6.04065L14.246 6.4647V6.46454L14.1685 6.38788L12.9304 3.12957C14.4439 2.4398 16.1125 2.03469 17.8373 1.81646C18.7929 1.70138 19.7823 1.67388 20.75 1.72353L21.1464 1.85336C21.632 2.16956 21.657 2.75215 21.6488 3.27971L21.6461 3.29949L21.6427 3.32452L21.6383 3.35802C21.5679 3.88386 21.483 4.5188 20.8871 4.65808C18.8746 4.54837 17.0071 4.80033 15.2625 5.40371C15.2383 5.5222 15.2775 5.63693 15.3183 5.7561C15.3495 5.84713 15.3815 5.94076 15.3868 6.04065ZM20.0519 2.68404C18.1825 2.60637 16.3596 2.9573 14.6805 3.48301L14.604 3.56051C14.636 3.63916 14.6609 3.72353 14.6859 3.808C14.7306 3.95898 14.7753 4.11025 14.8606 4.22966C16.5178 3.72575 18.2858 3.3864 20.1329 3.40921L20.275 3.26545C20.3401 3.08932 20.273 2.91368 20.1844 2.78234L20.0519 2.68404ZM27.9151 5.26834C27.9426 5.25897 27.9625 5.28028 27.9812 5.30027L27.9813 5.30042C27.9833 5.30246 27.9852 5.30449 27.9871 5.30648C27.9888 5.30829 27.9906 5.31008 27.9923 5.31179L30.2909 9.52071C30.4662 9.7123 30.6395 9.91153 30.8126 10.1104C31.0546 10.3885 31.2961 10.6659 31.5411 10.9209L34.0895 8.54325L34.1439 8.45502C34.0662 8.36328 33.9924 8.27072 33.9194 8.17911L33.9194 8.17906L33.9193 8.17901L33.9193 8.17896L33.9192 8.17891L33.9192 8.17886C33.7222 7.9317 33.5308 7.69138 33.2812 7.49232L31.575 9.09582C31.5203 9.13993 31.4108 9.19562 31.3664 9.09699L28.7654 3.98844C28.2914 3.71619 27.8284 3.45484 27.3324 3.27065C27.0839 3.79122 26.8409 4.31449 26.5978 4.83779L26.5977 4.83806L26.5976 4.83833L26.5975 4.8386L26.5973 4.83887L26.5972 4.83914L26.5964 4.84076L26.5957 4.84238L26.5949 4.844L26.5942 4.84562L26.5934 4.84725C26.349 5.37336 26.1047 5.89951 25.8547 6.42294L25.8445 6.54388L26.9687 7.07648C27.1471 6.77746 27.2995 6.46707 27.4524 6.15551L27.4524 6.15544L27.4525 6.15536L27.4525 6.15529L27.4526 6.15522L27.4526 6.15514C27.5986 5.85771 27.7451 5.55921 27.9153 5.26851L27.9151 5.26834ZM12.661 6.09952C12.8712 6.3513 13.0597 6.65811 13.2152 6.94295H13.2154C11.5382 7.8206 9.95136 9.1156 8.64058 10.6508C7.72352 9.85352 6.86214 9.09966 5.96704 8.28005L5.99942 8.17002C6.05677 8.10531 6.11368 8.04015 6.17051 7.97508L6.17066 7.97491C6.39517 7.71786 6.61842 7.46227 6.86281 7.2417L8.76304 8.94618L8.87275 8.91263C10.0096 7.74108 11.3017 6.8215 12.661 6.09952ZM5.33716 19.7167C5.23218 19.5611 5.09212 19.4358 4.94403 19.3034L4.94393 19.3033C4.87316 19.24 4.80056 19.1751 4.72908 19.1044L4.7066 19.0056C4.85958 16.817 5.41985 14.7911 6.41023 12.95L7.13523 12.825C7.29054 12.6191 7.43248 12.3975 7.57546 12.1743L7.57561 12.1741C7.72399 11.9424 7.8735 11.7091 8.04022 11.4897L8.05079 11.4018L8.00684 11.4022L3.58002 12.0421L3.49229 12.0866C2.57907 13.9715 2.01863 15.9974 1.81079 18.1642L5.27878 21.0803L5.35578 21.1018C5.34191 20.8513 5.34222 20.5864 5.34253 20.3194V20.3193V20.3192V20.3191C5.34276 20.1177 5.343 19.9152 5.33716 19.7168V19.7167ZM3.4807 17.9568L2.88403 17.4105C3.08499 16.0023 3.44028 14.6591 3.98327 13.3918C4.14611 13.32 4.33218 13.2984 4.51757 13.2769C4.61923 13.2651 4.72068 13.2533 4.81798 13.2333L4.84012 13.2551C4.2104 14.7427 3.7684 16.3062 3.5468 17.9565L3.48088 17.9568H3.4807ZM32.7494 12.7832L31.8845 11.3918H31.8847L36.4397 12.1033C37.3624 13.9559 37.9452 15.9756 38.1218 18.1404L35.201 20.751L34.5774 21.2821C34.5838 21.1114 34.5863 20.9296 34.589 20.744V20.7438C34.5942 20.3794 34.5996 20.0009 34.6344 19.6657L35.2248 19.1237C35.1467 16.8814 34.5416 14.8399 33.5749 12.9545C33.4223 12.911 33.2624 12.8821 33.1016 12.853L33.1013 12.853L33.1012 12.853L33.1011 12.8529C32.9835 12.8317 32.8655 12.8104 32.7494 12.7832ZM35.116 13.2979C35.7727 14.7895 36.1771 16.3812 36.4281 18.0397H36.4283C36.6112 17.9471 36.7811 17.785 36.9384 17.6348C36.9885 17.587 37.0374 17.5403 37.085 17.4975C36.912 16.0363 36.5524 14.6313 35.9517 13.3373L35.1485 13.2098L35.116 13.2979ZM14.6298 12.2889C13.7723 12.2937 12.9146 12.2765 12.2525 11.8183C12.223 11.846 12.1936 11.8735 12.1644 11.9007C11.7511 12.2872 11.3778 12.6363 11.0722 13.1001C11.3819 13.4502 11.5163 13.8672 11.5627 14.3287L11.5715 23.9368C11.5444 25.0143 11.737 26.0355 12.1817 26.9346C13.1494 28.7832 14.9066 29.2599 16.6756 29.7398C17.7703 30.0368 18.8696 30.335 19.7892 30.9604L19.7895 12.9862L19.7528 12.3048L14.6298 12.2889ZM27.5496 11.9899C27.6173 11.9627 27.6851 11.9354 27.7535 11.9091C28.1401 12.2478 28.5052 12.6634 28.8372 13.0902C28.4333 13.6092 28.3821 14.28 28.3858 14.9726L28.4191 24.9874C28.3072 26.604 27.2712 28.1598 25.769 28.8716C24.9743 29.2882 24.0988 29.5211 23.2234 29.754C22.3479 29.9869 21.4725 30.2199 20.6777 30.6364L20.2179 30.9688L20.1837 30.7713L20.1706 12.3244C20.2473 12.2801 20.39 12.2793 20.5112 12.3008L26.5024 12.2679C26.8863 12.2565 27.2162 12.1239 27.5496 11.9899ZM27.7535 11.9091C27.7535 11.9091 27.7536 11.9091 27.7536 11.9091L27.7533 11.9089C27.7534 11.909 27.7534 11.9091 27.7535 11.9091Z" fill="#8A8A9C"/>
</svg>
