<svg width="48" height="56" viewBox="0 0 48 56" fill="none" xmlns="http://www.w3.org/2000/svg">
<path fill-rule="evenodd" clip-rule="evenodd" d="M28.0224 11.2002C12.5683 11.2002 0 18.9425 0 28.5069C0 37.9977 12.5683 45.7687 28.0224 45.7687C43.5626 45.7687 56 37.9977 56 28.5069C56 18.9423 43.5626 11.2002 28.0224 11.2002ZM28.0224 14.5181C42.474 14.5181 54.1617 20.7287 54.1617 28.5069C54.1617 36.2133 42.474 42.4508 28.0224 42.4508C13.6677 42.4508 1.9728 36.2133 1.9728 28.5069C1.9728 20.7287 13.6677 14.5181 28.0224 14.5181ZM7.98075 22.0504V34.9184H11.2986V29.4933H16.9032V31.7798H12.016V34.9184H18.293L20.1762 33.6181V29.3139L19.3243 28.5069L20.1762 27.7447V24.0681L18.4724 22.0505L7.98075 22.0504ZM21.5213 22.0504V28.3723L22.9111 29.7174L26.0048 29.6727V26.6238L25.422 26.0858V22.0506H21.5213V22.0504ZM31.0264 22.0504V26.0857L30.4436 26.6237H26.7222V34.9185H30.5781V29.6725L33.4924 29.7173L34.8822 28.4171V22.0504H31.0264ZM36.2274 22.0504V34.9184H39.7246V25.2788H43.5356L44.5668 26.4445V31.7351H40.442V34.9185H48.0192V24.3373L46.0913 22.0505L36.2274 22.0504ZM11.2986 25.189H16.8583V27.4757H11.2986V25.189Z" fill="#8A8A9C"/>
</svg>
