<svg width="64" height="64" viewBox="0 0 64 64" fill="none" xmlns="http://www.w3.org/2000/svg">
<path fill-rule="evenodd" clip-rule="evenodd" d="M42.9473 4.8C42.9473 3.91635 42.231 3.2 41.3473 3.2L4.8 3.2C3.91634 3.2 3.2 3.91634 3.2 4.8L3.2 54.4C3.2 55.2837 3.91635 56 4.8 56H24C24.8837 56 25.6 56.7164 25.6 57.6C25.6 58.4837 24.8837 59.2 24 59.2H4.8C2.14903 59.2 0 57.051 0 54.4L2.9127e-06 4.8C3.0279e-06 2.14903 2.14904 0 4.8 0L41.3473 1.57591e-06C43.9983 1.69247e-06 46.1473 2.14903 46.1473 4.8V24.8C46.1473 25.6837 45.431 26.4 44.5473 26.4C43.6637 26.4 42.9473 25.6837 42.9473 24.8V4.8ZM5.56743 12.8C5.56743 11.9163 6.28378 11.2 7.16743 11.2H38.9803C39.8639 11.2 40.5803 11.9163 40.5803 12.8C40.5803 13.6837 39.8639 14.4 38.9803 14.4H7.16743C6.28378 14.4 5.56743 13.6837 5.56743 12.8ZM7.16743 21.6C6.28378 21.6 5.56743 22.3164 5.56743 23.2C5.56743 24.0837 6.28378 24.8 7.16743 24.8H38.9803C39.8639 24.8 40.5803 24.0837 40.5803 23.2C40.5803 22.3164 39.8639 21.6 38.9803 21.6H7.16743ZM5.56743 33.6C5.56743 32.7164 6.28378 32 7.16743 32H31.0271C31.9107 32 32.6271 32.7164 32.6271 33.6C32.6271 34.4837 31.9107 35.2 31.0271 35.2H7.16743C6.28378 35.2 5.56743 34.4837 5.56743 33.6ZM7.16743 42.4C6.28378 42.4 5.56743 43.1164 5.56743 44C5.56743 44.8837 6.28378 45.6 7.16743 45.6H23.8738C24.7575 45.6 25.4738 44.8837 25.4738 44C25.4738 43.1164 24.7575 42.4 23.8738 42.4H7.16743Z" fill="url(#paint0_linear_851_2195)"/>
<mask id="path-2-inside-1_851_2195" fill="white">
<path fill-rule="evenodd" clip-rule="evenodd" d="M61.525 51.5428C59.4188 49.2577 59.0857 45.9213 59.0857 42.8137C59.0857 35.9577 53.5852 30.3999 46.8 30.3999C40.0148 30.3999 34.5143 35.9577 34.5143 42.8137C34.5143 45.9213 34.1811 49.2577 32.075 51.5428L31.3063 52.3767C30.3773 53.3847 29.9128 53.8886 29.7521 54.3154C29.3858 55.2879 29.6993 56.3667 30.4968 56.8783C30.8468 57.1028 31.478 57.1728 32.7405 57.3127C33.4534 57.3917 33.8098 57.4312 34.1083 57.5511C34.7766 57.8195 35.2965 58.3835 35.5439 59.1086C35.6544 59.4325 35.6908 59.8192 35.7636 60.5926C35.8926 61.9623 35.9571 62.6472 36.164 63.0269C36.6355 63.8922 37.6299 64.2323 38.5262 63.8349C38.9196 63.6605 39.3841 63.1565 40.3131 62.1486L46.6201 55.3059C46.6663 55.2557 46.7317 55.2275 46.8 55.2275C46.8683 55.2275 46.9336 55.2557 46.9799 55.3059L53.2869 62.1486C54.2159 63.1565 54.6804 63.6605 55.0737 63.8349C55.9701 64.2323 56.9644 63.8922 57.436 63.0269C57.6429 62.6472 57.7074 61.9623 57.8363 60.5926C57.9091 59.8192 57.9456 59.4325 58.0561 59.1086C58.3035 58.3835 58.8233 57.8195 59.4917 57.5511C59.7902 57.4312 60.1466 57.3917 60.8594 57.3127C62.1219 57.1728 62.7532 57.1028 63.1032 56.8783C63.9007 56.3667 64.2141 55.2879 63.8479 54.3154C63.6871 53.8886 63.2226 53.3847 62.2936 52.3767L61.525 51.5428ZM46.8949 36.7999C46.3293 36.7999 45.9511 37.4816 45.1945 38.8449L45.1945 38.8449L44.9988 39.1976C44.7838 39.5851 44.6763 39.7788 44.5087 39.9066C44.341 40.0344 44.1323 40.0818 43.7148 40.1767L43.3347 40.2631C41.8655 40.597 41.1309 40.764 40.9562 41.3285C40.7814 41.8931 41.2822 42.4813 42.2838 43.6579L42.5429 43.9622C42.8275 44.2966 42.9698 44.4637 43.0339 44.6705C43.0979 44.8773 43.0764 45.1004 43.0333 45.5464L42.9942 45.9525C42.8427 47.5223 42.767 48.3071 43.2246 48.656C43.6821 49.0049 44.3699 48.6868 45.7455 48.0506L46.1014 47.886C46.4923 47.7052 46.6877 47.6148 46.8949 47.6148C47.1021 47.6148 47.2975 47.7052 47.6884 47.886L48.0443 48.0506C49.4199 48.6868 50.1077 49.0049 50.5652 48.656C51.0228 48.3071 50.9471 47.5223 50.7957 45.9525L50.7565 45.5464V45.5464C50.7135 45.1004 50.6919 44.8773 50.756 44.6705C50.82 44.4637 50.9623 44.2966 51.2469 43.9623L51.2469 43.9623L51.2469 43.9622L51.506 43.6579C52.5076 42.4813 53.0084 41.8931 52.8336 41.3285C52.6589 40.764 51.9243 40.597 50.4551 40.2631L50.075 40.1767C49.6575 40.0818 49.4488 40.0344 49.2812 39.9066C49.1136 39.7788 49.0061 39.5851 48.7911 39.1976L48.5953 38.8449C47.8388 37.4816 47.4605 36.7999 46.8949 36.7999Z"/>
</mask>
<path fill-rule="evenodd" clip-rule="evenodd" d="M61.525 51.5428C59.4188 49.2577 59.0857 45.9213 59.0857 42.8137C59.0857 35.9577 53.5852 30.3999 46.8 30.3999C40.0148 30.3999 34.5143 35.9577 34.5143 42.8137C34.5143 45.9213 34.1811 49.2577 32.075 51.5428L31.3063 52.3767C30.3773 53.3847 29.9128 53.8886 29.7521 54.3154C29.3858 55.2879 29.6993 56.3667 30.4968 56.8783C30.8468 57.1028 31.478 57.1728 32.7405 57.3127C33.4534 57.3917 33.8098 57.4312 34.1083 57.5511C34.7766 57.8195 35.2965 58.3835 35.5439 59.1086C35.6544 59.4325 35.6908 59.8192 35.7636 60.5926C35.8926 61.9623 35.9571 62.6472 36.164 63.0269C36.6355 63.8922 37.6299 64.2323 38.5262 63.8349C38.9196 63.6605 39.3841 63.1565 40.3131 62.1486L46.6201 55.3059C46.6663 55.2557 46.7317 55.2275 46.8 55.2275C46.8683 55.2275 46.9336 55.2557 46.9799 55.3059L53.2869 62.1486C54.2159 63.1565 54.6804 63.6605 55.0737 63.8349C55.9701 64.2323 56.9644 63.8922 57.436 63.0269C57.6429 62.6472 57.7074 61.9623 57.8363 60.5926C57.9091 59.8192 57.9456 59.4325 58.0561 59.1086C58.3035 58.3835 58.8233 57.8195 59.4917 57.5511C59.7902 57.4312 60.1466 57.3917 60.8594 57.3127C62.1219 57.1728 62.7532 57.1028 63.1032 56.8783C63.9007 56.3667 64.2141 55.2879 63.8479 54.3154C63.6871 53.8886 63.2226 53.3847 62.2936 52.3767L61.525 51.5428ZM46.8949 36.7999C46.3293 36.7999 45.9511 37.4816 45.1945 38.8449L45.1945 38.8449L44.9988 39.1976C44.7838 39.5851 44.6763 39.7788 44.5087 39.9066C44.341 40.0344 44.1323 40.0818 43.7148 40.1767L43.3347 40.2631C41.8655 40.597 41.1309 40.764 40.9562 41.3285C40.7814 41.8931 41.2822 42.4813 42.2838 43.6579L42.5429 43.9622C42.8275 44.2966 42.9698 44.4637 43.0339 44.6705C43.0979 44.8773 43.0764 45.1004 43.0333 45.5464L42.9942 45.9525C42.8427 47.5223 42.767 48.3071 43.2246 48.656C43.6821 49.0049 44.3699 48.6868 45.7455 48.0506L46.1014 47.886C46.4923 47.7052 46.6877 47.6148 46.8949 47.6148C47.1021 47.6148 47.2975 47.7052 47.6884 47.886L48.0443 48.0506C49.4199 48.6868 50.1077 49.0049 50.5652 48.656C51.0228 48.3071 50.9471 47.5223 50.7957 45.9525L50.7565 45.5464V45.5464C50.7135 45.1004 50.6919 44.8773 50.756 44.6705C50.82 44.4637 50.9623 44.2966 51.2469 43.9623L51.2469 43.9623L51.2469 43.9622L51.506 43.6579C52.5076 42.4813 53.0084 41.8931 52.8336 41.3285C52.6589 40.764 51.9243 40.597 50.4551 40.2631L50.075 40.1767C49.6575 40.0818 49.4488 40.0344 49.2812 39.9066C49.1136 39.7788 49.0061 39.5851 48.7911 39.1976L48.5953 38.8449C47.8388 37.4816 47.4605 36.7999 46.8949 36.7999Z" fill="#F1DD23"/>
<path d="M31.3063 52.3767L32.777 53.7322H32.777L31.3063 52.3767ZM29.7521 54.3154L27.8804 53.6105H27.8804L29.7521 54.3154ZM30.4968 56.8783L29.4169 58.5617L29.4169 58.5617L30.4968 56.8783ZM32.7405 57.3127L32.5202 59.3005H32.5202L32.7405 57.3127ZM34.1083 57.5511L34.8537 55.6952L34.8537 55.6952L34.1083 57.5511ZM35.5439 59.1086L37.4367 58.4628L37.4367 58.4628L35.5439 59.1086ZM35.7636 60.5926L33.7724 60.78L33.7724 60.7801L35.7636 60.5926ZM36.164 63.0269L34.4078 63.984L34.4078 63.984L36.164 63.0269ZM38.5262 63.8349L37.7157 62.0065L37.7156 62.0065L38.5262 63.8349ZM40.3131 62.1486L38.8425 60.7931L38.8425 60.7931L40.3131 62.1486ZM53.2869 62.1486L54.7575 60.7931L54.7575 60.7931L53.2869 62.1486ZM55.0737 63.8349L55.8843 62.0065L55.8843 62.0065L55.0737 63.8349ZM57.436 63.0269L59.1921 63.984L59.1921 63.984L57.436 63.0269ZM57.8363 60.5926L59.8275 60.7801V60.78L57.8363 60.5926ZM58.0561 59.1086L56.1632 58.4628L56.1632 58.4628L58.0561 59.1086ZM59.4917 57.5511L58.7463 55.6952L58.7462 55.6952L59.4917 57.5511ZM60.8594 57.3127L61.0797 59.3005H61.0797L60.8594 57.3127ZM63.1032 56.8783L64.183 58.5617L64.1831 58.5617L63.1032 56.8783ZM63.8479 54.3154L65.7195 53.6105L65.7195 53.6105L63.8479 54.3154ZM62.2936 52.3767L60.823 53.7322H60.823L62.2936 52.3767ZM45.1945 38.8449L46.8586 39.9543L46.9038 39.8866L46.9433 39.8154L45.1945 38.8449ZM45.1945 38.8449L43.5304 37.7355L43.4852 37.8033L43.4457 37.8745L45.1945 38.8449ZM44.9988 39.1976L46.7475 40.1681V40.1681L44.9988 39.1976ZM44.5087 39.9066L45.7214 41.497L45.7214 41.4969L44.5087 39.9066ZM43.7148 40.1767L43.2715 38.2265H43.2715L43.7148 40.1767ZM43.3347 40.2631L43.778 42.2134H43.778L43.3347 40.2631ZM40.9562 41.3285L42.8667 41.92V41.92L40.9562 41.3285ZM42.2838 43.6579L40.7609 44.9543L40.7609 44.9543L42.2838 43.6579ZM42.5429 43.9622L44.0658 42.6658L44.0658 42.6658L42.5429 43.9622ZM43.0339 44.6705L41.1233 45.262V45.262L43.0339 44.6705ZM43.0333 45.5464L45.0241 45.7385L43.0333 45.5464ZM42.9942 45.9525L41.0034 45.7605V45.7605L42.9942 45.9525ZM43.2246 48.656L42.0118 50.2464L42.0118 50.2464L43.2246 48.656ZM45.7455 48.0506L46.5851 49.8659L46.5851 49.8659L45.7455 48.0506ZM46.1014 47.886L45.2618 46.0708L45.2618 46.0708L46.1014 47.886ZM47.6884 47.886L48.528 46.0708L48.528 46.0708L47.6884 47.886ZM48.0443 48.0506L47.2047 49.8659L47.2047 49.8659L48.0443 48.0506ZM50.5652 48.656L49.3525 47.0657L49.3525 47.0657L50.5652 48.656ZM50.7957 45.9525L48.8049 46.1446V46.1446L50.7957 45.9525ZM50.7565 45.5464H48.7565V45.6427L48.7657 45.7385L50.7565 45.5464ZM50.7565 45.5464H52.7565V45.4502L52.7472 45.3544L50.7565 45.5464ZM50.756 44.6705L52.6665 45.262L52.6665 45.262L50.756 44.6705ZM51.2469 43.9623L52.7698 45.2588L52.8098 45.2117L52.8469 45.1623L51.2469 43.9623ZM51.2469 43.9623L49.7284 42.6607L49.686 42.7101L49.6469 42.7623L51.2469 43.9623ZM51.2469 43.9622L52.7654 45.2638L52.7698 45.2587L51.2469 43.9622ZM51.506 43.6579L53.0289 44.9543L51.506 43.6579ZM52.8336 41.3285L50.9231 41.92V41.92L52.8336 41.3285ZM50.4551 40.2631L50.8984 38.3129L50.8984 38.3129L50.4551 40.2631ZM50.075 40.1767L49.6318 42.127L49.6318 42.127L50.075 40.1767ZM49.2812 39.9066L48.0684 41.4969L48.0684 41.497L49.2812 39.9066ZM48.7911 39.1976L50.5398 38.2272L50.5398 38.2272L48.7911 39.1976ZM48.5953 38.8449L46.8466 39.8154L46.8466 39.8154L48.5953 38.8449ZM46.9799 55.3059L45.5093 56.6614L46.9799 55.3059ZM46.6201 55.3059L45.1494 53.9504L46.6201 55.3059ZM32.075 51.5428L30.6044 50.1873L32.075 51.5428ZM46.8 32.3999C52.4611 32.3999 57.0857 37.0427 57.0857 42.8137H61.0857C61.0857 34.8728 54.7093 28.3999 46.8 28.3999V32.3999ZM36.5143 42.8137C36.5143 37.0427 41.1388 32.3999 46.8 32.3999V28.3999C38.8907 28.3999 32.5143 34.8728 32.5143 42.8137H36.5143ZM32.777 53.7322L33.5456 52.8983L30.6044 50.1873L29.8357 51.0213L32.777 53.7322ZM31.6238 55.0203C31.5826 55.1297 31.5608 55.1066 31.7828 54.8381C31.9925 54.5844 32.2968 54.2531 32.777 53.7322L29.8357 51.0213C29.3868 51.5083 28.9945 51.9329 28.6995 52.2899C28.4167 52.632 28.0824 53.0743 27.8804 53.6105L31.6238 55.0203ZM31.5767 55.1949C31.6241 55.2253 31.6195 55.2491 31.6086 55.2117C31.5974 55.1732 31.5925 55.1034 31.6238 55.0203L27.8804 53.6105C27.2277 55.3436 27.7197 57.473 29.4169 58.5617L31.5767 55.1949ZM32.9608 55.3249C32.3025 55.2519 31.9041 55.2068 31.622 55.1573C31.3142 55.1033 31.4003 55.0818 31.5766 55.1949L29.4169 58.5617C29.9432 58.8993 30.52 59.025 30.9309 59.0971C31.3676 59.1737 31.9161 59.2336 32.5202 59.3005L32.9608 55.3249ZM34.8537 55.6952C34.2397 55.4485 33.5502 55.3902 32.9608 55.3249L32.5202 59.3005C32.8959 59.3421 33.1061 59.366 33.2615 59.3911C33.4014 59.4136 33.4047 59.4238 33.3629 59.407L34.8537 55.6952ZM37.4367 58.4628C37.0149 57.2265 36.1004 56.1959 34.8537 55.6952L33.3629 59.407C33.4528 59.4431 33.5781 59.5406 33.6511 59.7545L37.4367 58.4628ZM37.7548 60.4051C37.6923 59.7408 37.6423 59.0652 37.4367 58.4628L33.651 59.7545C33.6482 59.746 33.6631 59.7831 33.6864 59.9534C33.7114 60.1357 33.7345 60.3769 33.7724 60.78L37.7548 60.4051ZM37.9202 62.0699C37.9954 62.208 37.9654 62.2399 37.9127 61.8862C37.8645 61.5627 37.8215 61.1132 37.7548 60.4051L33.7724 60.7801C33.8347 61.4417 33.8884 62.0196 33.9564 62.4758C34.0199 62.9019 34.1257 63.4662 34.4078 63.984L37.9202 62.0699ZM37.7156 62.0065C37.715 62.0068 37.728 62.0012 37.7529 62.0001C37.7772 61.999 37.805 62.0025 37.833 62.012C37.861 62.0216 37.8839 62.0354 37.9005 62.0495C37.9175 62.064 37.9223 62.0739 37.9202 62.0699L34.4078 63.984C35.3737 65.7563 37.4809 66.486 39.3368 65.6633L37.7156 62.0065ZM38.8425 60.7931C38.362 61.3144 38.0571 61.6441 37.8242 61.8708C37.569 62.119 37.5675 62.0722 37.7157 62.0065L39.3368 65.6633C39.8783 65.4232 40.3058 65.0372 40.6134 64.7379C40.9433 64.4169 41.3352 63.9907 41.7837 63.5041L38.8425 60.7931ZM45.1494 53.9504L38.8425 60.7931L41.7837 63.5041L48.0907 56.6614L45.1494 53.9504ZM54.7575 60.7931L48.4505 53.9504L45.5093 56.6614L51.8162 63.5041L54.7575 60.7931ZM55.8843 62.0065C56.0325 62.0722 56.031 62.119 55.7758 61.8708C55.5428 61.6441 55.2379 61.3144 54.7575 60.7931L51.8162 63.5041C52.2648 63.9907 52.6567 64.4169 52.9865 64.7379C53.2942 65.0372 53.7216 65.4232 54.2632 65.6633L55.8843 62.0065ZM55.6798 62.0699C55.6777 62.0739 55.6825 62.064 55.6995 62.0495C55.7161 62.0354 55.739 62.0216 55.7669 62.012C55.7949 62.0025 55.8228 61.999 55.8471 62.0001C55.872 62.0012 55.885 62.0068 55.8843 62.0065L54.2631 65.6633C56.119 66.486 58.2263 65.7563 59.1921 63.984L55.6798 62.0699ZM55.8451 60.4051C55.7785 61.1132 55.7354 61.5627 55.6872 61.8862C55.6345 62.2399 55.6045 62.208 55.6798 62.0699L59.1921 63.984C59.4743 63.4662 59.58 62.9019 59.6435 62.4758C59.7115 62.0196 59.7652 61.4417 59.8275 60.7801L55.8451 60.4051ZM56.1632 58.4628C55.9577 59.0652 55.9077 59.7408 55.8451 60.4051L59.8275 60.78C59.8655 60.3769 59.8886 60.1357 59.9136 59.9534C59.9369 59.7831 59.9518 59.746 59.9489 59.7545L56.1632 58.4628ZM58.7462 55.6952C57.4995 56.1959 56.5851 57.2265 56.1632 58.4628L59.9489 59.7545C60.0219 59.5406 60.1472 59.4431 60.2371 59.407L58.7462 55.6952ZM60.6391 55.3249C60.0497 55.3902 59.3603 55.4485 58.7463 55.6952L60.2371 59.407C60.1953 59.4238 60.1986 59.4136 60.3384 59.3911C60.4939 59.366 60.7041 59.3421 61.0797 59.3005L60.6391 55.3249ZM62.0233 55.1949C62.1996 55.0818 62.2858 55.1033 61.9779 55.1573C61.6959 55.2068 61.2975 55.2519 60.6391 55.3249L61.0797 59.3005C61.6839 59.2336 62.2324 59.1737 62.6691 59.0971C63.08 59.025 63.6568 58.8993 64.183 58.5617L62.0233 55.1949ZM61.9762 55.0203C62.0075 55.1034 62.0026 55.1732 61.9914 55.2117C61.9805 55.2491 61.9759 55.2253 62.0233 55.1949L64.1831 58.5617C65.8802 57.473 66.3722 55.3436 65.7195 53.6105L61.9762 55.0203ZM60.823 53.7322C61.3031 54.2531 61.6075 54.5844 61.8172 54.8381C62.0391 55.1066 62.0174 55.1297 61.9762 55.0203L65.7195 53.6105C65.5176 53.0743 65.1832 52.632 64.9005 52.2899C64.6055 51.9329 64.2131 51.5083 63.7642 51.0213L60.823 53.7322ZM60.0543 52.8982L60.823 53.7322L63.7642 51.0213L62.9956 50.1873L60.0543 52.8982ZM46.9433 39.8154C47.1362 39.4677 47.288 39.1944 47.4227 38.9659C47.5593 38.7342 47.6483 38.6004 47.7068 38.5237C47.7701 38.4407 47.7401 38.502 47.6124 38.5878C47.449 38.6976 47.1959 38.7999 46.8949 38.7999V34.7999C45.649 34.7999 44.895 35.6143 44.5258 36.0986C44.1564 36.5832 43.7916 37.2512 43.4457 37.8745L46.9433 39.8154ZM46.8586 39.9543L46.8586 39.9543L43.5304 37.7355L43.5304 37.7355L46.8586 39.9543ZM46.7475 40.1681L46.9433 39.8154L43.4457 37.8745L43.25 38.2272L46.7475 40.1681ZM45.7214 41.4969C46.3006 41.0553 46.6193 40.3991 46.7475 40.1681L43.25 38.2272C43.2227 38.2763 43.1992 38.3186 43.1774 38.3577C43.1556 38.3966 43.1374 38.4289 43.1214 38.4567C43.1054 38.4845 43.0932 38.5051 43.0839 38.5205C43.0745 38.5359 43.0696 38.5434 43.0683 38.5454C43.065 38.5504 43.0834 38.5217 43.1222 38.4775C43.1422 38.4547 43.1672 38.4282 43.1972 38.3999C43.2275 38.3714 43.2604 38.3433 43.2959 38.3162L45.7214 41.4969ZM44.1581 42.127C44.4035 42.0712 45.1284 41.9492 45.7214 41.497L43.2959 38.3162C43.3314 38.2892 43.3679 38.2643 43.4048 38.2419C43.4414 38.2196 43.4754 38.2016 43.5052 38.1873C43.5633 38.1593 43.6014 38.1474 43.6015 38.1474C43.602 38.1472 43.5959 38.1491 43.581 38.1532C43.566 38.1573 43.5452 38.1626 43.5162 38.1697C43.4871 38.1768 43.4531 38.1849 43.4116 38.1945C43.3698 38.2041 43.3245 38.2144 43.2715 38.2265L44.1581 42.127ZM43.778 42.2134L44.1581 42.127L43.2715 38.2265L42.8914 38.3129L43.778 42.2134ZM42.8667 41.92C42.7912 42.164 42.6465 42.3602 42.5002 42.4862C42.3836 42.5867 42.3129 42.6019 42.3962 42.5689C42.4753 42.5376 42.6163 42.4922 42.8652 42.4282C43.1108 42.3652 43.4025 42.2987 43.778 42.2134L42.8914 38.3129C42.225 38.4643 41.4911 38.6252 40.9239 38.8498C40.3171 39.09 39.399 39.5957 39.0456 40.7371L42.8667 41.92ZM43.8067 42.3614C43.5511 42.0612 43.3509 41.8258 43.1859 41.6212C43.0189 41.4143 42.9254 41.2844 42.8736 41.2017C42.8192 41.1148 42.8577 41.153 42.8899 41.2826C42.9308 41.4469 42.9416 41.678 42.8667 41.92L39.0456 40.7371C38.6997 41.8546 39.1454 42.7853 39.4841 43.3258C39.809 43.8442 40.3028 44.4163 40.7609 44.9543L43.8067 42.3614ZM44.0658 42.6658L43.8067 42.3614L40.7609 44.9543L41.02 45.2587L44.0658 42.6658ZM44.9444 44.0791C44.731 43.3896 44.2433 42.8742 44.0658 42.6658L41.02 45.2587C41.0561 45.3011 41.0871 45.3375 41.1158 45.3714C41.1442 45.405 41.1677 45.4331 41.1878 45.4574C41.2298 45.5084 41.2464 45.5305 41.2506 45.5364C41.2536 45.5406 41.2341 45.5142 41.2075 45.4646C41.1938 45.4391 41.1788 45.4085 41.1639 45.3731C41.1489 45.3376 41.1352 45.3004 41.1233 45.262L44.9444 44.0791ZM45.0241 45.7385C45.0511 45.4585 45.155 44.7593 44.9444 44.0791L41.1233 45.262C41.0986 45.1821 41.0854 45.1096 41.079 45.0522C41.0732 44.9995 41.0743 44.97 41.0741 44.9787C41.0739 44.9892 41.0727 45.0199 41.0672 45.0883C41.0616 45.1572 41.0538 45.2386 41.0426 45.3544L45.0241 45.7385ZM44.9849 46.1446L45.0241 45.7385L41.0426 45.3544L41.0034 45.7605L44.9849 46.1446ZM44.4373 47.0657C44.66 47.2355 44.7885 47.4482 44.8482 47.6084C44.8949 47.7335 44.884 47.7843 44.879 47.6735C44.8744 47.5693 44.8776 47.4019 44.8969 47.1295C44.916 46.8604 44.9463 46.5446 44.9849 46.1446L41.0034 45.7605C40.9339 46.4814 40.8559 47.2395 40.883 47.8507C40.9101 48.4636 41.059 49.5198 42.0118 50.2464L44.4373 47.0657ZM44.9059 46.2354C44.5545 46.3979 44.2809 46.5243 44.0464 46.625C43.8084 46.7272 43.6686 46.7775 43.5876 46.8008C43.5002 46.8259 43.5745 46.7916 43.7416 46.8019C43.9531 46.815 44.2112 46.8933 44.4373 47.0657L42.0118 50.2464C43.0007 51.0004 44.0828 50.8206 44.694 50.6447C45.2787 50.4764 45.9613 50.1544 46.5851 49.8659L44.9059 46.2354ZM45.2618 46.0708L44.9059 46.2354L46.5851 49.8659L46.941 49.7013L45.2618 46.0708ZM46.8949 45.6148C46.1443 45.6148 45.4842 45.9679 45.2618 46.0708L46.941 49.7013C46.9906 49.6783 47.033 49.6587 47.0723 49.6407C47.1113 49.6228 47.1435 49.6082 47.1711 49.596C47.1988 49.5838 47.2188 49.5752 47.2334 49.5692C47.248 49.5631 47.2542 49.5609 47.2538 49.561C47.2534 49.5612 47.2439 49.5646 47.227 49.5697C47.2099 49.5748 47.1842 49.5818 47.1513 49.5887C47.118 49.5957 47.0786 49.6024 47.0339 49.6073C46.989 49.6122 46.9425 49.6148 46.8949 49.6148V45.6148ZM48.528 46.0708C48.3057 45.9679 47.6455 45.6148 46.8949 45.6148V49.6148C46.8474 49.6148 46.8008 49.6122 46.7559 49.6073C46.7113 49.6024 46.6718 49.5957 46.6385 49.5887C46.6056 49.5818 46.5799 49.5748 46.5628 49.5697C46.546 49.5646 46.5365 49.5612 46.536 49.561C46.5357 49.5609 46.5418 49.5631 46.5564 49.5692C46.571 49.5752 46.5911 49.5838 46.6187 49.596C46.6463 49.6082 46.6785 49.6228 46.7175 49.6407C46.7568 49.6587 46.7993 49.6783 46.8489 49.7013L48.528 46.0708ZM48.8839 46.2354L48.528 46.0708L46.8489 49.7013L47.2047 49.8659L48.8839 46.2354ZM49.3525 47.0657C49.5786 46.8933 49.8367 46.815 50.0482 46.8019C50.2153 46.7916 50.2896 46.8259 50.2022 46.8008C50.1212 46.7775 49.9814 46.7272 49.7434 46.625C49.5089 46.5243 49.2353 46.3979 48.8839 46.2354L47.2047 49.8659C47.8285 50.1544 48.5112 50.4764 49.0959 50.6447C49.707 50.8206 50.7892 51.0004 51.778 50.2464L49.3525 47.0657ZM48.8049 46.1446C48.8435 46.5446 48.8738 46.8604 48.8929 47.1295C48.9122 47.4019 48.9154 47.5693 48.9108 47.6735C48.9059 47.7843 48.895 47.7335 48.9416 47.6084C49.0014 47.4482 49.1298 47.2355 49.3525 47.0657L51.778 50.2464C52.7308 49.5198 52.8797 48.4636 52.9069 47.8507C52.934 47.2395 52.856 46.4814 52.7864 45.7605L48.8049 46.1446ZM48.7657 45.7385L48.8049 46.1446L52.7864 45.7605L52.7472 45.3544L48.7657 45.7385ZM48.7565 45.5464V45.5464H52.7565V45.5464H48.7565ZM48.8454 44.0791C48.6348 44.7593 48.7387 45.4585 48.7657 45.7385L52.7472 45.3544C52.7361 45.2386 52.7283 45.1572 52.7227 45.0883C52.7171 45.0199 52.7159 44.9892 52.7157 44.9787C52.7155 44.97 52.7167 44.9995 52.7108 45.0522C52.7044 45.1096 52.6912 45.1821 52.6665 45.262L48.8454 44.0791ZM49.724 42.6658C49.5465 42.8743 49.0589 43.3896 48.8454 44.0791L52.6665 45.262C52.6546 45.3004 52.641 45.3376 52.6259 45.3731C52.611 45.4085 52.596 45.4391 52.5824 45.4646C52.5558 45.5142 52.5362 45.5406 52.5392 45.5364C52.5434 45.5305 52.56 45.5084 52.602 45.4574C52.6221 45.4331 52.6456 45.4051 52.674 45.3714C52.7027 45.3376 52.7337 45.3011 52.7698 45.2588L49.724 42.6658ZM49.6469 42.7623L49.6469 42.7623L52.8469 45.1623L52.8469 45.1623L49.6469 42.7623ZM49.7284 42.6607L49.7284 42.6607L52.7654 45.2638L52.7654 45.2638L49.7284 42.6607ZM49.9831 42.3614L49.724 42.6658L52.7698 45.2587L53.0289 44.9543L49.9831 42.3614ZM50.9231 41.92C50.8482 41.678 50.859 41.4469 50.8999 41.2826C50.9321 41.153 50.9707 41.1148 50.9163 41.2017C50.8644 41.2844 50.7709 41.4143 50.6039 41.6212C50.4389 41.8258 50.2387 42.0612 49.9831 42.3614L53.0289 44.9543C53.487 44.4163 53.9808 43.8442 54.3057 43.3258C54.6444 42.7853 55.0901 41.8546 54.7442 40.7371L50.9231 41.92ZM50.0119 42.2134C50.3873 42.2987 50.679 42.3652 50.9246 42.4282C51.1735 42.4922 51.3145 42.5376 51.3936 42.5689C51.477 42.6019 51.4062 42.5867 51.2896 42.4862C51.1433 42.3602 50.9986 42.164 50.9231 41.92L54.7442 40.7371C54.3909 39.5957 53.4727 39.09 52.8659 38.8498C52.2988 38.6252 51.5648 38.4643 50.8984 38.3129L50.0119 42.2134ZM49.6318 42.127L50.0119 42.2134L50.8984 38.3129L50.5183 38.2265L49.6318 42.127ZM48.0684 41.497C48.6615 41.9492 49.3863 42.0712 49.6318 42.127L50.5183 38.2265C50.4653 38.2144 50.42 38.2041 50.3782 38.1945C50.3367 38.1849 50.3027 38.1768 50.2736 38.1697C50.2446 38.1626 50.2238 38.1573 50.2088 38.1532C50.1939 38.1491 50.1879 38.1472 50.1883 38.1474C50.1884 38.1474 50.2265 38.1593 50.2846 38.1873C50.3144 38.2016 50.3484 38.2196 50.3851 38.2419C50.4219 38.2643 50.4584 38.2892 50.4939 38.3162L48.0684 41.497ZM47.0423 40.1681C47.1705 40.3991 47.4893 41.0553 48.0684 41.4969L50.4939 38.3162C50.5294 38.3433 50.5624 38.3714 50.5926 38.3999C50.6227 38.4282 50.6476 38.4547 50.6676 38.4775C50.7064 38.5217 50.7249 38.5504 50.7215 38.5454C50.7202 38.5434 50.7153 38.5359 50.706 38.5205C50.6966 38.5051 50.6844 38.4845 50.6685 38.4567C50.6525 38.4289 50.6342 38.3966 50.6125 38.3577C50.5906 38.3186 50.5671 38.2763 50.5398 38.2272L47.0423 40.1681ZM46.8466 39.8154L47.0423 40.1681L50.5398 38.2272L50.3441 37.8745L46.8466 39.8154ZM46.8949 38.7999C46.5939 38.7999 46.3408 38.6976 46.1774 38.5878C46.0498 38.502 46.0197 38.4407 46.083 38.5237C46.1415 38.6004 46.2305 38.7342 46.3671 38.9659C46.5018 39.1944 46.6536 39.4677 46.8466 39.8154L50.3441 37.8745C49.9983 37.2512 49.6335 36.5832 49.264 36.0986C48.8948 35.6143 48.1408 34.7999 46.8949 34.7999V38.7999ZM46.8 57.2275C46.3188 57.2275 45.8479 57.0287 45.5093 56.6614L48.4505 53.9504C48.0193 53.4826 47.4177 53.2275 46.8 53.2275V57.2275ZM48.0907 56.6614C47.7521 57.0287 47.2811 57.2275 46.8 57.2275V53.2275C46.1822 53.2275 45.5806 53.4826 45.1494 53.9504L48.0907 56.6614ZM32.5143 42.8137C32.5143 45.9154 32.1401 48.5211 30.6044 50.1873L33.5456 52.8983C36.2221 49.9944 36.5143 45.9272 36.5143 42.8137H32.5143ZM57.0857 42.8137C57.0857 45.9272 57.3778 49.9944 60.0543 52.8982L62.9956 50.1873C61.4598 48.5211 61.0857 45.9154 61.0857 42.8137H57.0857Z" fill="white" fill-opacity="0.23" mask="url(#path-2-inside-1_851_2195)"/>
<path d="M58.0858 42.8137C58.0858 49.1272 53.0232 54.2275 46.8001 54.2275C40.5769 54.2275 35.5143 49.1272 35.5143 42.8137C35.5143 36.5002 40.5769 31.3999 46.8001 31.3999C53.0232 31.3999 58.0858 36.5002 58.0858 42.8137Z" stroke="white" stroke-opacity="0.23" stroke-width="2"/>
<defs>
<linearGradient id="paint0_linear_851_2195" x1="23.0737" y1="29.6" x2="38.2561" y2="40.5896" gradientUnits="userSpaceOnUse">
<stop stop-color="white"/>
<stop offset="1" stop-color="white" stop-opacity="0"/>
</linearGradient>
</defs>
</svg>
