<svg width="64" height="64" viewBox="0 0 64 64" fill="none" xmlns="http://www.w3.org/2000/svg">
<path fill-rule="evenodd" clip-rule="evenodd" d="M21.8462 1.6C21.8462 0.716344 21.1298 0 20.2462 0C19.3625 0 18.6462 0.716344 18.6462 1.6V18.7237C18.6462 19.6074 19.3625 20.3237 20.2462 20.3237C21.1298 20.3237 21.8462 19.6074 21.8462 18.7237V1.6ZM5.50611 4.35707C5.20785 3.52527 4.29176 3.09275 3.45996 3.391C2.62816 3.68926 2.19564 4.60535 2.49389 5.43715L7.90928 20.54C8.20753 21.3718 9.12362 21.8044 9.95542 21.5061C10.7872 21.2079 11.2197 20.2918 10.9215 19.46L5.50611 4.35707ZM37.5212 5.39298C37.7951 4.55283 37.336 3.64975 36.4959 3.37589C35.6557 3.10203 34.7526 3.56109 34.4788 4.40124L29.5557 19.5041C29.2818 20.3443 29.7409 21.2474 30.5811 21.5212C31.4212 21.7951 32.3243 21.336 32.5981 20.4959L37.5212 5.39298ZM20.4 24C10.0133 24 3.10519 26.5279 0.764114 27.9623C0.289398 28.2531 0 28.7698 0 29.3266V35.2506V46.562C0 49.8783 1.97432 54.2186 5.37972 57.6856C8.8412 61.2096 13.9369 64 20.4 64C21.6836 64 23.7403 63.8735 25.8262 63.4942C27.856 63.1251 30.1677 62.4742 31.76 61.28C32.4669 60.7498 32.6102 59.7469 32.08 59.04C31.5498 58.3331 30.5469 58.1898 29.84 58.72C28.8723 59.4458 27.184 59.9949 25.2538 60.3458C23.3797 60.6866 21.5164 60.8 20.4 60.8C14.9196 60.8 10.6153 58.4492 7.66264 55.4432C4.65392 52.3801 3.2 48.8014 3.2 46.562V36.525C3.43374 36.4703 3.67831 36.4128 3.93277 36.3529C8.11672 35.3684 14.9758 33.7544 20.4 33.7544C23.6658 33.7544 26.2173 33.9133 27.943 34.0706C28.8058 34.1492 29.4621 34.2275 29.8978 34.2853C30.1157 34.3141 30.2785 34.3379 30.3844 34.354C30.4373 34.3621 30.476 34.3682 30.5003 34.3722L30.5258 34.3764L30.5296 34.377L30.53 34.3771L30.5301 34.3771L30.5305 34.3771C31.4011 34.5259 32.2277 33.9411 32.377 33.0704C32.5263 32.1995 31.9414 31.3724 31.0704 31.223L30.8 32.8C31.0704 31.223 31.0702 31.223 31.0699 31.2229L31.0694 31.2228L31.0679 31.2226L31.0641 31.2219L31.0522 31.2199L31.0119 31.2133C30.9778 31.2078 30.9292 31.2001 30.8662 31.1905C30.7403 31.1713 30.5571 31.1446 30.3183 31.113C29.8409 31.0497 29.1413 30.9666 28.2335 30.8838C26.418 30.7183 23.7694 30.5544 20.4 30.5544C18.6053 30.5544 16.6701 30.7177 14.7306 30.9722C10.4072 31.5395 6.06178 32.5601 3.2 33.236V30.2828C3.90989 29.9422 4.91859 29.5379 6.21053 29.136C9.34618 28.1608 14.1503 27.2 20.4 27.2C30.5501 27.2 32.7476 28.1005 34.3641 29.0909C35.1176 29.5525 36.1026 29.3159 36.5643 28.5625C37.0259 27.809 36.7894 26.8239 36.0359 26.3623C33.5975 24.8683 30.5981 24 20.4 24Z" fill="url(#paint0_linear_851_5829)"/>
<mask id="path-2-inside-1_851_5829" fill="white">
<path fill-rule="evenodd" clip-rule="evenodd" d="M47.2 63.9999C56.4784 63.9999 64 56.4783 64 47.1999C64 37.9215 56.4784 30.3999 47.2 30.3999C37.9216 30.3999 30.4 37.9215 30.4 47.1999C30.4 56.4783 37.9216 63.9999 47.2 63.9999ZM54.8555 41.2075C55.3148 40.7482 55.3148 40.0036 54.8555 39.5444C54.3963 39.0851 53.6517 39.0851 53.1924 39.5444L39.5444 53.1923C39.0852 53.6516 39.0852 54.3962 39.5444 54.8555C40.0037 55.3147 40.7483 55.3147 41.2076 54.8555L54.8555 41.2075ZM52.4 55.1999C53.9464 55.1999 55.2 53.9463 55.2 52.3999C55.2 50.8535 53.9464 49.5999 52.4 49.5999C50.8536 49.5999 49.6 50.8535 49.6 52.3999C49.6 53.9463 50.8536 55.1999 52.4 55.1999ZM44.8 42C44.8 43.5464 43.5464 44.8 42 44.8C40.4536 44.8 39.2 43.5464 39.2 42C39.2 40.4536 40.4536 39.2 42 39.2C43.5464 39.2 44.8 40.4536 44.8 42Z"/>
</mask>
<path fill-rule="evenodd" clip-rule="evenodd" d="M47.2 63.9999C56.4784 63.9999 64 56.4783 64 47.1999C64 37.9215 56.4784 30.3999 47.2 30.3999C37.9216 30.3999 30.4 37.9215 30.4 47.1999C30.4 56.4783 37.9216 63.9999 47.2 63.9999ZM54.8555 41.2075C55.3148 40.7482 55.3148 40.0036 54.8555 39.5444C54.3963 39.0851 53.6517 39.0851 53.1924 39.5444L39.5444 53.1923C39.0852 53.6516 39.0852 54.3962 39.5444 54.8555C40.0037 55.3147 40.7483 55.3147 41.2076 54.8555L54.8555 41.2075ZM52.4 55.1999C53.9464 55.1999 55.2 53.9463 55.2 52.3999C55.2 50.8535 53.9464 49.5999 52.4 49.5999C50.8536 49.5999 49.6 50.8535 49.6 52.3999C49.6 53.9463 50.8536 55.1999 52.4 55.1999ZM44.8 42C44.8 43.5464 43.5464 44.8 42 44.8C40.4536 44.8 39.2 43.5464 39.2 42C39.2 40.4536 40.4536 39.2 42 39.2C43.5464 39.2 44.8 40.4536 44.8 42Z" fill="#F1DD23"/>
<path d="M54.8555 41.2075L53.4413 39.7933L53.4413 39.7933L54.8555 41.2075ZM53.1924 39.5444L51.7782 38.1301L51.7782 38.1301L53.1924 39.5444ZM39.5444 53.1923L38.1302 51.7781L38.1302 51.7781L39.5444 53.1923ZM41.2076 54.8555L39.7934 53.4412L39.7934 53.4412L41.2076 54.8555ZM62 47.1999C62 55.3737 55.3738 61.9999 47.2 61.9999V65.9999C57.5829 65.9999 66 57.5829 66 47.1999H62ZM47.2 32.3999C55.3738 32.3999 62 39.0261 62 47.1999H66C66 36.8169 57.5829 28.3999 47.2 28.3999V32.3999ZM32.4 47.1999C32.4 39.0261 39.0262 32.3999 47.2 32.3999V28.3999C36.817 28.3999 28.4 36.8169 28.4 47.1999H32.4ZM47.2 61.9999C39.0262 61.9999 32.4 55.3737 32.4 47.1999H28.4C28.4 57.5829 36.817 65.9999 47.2 65.9999V61.9999ZM53.4413 40.9586C53.1195 40.6368 53.1195 40.1151 53.4413 39.7933L56.2698 42.6217C57.5101 41.3814 57.5101 39.3705 56.2698 38.1301L53.4413 40.9586ZM54.6066 40.9586C54.2848 41.2803 53.7631 41.2803 53.4413 40.9586L56.2698 38.1301C55.0294 36.8898 53.0185 36.8898 51.7782 38.1301L54.6066 40.9586ZM40.9587 54.6065L54.6066 40.9586L51.7782 38.1301L38.1302 51.7781L40.9587 54.6065ZM40.9587 53.4412C41.2804 53.763 41.2804 54.2847 40.9587 54.6065L38.1302 51.7781C36.8899 53.0184 36.8899 55.0293 38.1302 56.2697L40.9587 53.4412ZM39.7934 53.4412C40.1152 53.1195 40.6369 53.1195 40.9587 53.4412L38.1302 56.2697C39.3705 57.51 41.3815 57.51 42.6218 56.2697L39.7934 53.4412ZM53.4413 39.7933L39.7934 53.4412L42.6218 56.2697L56.2698 42.6217L53.4413 39.7933ZM53.2 52.3999C53.2 52.8418 52.8418 53.1999 52.4 53.1999V57.1999C55.051 57.1999 57.2 55.0509 57.2 52.3999H53.2ZM52.4 51.5999C52.8418 51.5999 53.2 51.9581 53.2 52.3999H57.2C57.2 49.749 55.051 47.5999 52.4 47.5999V51.5999ZM51.6 52.3999C51.6 51.9581 51.9582 51.5999 52.4 51.5999V47.5999C49.749 47.5999 47.6 49.749 47.6 52.3999H51.6ZM52.4 53.1999C51.9582 53.1999 51.6 52.8418 51.6 52.3999H47.6C47.6 55.0509 49.749 57.1999 52.4 57.1999V53.1999ZM42 46.8C44.651 46.8 46.8 44.6509 46.8 42H42.8C42.8 42.4418 42.4418 42.8 42 42.8V46.8ZM37.2 42C37.2 44.6509 39.349 46.8 42 46.8V42.8C41.5582 42.8 41.2 42.4418 41.2 42H37.2ZM42 37.2C39.349 37.2 37.2 39.349 37.2 42H41.2C41.2 41.5581 41.5582 41.2 42 41.2V37.2ZM46.8 42C46.8 39.349 44.651 37.2 42 37.2V41.2C42.4418 41.2 42.8 41.5581 42.8 42H46.8Z" fill="white" fill-opacity="0.23" mask="url(#path-2-inside-1_851_5829)"/>
<defs>
<linearGradient id="paint0_linear_851_5829" x1="18.8002" y1="32" x2="33.3283" y2="39.9257" gradientUnits="userSpaceOnUse">
<stop stop-color="white"/>
<stop offset="1" stop-color="white" stop-opacity="0"/>
</linearGradient>
</defs>
</svg>
