<svg width="46" height="50" viewBox="0 0 46 50" fill="none" xmlns="http://www.w3.org/2000/svg">
<path d="M13.5 11.8V7C13.5 5.88483 13.5 5.32724 13.4078 4.86357C13.029 2.95945 11.5405 1.47098 9.63643 1.09223C9.17276 1 8.61517 1 7.5 1C6.38483 1 5.82724 1 5.36357 1.09223C3.45945 1.47098 1.97098 2.95945 1.59223 4.86357C1.5 5.32724 1.5 5.88483 1.5 7V11.8C1.5 12.9152 1.5 13.4728 1.59223 13.9364C1.97098 15.8405 3.45945 17.329 5.36357 17.7078C5.82724 17.8 6.38483 17.8 7.5 17.8C8.61517 17.8 9.17276 17.8 9.63643 17.7078C11.5405 17.329 13.029 15.8405 13.4078 13.9364C13.5 13.4728 13.5 12.9152 13.5 11.8Z" stroke="#8A8A9C" stroke-width="2"/>
<path d="M44.6992 11.8V7C44.6992 5.88483 44.6992 5.32724 44.607 4.86357C44.2282 2.95945 42.7398 1.47098 40.8357 1.09223C40.372 1 39.8144 1 38.6992 1C37.584 1 37.0265 1 36.5628 1.09223C34.6587 1.47098 33.1702 2.95945 32.7914 4.86357C32.6992 5.32724 32.6992 5.88483 32.6992 7V11.8C32.6992 12.9152 32.6992 13.4728 32.7914 13.9364C33.1702 15.8405 34.6587 17.329 36.5628 17.7078C37.0265 17.8 37.584 17.8 38.6992 17.8C39.8144 17.8 40.372 17.8 40.8357 17.7078C42.7398 17.329 44.2282 15.8405 44.607 13.9364C44.6992 13.4728 44.6992 12.9152 44.6992 11.8Z" stroke="#8A8A9C" stroke-width="2"/>
<path d="M13.5 43.0002V38.2002C13.5 37.085 13.5 36.5274 13.4078 36.0638C13.029 34.1596 11.5405 32.6712 9.63643 32.2924C9.17276 32.2002 8.61517 32.2002 7.5 32.2002C6.38483 32.2002 5.82724 32.2002 5.36357 32.2924C3.45945 32.6712 1.97098 34.1596 1.59223 36.0638C1.5 36.5274 1.5 37.085 1.5 38.2002V43.0002C1.5 44.1154 1.5 44.673 1.59223 45.1366C1.97098 47.0407 3.45945 48.5292 5.36357 48.908C5.82724 49.0002 6.38483 49.0002 7.5 49.0002C8.61517 49.0002 9.17276 49.0002 9.63643 48.908C11.5405 48.5292 13.029 47.0407 13.4078 45.1366C13.5 44.673 13.5 44.1154 13.5 43.0002Z" stroke="#8A8A9C" stroke-width="2"/>
<path d="M44.6992 43.0002V38.2002C44.6992 37.085 44.6992 36.5274 44.607 36.0638C44.2282 34.1596 42.7398 32.6712 40.8357 32.2924C40.372 32.2002 39.8144 32.2002 38.6992 32.2002C37.584 32.2002 37.0265 32.2002 36.5628 32.2924C34.6587 32.6712 33.1702 34.1596 32.7914 36.0638C32.6992 36.5274 32.6992 37.085 32.6992 38.2002V43.0002C32.6992 44.1154 32.6992 44.673 32.7914 45.1366C33.1702 47.0407 34.6587 48.5292 36.5628 48.908C37.0265 49.0002 37.584 49.0002 38.6992 49.0002C39.8144 49.0002 40.372 49.0002 40.8357 48.908C42.7398 48.5292 44.2282 47.0407 44.607 45.1366C44.6992 44.673 44.6992 44.1154 44.6992 43.0002Z" stroke="#8A8A9C" stroke-width="2"/>
<path d="M32.7 40.5996H13.5" stroke="#8A8A9C" stroke-width="2"/>
<path d="M32.7 9.40039H13.5" stroke="#8A8A9C" stroke-width="2"/>
<path d="M23.0996 40.6004V9.40039" stroke="#8A8A9C" stroke-width="2"/>
</svg>
