<svg width="24" height="24" viewBox="0 0 24 24" fill="none" xmlns="http://www.w3.org/2000/svg">
<path d="M12 10.1816V14.0544H17.3818C17.1455 15.2998 16.4363 16.3544 15.3727 17.0635L18.6181 19.5817C20.509 17.8363 21.5999 15.2726 21.5999 12.2272C21.5999 11.5181 21.5363 10.8362 21.4181 10.1817L12 10.1816Z" fill="#B3B3B3"/>
<path d="M6.39323 13.9033L5.66126 14.4636L3.07031 16.4818C4.71576 19.7454 8.08824 22 11.9973 22C14.6972 22 16.9608 21.1091 18.6154 19.5818L15.37 17.0636C14.4791 17.6636 13.3427 18.0273 11.9973 18.0273C9.39731 18.0273 7.18829 16.2728 6.39732 13.9091L6.39323 13.9033Z" fill="white"/>
<path d="M3.07265 7.51855C2.39087 8.86395 2 10.3822 2 12.0003C2 13.6185 2.39087 15.1367 3.07265 16.4821C3.07265 16.4911 6.39998 13.9002 6.39998 13.9002C6.19998 13.3003 6.08176 12.6639 6.08176 12.0002C6.08176 11.3365 6.19998 10.7002 6.39998 10.1002L3.07265 7.51855Z" fill="#B3B3B3"/>
<path d="M11.9975 5.98181C13.4702 5.98181 14.7793 6.49089 15.8248 7.47272L18.6884 4.60912C16.952 2.99097 14.6975 2 11.9975 2C8.08844 2 4.71576 4.24545 3.07031 7.51818L6.39754 10.1C7.1884 7.73634 9.39752 5.98181 11.9975 5.98181Z" fill="white"/>
</svg>
