<svg width="20" height="20" viewBox="0 0 20 20" fill="none" xmlns="http://www.w3.org/2000/svg">
<path d="M1.30919 6.17052C0.833252 7.04001 0.833252 8.08887 0.833252 10.1866V11.5809C0.833252 15.1567 0.833252 16.9446 1.90719 18.0555C2.98114 19.1663 4.70962 19.1663 8.16658 19.1663H11.8333C15.2902 19.1663 17.0187 19.1663 18.0926 18.0555C19.1666 16.9446 19.1666 15.1567 19.1666 11.5809V10.1866C19.1666 8.08887 19.1666 7.04001 18.6907 6.17052C18.2147 5.30103 17.3452 4.76139 15.6062 3.68212L13.7729 2.5443C11.9346 1.40344 11.0155 0.833008 9.99992 0.833008C8.98431 0.833008 8.06519 1.40344 6.22695 2.54431L4.39362 3.68212C2.65462 4.76139 1.78512 5.30103 1.30919 6.17052Z" stroke="#8A8A9C" stroke-width="1.5"/>
</svg>
