<svg width="16" height="16" viewBox="0 0 16 16" fill="none" xmlns="http://www.w3.org/2000/svg">
<path d="M1.33337 7.99967C1.33337 4.85698 1.33337 3.28563 2.30968 2.30932C3.286 1.33301 4.85734 1.33301 8.00004 1.33301C11.1427 1.33301 12.7141 1.33301 13.6904 2.30932C14.6667 3.28563 14.6667 4.85698 14.6667 7.99967C14.6667 11.1424 14.6667 12.7137 13.6904 13.69C12.7141 14.6663 11.1427 14.6663 8.00004 14.6663C4.85734 14.6663 3.286 14.6663 2.30968 13.69C1.33337 12.7137 1.33337 11.1424 1.33337 7.99967Z" stroke="#8A8A9C"/>
<path d="M8 11.333V7.33301" stroke="#8A8A9C" stroke-linecap="round"/>
<circle cx="0.666667" cy="0.666667" r="0.666667" transform="matrix(1 0 0 -1 7.33337 6)" fill="#8A8A9C"/>
</svg>
