<svg width="24" height="24" viewBox="0 0 24 24" fill="none" xmlns="http://www.w3.org/2000/svg">
<path d="M11.9944 22C9.26263 22 8.94059 21.9856 7.87451 21.939C7.04316 21.9117 6.22257 21.743 5.44808 21.44C4.78532 21.1825 4.18343 20.7901 3.68064 20.2878C3.17786 19.7856 2.78516 19.1844 2.52748 18.5225C2.23576 17.7463 2.07842 16.9262 2.06219 16.0974C2 15.035 2 14.6868 2 11.98C2 9.2444 2.01444 8.92504 2.06219 7.86605C2.07878 7.03828 2.23611 6.21935 2.52748 5.44422C2.78486 4.78148 3.17783 4.17962 3.68128 3.67708C4.18474 3.17454 4.78762 2.78237 5.45142 2.52562C6.22726 2.23309 7.04758 2.07556 7.87674 2.05988C8.93726 2 9.28595 2 11.9944 2C14.7485 2 15.065 2.01442 16.1144 2.05988C16.945 2.0754 17.769 2.23287 18.5464 2.52562C19.21 2.78267 19.8127 3.17494 20.3161 3.67744C20.8196 4.17994 21.2126 4.78165 21.4703 5.44422C21.7668 6.23154 21.9256 7.06321 21.9378 7.90264C22 8.96496 22 9.31204 22 12.0177C22 14.7234 21.9845 15.0783 21.9378 16.1284C21.9212 16.9581 21.7635 17.7789 21.4714 18.5558C21.2131 19.2181 20.8196 19.8196 20.3161 20.3221C19.8126 20.8245 19.2099 21.2169 18.5464 21.4744C17.769 21.7649 16.9484 21.9224 16.1188 21.939C15.0583 22 14.7107 22 11.9944 22V22ZM11.9567 3.75538C9.24042 3.75538 8.95836 3.76868 7.89783 3.81637C7.26446 3.82464 6.6372 3.94128 6.04331 4.16123C5.61014 4.32703 5.21657 4.58163 4.88797 4.90861C4.55937 5.23559 4.30303 5.6277 4.13548 6.05966C3.91338 6.65846 3.79678 7.29164 3.79012 7.93036C3.73126 9.00488 3.73126 9.28654 3.73126 11.98C3.73126 14.6414 3.74125 14.9641 3.79012 16.0319C3.80011 16.664 3.91671 17.2905 4.13548 17.8838C4.47529 18.7565 5.16824 19.4462 6.04442 19.7811C6.63755 20.0024 7.26468 20.1191 7.89783 20.126C8.97279 20.1881 9.25597 20.1881 11.9567 20.1881C14.6807 20.1881 14.9628 20.1748 16.0144 20.126C16.6479 20.1183 17.2752 20.0017 17.869 19.7811C18.2998 19.614 18.6912 19.3593 19.0181 19.033C19.345 18.7068 19.6004 18.3161 19.7679 17.886C19.99 17.2872 20.1066 16.6529 20.1133 16.0142H20.1255C20.1732 14.9541 20.1732 14.6713 20.1732 11.9623C20.1732 9.25327 20.161 8.96829 20.1133 7.90929C20.1032 7.27773 19.9865 6.6524 19.7679 6.05966C19.6007 5.6289 19.3456 5.23764 19.0186 4.91079C18.6917 4.58394 18.3001 4.32867 17.869 4.16123C17.2754 3.94021 16.6479 3.82353 16.0144 3.81637C14.9406 3.75538 14.6596 3.75538 11.9567 3.75538V3.75538ZM11.9944 17.102C10.979 17.1027 9.98613 16.8026 9.14146 16.2398C8.2968 15.6769 7.63826 14.8766 7.24915 13.94C6.86004 13.0034 6.75784 11.9726 6.95546 10.9779C7.15308 9.98332 7.64166 9.06957 8.35939 8.35225C9.07712 7.63493 9.99177 7.14627 10.9877 6.94807C11.9835 6.74987 13.0159 6.85104 13.9542 7.23878C14.8925 7.62652 15.6946 8.28341 16.259 9.12637C16.8233 9.96933 17.1247 10.9605 17.1249 11.9745C17.1232 13.3331 16.5822 14.6356 15.6206 15.5967C14.6589 16.5578 13.355 17.0991 11.9944 17.102V17.102ZM11.9944 8.6456C11.3355 8.6456 10.6914 8.8407 10.1436 9.20625C9.59572 9.57179 9.16871 10.0913 8.91656 10.6992C8.66441 11.3071 8.59843 11.976 8.72698 12.6213C8.85552 13.2666 9.17282 13.8594 9.63873 14.3246C10.1047 14.7898 10.6983 15.1067 11.3445 15.235C11.9908 15.3634 12.6606 15.2975 13.2694 15.0457C13.8781 14.7939 14.3984 14.3676 14.7645 13.8205C15.1305 13.2734 15.3259 12.6302 15.3259 11.9723C15.3239 11.0906 14.9722 10.2457 14.3479 9.62223C13.7236 8.9988 12.8774 8.64765 11.9944 8.6456ZM17.3248 7.85496C17.1676 7.85437 17.0121 7.82288 16.867 7.76227C16.722 7.70165 16.5904 7.61311 16.4796 7.5017C16.256 7.27669 16.131 6.97217 16.1321 6.65513C16.1333 6.3381 16.2606 6.03451 16.4859 5.81117C16.7113 5.58782 17.0162 5.46301 17.3337 5.46418C17.6512 5.46536 17.9552 5.59243 18.1789 5.81744C18.4026 6.04245 18.5276 6.34697 18.5264 6.66401C18.5252 6.98104 18.3979 7.28463 18.1726 7.50797C17.9473 7.73132 17.6423 7.85613 17.3248 7.85496Z" fill="#8A8A9C"/>
</svg>
