<svg width="38" height="42" viewBox="0 0 38 42" fill="none" xmlns="http://www.w3.org/2000/svg">
<path d="M36.9503 21.3704L35.9649 21.2L36.9503 21.3704ZM35.5392 29.5299L34.5539 29.3595L35.5392 29.5299ZM8.87554 37.9541L7.87926 38.0403L8.87554 37.9541ZM7.25121 19.1688L8.2475 19.0827L7.25121 19.1688ZM22.9899 7.44284L23.9767 7.60453V7.60453L22.9899 7.44284ZM21.6646 15.532L22.6514 15.6936L21.6646 15.532ZM8.39628 16.355L7.74349 15.5974H7.74349L8.39628 16.355ZM11.2738 13.8754L11.9265 14.6329L11.2738 13.8754ZM16.0361 6.56749L15.0681 6.31639L16.0361 6.56749ZM16.9875 2.89978L17.9555 3.15087V3.15087L16.9875 2.89978ZM20.3352 1.12871L20.0293 2.08079L20.0293 2.08079L20.3352 1.12871ZM20.6251 1.22185L20.931 0.269772L20.931 0.269771L20.6251 1.22185ZM14.7239 9.92523L15.6059 10.3964L14.7239 9.92523ZM22.8094 3.49505L21.8414 3.74614V3.74614L22.8094 3.49505ZM18.3484 1.26479L17.9143 0.363923V0.363923L18.3484 1.26479ZM2.9432 39.9414L1.94691 40.0276L2.9432 39.9414ZM1 17.4684L1.99628 17.3823C1.95015 16.8487 1.49191 16.4462 0.956887 16.4693C0.421868 16.4924 0 16.9329 0 17.4684H1ZM35.9649 21.2L34.5539 29.3595L36.5246 29.7003L37.9357 21.5408L35.9649 21.2ZM21.4899 40H12.1927V42H21.4899V40ZM9.87183 37.868L8.2475 19.0827L6.25493 19.255L7.87926 38.0403L9.87183 37.868ZM34.5539 29.3595C33.4966 35.4732 27.9925 40 21.4899 40V42C28.9125 42 35.2926 36.8243 36.5246 29.7003L34.5539 29.3595ZM22.0031 7.28115L20.6777 15.3703L22.6514 15.6936L23.9767 7.60453L22.0031 7.28115ZM9.04907 17.1125L11.9265 14.6329L10.621 13.1178L7.74349 15.5974L9.04907 17.1125ZM17.0041 6.81858L17.9555 3.15087L16.0196 2.64868L15.0681 6.31639L17.0041 6.81858ZM20.0293 2.08079L20.3193 2.17393L20.931 0.269771L20.641 0.176629L20.0293 2.08079ZM15.6059 10.3964C16.2114 9.26294 16.6813 8.06268 17.0041 6.81858L15.0681 6.31639C14.7854 7.40625 14.3735 8.45887 13.8419 9.45406L15.6059 10.3964ZM20.3193 2.17393C21.089 2.42119 21.6537 3.02254 21.8414 3.74614L23.7773 3.24396C23.4111 1.83202 22.3281 0.718606 20.931 0.269772L20.3193 2.17393ZM17.9555 3.15087C18.0636 2.73409 18.3593 2.36958 18.7825 2.16565L17.9143 0.363923C16.9785 0.814866 16.28 1.64485 16.0196 2.64869L17.9555 3.15087ZM18.7825 2.16565C19.1679 1.97992 19.6177 1.94854 20.0293 2.08079L20.641 0.17663C19.7431 -0.11182 18.7635 -0.0453 17.9143 0.363923L18.7825 2.16565ZM23.3074 18.4684H33.6696V16.4684H23.3074V18.4684ZM3.93948 39.8553L1.99628 17.3823L0.00371754 17.5546L1.94691 40.0276L3.93948 39.8553ZM2 40.0255V17.4684H0V40.0255H2ZM1.94691 40.0276C1.94692 40.0276 1.94688 40.0273 1.9469 40.0265C1.94691 40.0258 1.94697 40.0248 1.94712 40.0237C1.94741 40.0215 1.94796 40.0191 1.94871 40.017C1.95017 40.0128 1.95199 40.0103 1.95344 40.0087C1.95488 40.0071 1.95741 40.0049 1.96174 40.003C1.96693 40.0006 1.97175 40 1.97341 40V42C3.13162 42 4.0391 41.0074 3.93948 39.8553L1.94691 40.0276ZM23.9767 7.60453C24.2146 6.15298 24.1466 4.66769 23.7773 3.24396L21.8414 3.74614C22.1408 4.90031 22.1959 6.10441 22.0031 7.28115L23.9767 7.60453ZM12.1927 40C10.985 40 9.9762 39.075 9.87183 37.868L7.87926 38.0403C8.07287 40.2794 9.94531 42 12.1927 42V40ZM11.9265 14.6329C13.278 13.4683 14.6833 12.1237 15.6059 10.3964L13.8419 9.45406C13.1031 10.837 11.9396 11.9815 10.621 13.1178L11.9265 14.6329ZM37.9357 21.5408C38.3936 18.8928 36.3573 16.4684 33.6696 16.4684V18.4684C35.1137 18.4684 36.2119 19.772 35.9649 21.2L37.9357 21.5408ZM1.97341 40C1.9754 40 1.97979 40.0006 1.98444 40.0026C1.98843 40.0043 1.99099 40.0062 1.99261 40.0079C1.99424 40.0095 1.9961 40.0119 1.99766 40.0156C1.9995 40.02 2 40.024 2 40.0255H0C0 41.1149 0.882457 42 1.97341 42V40ZM20.6777 15.3703C20.412 16.9923 21.6622 18.4684 23.3074 18.4684V16.4684C22.8985 16.4684 22.5847 16.1009 22.6514 15.6936L20.6777 15.3703ZM8.2475 19.0827C8.18283 18.3348 8.48132 17.6018 9.04907 17.1125L7.74349 15.5974C6.68861 16.5064 6.13496 17.8674 6.25493 19.255L8.2475 19.0827Z" fill="white"/>
</svg>
