<svg width="84" height="56" viewBox="0 0 84 56" fill="none" xmlns="http://www.w3.org/2000/svg">
<path fill-rule="evenodd" clip-rule="evenodd" d="M21.2878 19.8544C23.9613 19.8544 26.1595 19.206 27.8759 17.9093L27.8693 17.9027C29.5724 16.606 30.6352 14.9255 31.0511 12.8614H26.2916C25.9747 13.8339 25.5654 14.5683 25.0769 15.0579C24.1924 15.9642 22.8655 16.4207 21.2218 16.4207C19.5781 16.4207 18.2248 15.8915 17.1554 14.8329C16.0926 13.7744 15.5579 12.1865 15.5579 10.0562C15.5579 7.92588 16.0596 6.28513 17.0696 5.12073C18.0796 3.96294 19.4923 3.38074 21.2086 3.38074C22.9249 3.38074 24.2254 3.79754 25.0967 4.61792C25.5852 5.08103 25.9879 5.76909 26.2982 6.67547H31.1039C31.0313 5.49122 30.5032 4.31359 29.513 3.13595C27.724 1.04532 24.8921 0 21.0237 0C18.1324 0 15.7493 0.780679 13.8746 2.34204C11.7226 4.13495 10.6466 6.6887 10.6466 9.99667C10.6466 13.0598 11.5906 15.468 13.4851 17.2279C15.3797 18.9811 17.9806 19.8544 21.2878 19.8544ZM37.7926 15.5805H46.13L47.5889 19.5236H52.7247L44.7041 0.337394H39.3571L31.2772 19.5236H36.2281L37.7926 15.5805ZM41.991 4.72375L44.8163 12.2725H39.0733L41.991 4.72375ZM63.8473 11.9616H58.8964V19.3582H54.2095V0.502824H65.4646C67.0753 0.529287 68.3098 0.68807 69.1745 0.985786C70.0393 1.2835 70.772 1.72677 71.3793 2.30236C71.8744 2.7787 72.2705 3.30798 72.561 3.89018C72.8514 4.47238 72.9967 5.13397 72.9967 5.87496C72.9967 6.76811 72.7194 7.64803 72.1715 8.51471C71.6236 9.3814 70.7126 9.99006 69.4452 10.3473C70.5014 10.698 71.2539 11.1942 71.6962 11.8359C72.1385 12.4777 72.3563 13.4634 72.3563 14.7866V16.0503C72.3563 16.9103 72.3959 17.4991 72.4818 17.8035C72.6072 18.2864 72.8976 18.6503 73.3531 18.8753V19.3516H68.0787C67.9335 18.9348 67.8279 18.5974 67.7685 18.3394C67.643 17.8101 67.577 17.2676 67.5638 16.7118L67.5308 14.9586C67.511 13.7545 67.2404 12.954 66.7321 12.557C66.2172 12.1535 65.2534 11.955 63.8473 11.955V11.9616ZM66.7585 8.53456C67.7157 8.1773 68.1909 7.4694 68.1909 6.41085C68.1909 5.26629 67.7289 4.49884 66.8047 4.1085C66.2832 3.88356 65.5108 3.77771 64.4678 3.77771H58.8964V8.84551H64.3292C65.4052 8.84551 66.2172 8.74627 66.7585 8.54117V8.53456ZM4.7001 24.9751H0V43.8305H15.843V40.4431H4.7001V24.9751ZM18.1524 24.9751H22.7732V43.8305H18.1524V24.9751ZM35.4886 44.3333C37.3171 44.3333 38.8618 44.0158 40.1161 43.374H40.1359C40.8686 43.0102 41.6872 42.375 42.6047 41.4819L43.08 43.8371H46.2222V33.7148H36.756V36.8639H42.0106C41.773 38.1011 41.1459 39.1068 40.1293 39.8676C39.1127 40.6284 37.8386 41.0121 36.2147 41.0121C34.5908 41.0121 33.1385 40.5292 31.8645 39.5632C30.5905 38.5973 29.9501 36.9367 29.9501 34.6344C29.9501 32.332 30.5376 30.6053 31.7127 29.4607C32.8877 28.3162 34.3928 27.7406 36.2213 27.7406C37.1785 27.7406 38.0499 27.8795 38.8288 28.164C40.2217 28.6734 41.0997 29.5732 41.4627 30.8633H46.1364C45.879 29.0439 44.869 27.5289 43.1196 26.3115C41.3637 25.0942 39.0467 24.4856 36.1553 24.4856C32.8217 24.4856 30.1482 25.4052 28.1216 27.251C26.095 29.0902 25.085 31.5778 25.085 34.5947C25.085 37.6115 26.0818 39.9933 28.0886 41.7333C30.0095 43.4666 32.4784 44.3333 35.4886 44.3333ZM63.2272 43.8305V35.415H54.2561V43.8305H49.5098V24.9751H54.2561V32.1666H63.2272V24.9751H67.8203H67.9933H83.9934H84V28.3162H79.0292V43.8305H74.415V28.3162H67.9933V43.8305H63.2272Z" fill="white"/>
<path d="M59.581 40.8335L23.3334 43.3682L24.203 55.8042L60.4506 53.2695L59.581 40.8335Z" fill="#F1DD23"/>
<path d="M32.3254 45.1289L32.7519 51.2046L31.4725 51.2965L31.4265 50.6732C31.256 50.9553 31.0591 51.1652 30.8229 51.303C30.5867 51.4408 30.298 51.5196 29.9371 51.5458C29.3466 51.5852 28.8414 51.408 28.4084 51.0143C27.9753 50.6207 27.7391 50.0826 27.6932 49.42C27.6407 48.6523 27.7982 48.0355 28.1591 47.5631C28.5265 47.0973 29.0383 46.8348 29.7009 46.7889C30.0028 46.7692 30.2849 46.8086 30.5277 46.9136C30.7704 47.0185 30.9804 47.1695 31.1379 47.3728L30.9869 45.2273L32.3254 45.1355V45.1289ZM29.0448 49.2362C29.0711 49.6496 29.1892 49.9777 29.3926 50.2139C29.5894 50.4501 29.8781 50.5551 30.2521 50.5288C30.6261 50.5026 30.9017 50.3582 31.0788 50.0958C31.256 49.8333 31.3281 49.5053 31.3019 49.1116C31.2625 48.5604 31.0788 48.1799 30.7507 47.9634C30.5473 47.8321 30.3243 47.7796 30.0684 47.7928C29.6813 47.819 29.4122 47.9699 29.2482 48.2389C29.0842 48.5145 29.0186 48.8426 29.0448 49.2231V49.2362Z" fill="#0A0A0A"/>
<path d="M38.0311 49.5383C38.0179 49.8139 37.8801 50.096 37.6243 50.3978C37.224 50.8702 36.6335 51.1392 35.8593 51.1917C35.2163 51.2376 34.6389 51.0867 34.1206 50.7455C33.6022 50.4044 33.3135 49.8139 33.2545 48.9675C33.202 48.1735 33.3791 47.5568 33.7925 47.1041C34.2059 46.6513 34.7636 46.402 35.4722 46.3495C35.8921 46.3233 36.2726 46.3626 36.6204 46.4873C36.9681 46.612 37.2568 46.8154 37.4996 47.1041C37.7161 47.36 37.867 47.6683 37.9523 48.0226C37.9982 48.2326 38.0376 48.5279 38.0573 48.9281L34.6061 49.1709C34.6586 49.6301 34.8357 49.9385 35.1507 50.1025C35.3409 50.2075 35.564 50.2469 35.8199 50.2272C36.0889 50.2075 36.3054 50.1222 36.4695 49.9713C36.5548 49.8926 36.6335 49.781 36.6926 49.6367L38.0376 49.5448L38.0311 49.5383ZM36.6269 48.226C36.581 47.9111 36.4629 47.6815 36.2595 47.5305C36.0561 47.3796 35.8199 47.314 35.5378 47.3337C35.2294 47.3534 34.9998 47.4584 34.8489 47.6421C34.6914 47.8258 34.6061 48.0686 34.5798 48.3704L36.6269 48.226Z" fill="#0A0A0A"/>
<path d="M42.3611 46.2046C42.7744 46.408 43.0303 46.782 43.1287 47.3331L41.7968 47.425C41.7705 47.274 41.7115 47.1559 41.6262 47.0706C41.4687 46.9197 41.2128 46.8541 40.8651 46.8804C40.5764 46.9001 40.373 46.9525 40.2549 47.0444C40.1368 47.1363 40.0843 47.2347 40.0909 47.3397C40.0974 47.4774 40.1696 47.5693 40.3074 47.6218C40.4452 47.6743 40.911 47.753 41.7181 47.858C42.2561 47.9302 42.6629 48.0745 42.945 48.2779C43.2206 48.4879 43.3715 48.7634 43.3977 49.1112C43.4305 49.5639 43.2665 49.9445 42.9122 50.2594C42.5579 50.5743 41.9871 50.7515 41.1997 50.8106C40.4124 50.8696 39.7956 50.7581 39.3954 50.4825C38.9951 50.2069 38.7721 49.8329 38.7393 49.3671L40.0909 49.2752C40.1368 49.4852 40.2024 49.6295 40.3074 49.7148C40.4845 49.8592 40.7929 49.9182 41.2391 49.892C41.5015 49.8723 41.7049 49.8264 41.8558 49.7411C42.0068 49.6623 42.0724 49.5508 42.0658 49.413C42.0592 49.2752 41.9871 49.1834 41.8558 49.1178C41.7246 49.0521 41.2522 48.9668 40.4452 48.8553C39.8612 48.77 39.4413 48.6322 39.192 48.4616C38.9427 48.291 38.8049 48.022 38.7786 47.6677C38.7524 47.2478 38.9098 46.8738 39.2576 46.5457C39.6053 46.2177 40.1171 46.0274 40.7864 45.9815C41.4556 45.9356 41.9477 46.0143 42.3676 46.2111L42.3611 46.2046Z" fill="#0A0A0A"/>
<path d="M45.1374 45.791L45.4589 50.3708L44.1467 50.4626L43.8252 45.8829L45.1374 45.791Z" fill="#0A0A0A"/>
<path d="M47.9191 51.0013C48.07 51.0997 48.3128 51.1391 48.6539 51.1129C49.1329 51.08 49.4413 50.916 49.5856 50.6142C49.6775 50.4239 49.7103 50.109 49.6775 49.6759L49.6578 49.3807C49.5463 49.5841 49.415 49.7416 49.2773 49.8465C49.0279 50.0434 48.6867 50.1615 48.2668 50.1943C47.6107 50.2402 47.0792 50.0696 46.6593 49.6825C46.2394 49.2954 46.0032 48.7508 45.9573 48.0487C45.9113 47.3467 46.0557 46.789 46.4034 46.2969C46.7446 45.8114 47.2629 45.5424 47.9584 45.4899C48.2143 45.4702 48.4374 45.4899 48.6343 45.5489C48.9689 45.6473 49.2444 45.8507 49.4675 46.1591L49.4216 45.503L50.7142 45.4111L51.016 49.7416C51.0553 50.3321 50.9766 50.7848 50.7798 51.0997C50.4386 51.6377 49.7234 51.9461 48.6474 52.0249C47.9978 52.0708 47.4598 51.9921 47.0333 51.7952C46.6068 51.5984 46.3575 51.2703 46.2788 50.8176L47.7222 50.7192C47.7682 50.857 47.8338 50.9554 47.9256 51.0079L47.9191 51.0013ZM47.532 48.6589C47.7419 49.0329 48.0765 49.2035 48.5424 49.1707C48.8508 49.151 49.1067 49.0264 49.3101 48.7967C49.5069 48.5737 49.5922 48.2259 49.5594 47.7666C49.5266 47.3336 49.4019 47.0121 49.1854 46.8021C48.9689 46.5922 48.6867 46.4937 48.3456 46.52C47.8797 46.5528 47.5713 46.7693 47.4204 47.1761C47.3417 47.3926 47.3154 47.6551 47.3351 47.9635C47.3548 48.2259 47.4204 48.4621 47.532 48.6589Z" fill="#0A0A0A"/>
<path d="M53.7907 46.0867C53.3445 46.1195 53.0427 46.3098 52.9049 46.6641C52.8328 46.8478 52.8065 47.084 52.8262 47.3662L52.9968 49.8201L51.678 49.9119L51.363 45.3781L52.6425 45.2862L52.6884 45.9489C52.8459 45.7062 52.9902 45.5224 53.1346 45.4109C53.397 45.2075 53.7316 45.096 54.1516 45.0632C54.6765 45.0238 55.1095 45.1222 55.4638 45.3453C55.8116 45.5684 56.0084 45.9621 56.0478 46.5329L56.2643 49.5904L54.9061 49.6823L54.7158 46.92C54.6961 46.6838 54.6502 46.5001 54.5715 46.3754C54.4271 46.1523 54.1712 46.0539 53.8038 46.0802L53.7907 46.0867Z" fill="#0A0A0A"/>
<path d="M26.0346 44.4641L24.7256 44.5557L24.8029 45.6618L26.112 45.5703L26.0346 44.4641Z" fill="#0A0A0A"/>
</svg>
