<svg width="48" height="43" viewBox="0 0 48 43" fill="none" xmlns="http://www.w3.org/2000/svg">
<path fill-rule="evenodd" clip-rule="evenodd" d="M9.07354 20.6398V21.3793C9.07354 31.816 17.5633 40.3447 27.9997 40.3447C36.6842 40.3447 44.0052 34.5034 46.2251 26.5591L15.8494 26.9096L23.171 21.2627L9.07354 20.6398ZM9.77486 16.3171C11.9945 8.29479 19.3158 2.45319 28 2.45319C38.437 2.45319 46.9261 10.943 46.9261 21.3793V22.3142L32.829 21.6913L40.345 15.9666L9.77486 16.3171ZM6.62034 20.5228L0 20.2504V16.3949L7.20441 16.3171C9.5021 6.97084 17.9527 0 28 0C39.7998 0 49.3797 9.57985 49.3797 21.3793C49.3797 21.7305 49.3797 22.0415 49.3411 22.392L56 22.6644V26.4814L48.7959 26.5591C46.459 35.8662 38.0476 42.7985 28 42.7985C16.1613 42.7985 6.58147 33.2183 6.58147 21.3793C6.58147 21.1069 6.58147 20.8345 6.62034 20.5228Z" fill="#8A8A9C"/>
</svg>
