<svg width="16" height="16" viewBox="0 0 16 16" fill="none" xmlns="http://www.w3.org/2000/svg">
<path d="M8.66666 1.33301C8.66666 1.33301 10.3167 1.48301 12.4167 3.58301C14.5167 5.68301 14.6667 7.33301 14.6667 7.33301" stroke="#8A8A9C" stroke-linecap="round"/>
<path d="M8.66666 4.66699C8.66666 4.66699 9.28888 4.84477 10.2222 5.7781C11.1555 6.71144 11.3333 7.33366 11.3333 7.33366" stroke="#8A8A9C" stroke-linecap="round"/>
<path d="M9.70412 10.3655L9.40049 10.6851C9.40049 10.6851 8.67876 11.445 6.70876 9.37093C4.73875 7.29688 5.46048 6.53704 5.46048 6.53704L5.65169 6.33573C6.12273 5.83982 6.16713 5.04364 5.75617 4.46239L4.91551 3.2734C4.40687 2.55399 3.42398 2.45896 2.84098 3.07275L1.79458 4.17442C1.5055 4.47876 1.31178 4.87329 1.33527 5.31095C1.39537 6.43063 1.87382 8.83969 4.54358 11.6504C7.37477 14.6312 10.0312 14.7496 11.1175 14.6424C11.4611 14.6085 11.76 14.4232 12.0008 14.1697L12.9478 13.1726C13.587 12.4996 13.4068 11.3458 12.5889 10.875L11.3152 10.1419C10.7782 9.83275 10.1239 9.92356 9.70412 10.3655Z" stroke="#8A8A9C" stroke-linecap="round"/>
</svg>
