<svg width="48" height="56" viewBox="0 0 48 56" fill="none" xmlns="http://www.w3.org/2000/svg">
<path fill-rule="evenodd" clip-rule="evenodd" d="M40.7665 48.0539C37.3948 51.1301 34.4922 52.7881 28.3775 56C22.6857 53.4077 18.9706 50.8524 15.749 48.3357C11.2968 44.8647 8.09873 39.2286 7.82127 35.7721L5.6001 2.87278C20.6473 -1.04406 36.6524 -0.954943 50.4974 3.13584L48.2437 35.702C47.9568 38.6514 45.3219 44.3858 40.7665 48.0539ZM45.6658 34.6231L47.6995 5.54199C35.7843 1.74244 21.5121 1.68609 8.3621 5.14265L10.4378 34.6044C10.654 37.6662 12.8565 42.3489 17.0787 45.9372C19.6196 48.0977 24.5978 51.7236 28.2746 53.1137C32.5111 50.9675 36.3618 48.2998 39.4148 45.6652C43.1999 42.2127 45.4355 37.9201 45.6658 34.6231ZM38.926 44.8972C35.9998 47.4243 32.06 50.2564 28.2746 52.0645C24.8934 51.0171 19.8964 47.1563 17.4918 45.0806C13.2978 41.4547 11.593 37.6604 11.3348 34.0715L9.29644 5.94868C21.8172 2.65657 35.4838 2.65657 46.8393 6.27728L44.8248 34.0247C44.5336 37.7161 42.8192 41.2431 38.926 44.8972ZM10.2323 6.49532L10.6363 11.3422C22.5886 8.35053 35.1096 8.65127 45.5025 11.7979L45.9487 6.86649C35.1794 3.55999 22.105 3.38145 10.2323 6.49532ZM39.955 8.29419L37.2591 7.84799L37.1556 9.11614L36.2776 8.98446L36.484 5.62192L37.3813 5.7536L37.2873 7.04502L40.0208 7.48632L40.1099 6.1949L41.0256 6.36854L40.7487 9.74057L39.8564 9.57642L39.955 8.29419ZM26.9449 7.15313C26.616 7.15313 26.3529 7.06401 26.1793 6.77278C26.0292 6.53329 26.0292 5.7536 26.1793 5.49544C26.3437 5.19502 26.6396 5.11049 26.8839 5.11049L30.7068 5.11509L30.7156 5.94163L27.0998 5.93673C26.9213 5.93673 26.9167 6.33607 27.1139 6.33607H29.9644C30.2982 6.33607 30.5938 6.53789 30.6875 6.80095C30.791 7.08269 30.7723 7.72151 30.6875 7.98458C30.6078 8.24764 30.3071 8.3931 29.9314 8.3931H26.1606L26.1557 7.54757H29.5133C29.563 7.54365 29.6093 7.52118 29.6431 7.48462C29.6768 7.44807 29.6956 7.40012 29.6956 7.35035C29.6956 7.30057 29.6768 7.25263 29.6431 7.21607C29.6093 7.17952 29.563 7.15704 29.5133 7.15313H26.9449ZM24.7332 7.48908C24.7324 7.44701 24.7232 7.40553 24.7062 7.36706C24.6892 7.32859 24.6647 7.2939 24.6341 7.26503C24.6034 7.23617 24.5674 7.2137 24.528 7.19896C24.4886 7.18421 24.4466 7.17748 24.4046 7.17916L21.8683 7.36229L21.9197 8.62095L21.0978 8.70547L20.9238 5.38519L24.7001 5.10314C25.1886 5.06578 25.4749 5.43205 25.4982 5.73737C25.5264 6.09904 25.5405 6.56392 25.2584 6.75654C25.4936 6.93018 25.5545 7.18865 25.5591 7.55032L25.5686 8.40045L24.7467 8.43322L24.7332 7.48908ZM24.1945 6.41141C24.5185 6.39273 24.4903 5.88988 24.1945 5.91836L21.7804 6.10149L21.8086 6.56177L24.1945 6.41141ZM16.2861 5.97042C17.0609 5.78729 18.6482 5.53372 19.4796 5.47247C19.86 5.4446 20.1558 5.64182 20.2075 5.93765C20.3297 6.61874 20.4051 7.32309 20.3206 8.26724C20.297 8.53949 20.0621 8.75569 19.7522 8.82154C18.6864 9.05642 17.4884 9.18321 16.6006 9.26773C16.3752 9.29131 16.0185 9.11277 15.9572 8.83103C15.8023 8.14505 15.7459 7.18712 15.7928 6.52962C15.8117 6.28493 16.0371 6.02677 16.2861 5.97042ZM19.3026 7.99285C19.4104 7.96957 19.4576 7.85197 19.4671 7.76745C19.5047 7.50898 19.4716 6.8328 19.4104 6.6071C19.3917 6.51798 19.3167 6.46163 19.1476 6.47572C18.6874 6.50389 17.4707 6.67784 16.8698 6.80922C16.7103 6.84689 16.649 6.9406 16.6398 7.02512C16.6117 7.24592 16.6772 7.85167 16.7338 8.19006C16.7479 8.26999 16.8514 8.32604 16.9311 8.32175C17.7432 8.25591 18.7014 8.12453 19.3026 7.99285ZM32.6208 6.11037C32.4419 6.10547 32.32 6.21358 32.3063 6.30759C32.2637 6.58474 32.2493 6.94151 32.2493 7.4067C32.2493 7.46764 32.3528 7.63668 32.4419 7.65077C33.2501 7.76347 34.8184 7.90465 35.6731 7.961L35.6216 8.82981C34.499 8.77836 33.3248 8.59982 32.1087 8.51499C31.7097 8.48681 31.4185 8.27091 31.4041 7.88597C31.3808 7.25174 31.4185 6.29351 31.5309 5.73492C31.6062 5.39193 31.9345 5.2137 32.306 5.22288C33.428 5.26514 34.3204 5.36375 35.7907 5.56098L35.7343 6.4255C35.0205 6.36394 33.6681 6.15263 32.6208 6.11037ZM14.2426 6.36241C15.379 6.09475 15.5527 8.11412 14.6039 8.349L11.9552 9.01141L12.082 10.3169L11.2509 10.538L10.9551 7.1372L14.2426 6.36241ZM14.2288 7.68507C14.501 7.62413 14.4637 7.13598 14.1721 7.19692L11.7816 7.77449L11.8383 8.27734L14.2288 7.68507ZM42.3342 8.79765L42.2778 9.34245L44.9029 10.0045L44.8325 10.7656L41.3101 9.93442L41.6157 6.51033L45.1614 7.36995L45.0818 8.16832L42.4423 7.5295L42.3908 8.10738L45.0113 8.74589L44.9455 9.42208L42.3342 8.79765ZM16.9289 18.5426C16.5627 19.031 16.2246 19.7826 16.065 20.4211C16.0084 20.6373 16.0084 20.7169 16.0463 20.8578C16.3936 20.7028 16.8447 20.5525 17.1075 20.4679C17.211 20.2382 17.267 19.9749 17.3564 19.7636C17.497 19.435 17.5864 19.2938 17.7322 19.0638C18.1502 18.4158 19.0331 17.777 19.6857 17.7911C19.4695 17.9788 19.0187 18.4486 18.8405 18.7303C18.695 18.9652 18.5587 19.2188 18.4552 19.4818C18.3661 19.717 18.3379 19.8904 18.3144 20.083C18.6525 19.9844 18.9859 19.9139 19.2018 19.8999C19.3476 19.8199 19.3945 19.6647 19.4744 19.5192C19.7231 19.0543 20.2115 18.5328 20.5218 18.364C20.7704 18.2278 21.137 18.0964 21.3997 18.1809C21.118 18.3922 20.8222 18.7303 20.6908 18.9324C20.5545 19.1483 20.3337 19.5667 20.3432 19.7636C20.5735 19.7826 20.9021 19.7636 21.0338 19.7308L21.0194 19.0825L27.7681 19.0776L27.7635 9.84408C22.5126 9.84408 16.7596 10.342 10.6589 12.0469L11.9176 29.3909H21.0145V26.0008C20.6482 25.7286 18.948 25.531 17.9009 25.9396C17.6474 26.0382 16.8208 26.3952 16.4451 26.6908L15.3885 27.5271C15.285 27.6116 15.2758 27.7948 15.2758 27.9353C15.2758 28.2453 14.9141 28.4801 14.7123 28.4143C14.5479 28.358 14.3225 28.3252 14.1158 28.3724C13.895 28.4189 13.6981 28.1414 13.6791 27.9825C13.6509 27.785 13.8062 27.5271 13.8154 27.4423C13.8248 27.3624 13.7731 27.0475 14.064 26.8552C14.1954 26.771 14.3785 26.7753 14.5102 26.846C14.5485 26.8683 14.5939 26.8751 14.637 26.865C14.6842 26.846 14.8109 26.7336 14.8437 26.7055C14.8578 26.5177 14.8296 26.2216 14.8486 26.0575C14.8909 25.7381 14.9096 25.5549 15.0082 25.2447C15.0927 24.977 15.2758 24.5875 15.4118 24.3664C15.6562 23.9674 16.1397 23.5821 16.5017 23.6149C16.3605 23.8029 16.3137 23.9015 16.2105 24.0941C16.0178 24.4463 15.8393 25.0288 15.7551 25.4232C15.6984 25.6768 15.6706 25.8743 15.6847 26.1417C15.9618 25.9353 16.2527 25.7659 16.4454 25.6581C16.5345 25.1929 16.7179 24.6907 16.9148 24.3198C17.1497 23.8733 17.7836 23.3895 18.1974 23.4271C17.8075 23.8498 17.5301 24.4368 17.4269 24.8126C17.3846 24.9626 17.3329 25.1369 17.3567 25.2306C17.5114 25.1461 17.8311 25.0616 17.9858 25.0475C18.0893 24.7893 18.2301 24.4791 18.3477 24.296C18.714 23.7322 19.2916 23.3895 19.6205 23.4036C19.362 23.7512 19.1412 24.0657 18.9817 24.5308C18.9345 24.6668 18.9112 24.8126 18.9112 24.883C19.113 24.8503 19.4279 24.8503 19.5546 24.8503C19.7895 24.6389 19.9583 24.3851 20.2403 24.1692C20.4752 23.9857 20.9119 23.7371 21.0151 23.7181V20.8673C21.0151 20.806 20.2685 20.75 19.8973 20.7968C18.9112 20.9144 16.4457 21.6892 15.4029 22.408C15.3793 22.4692 15.3842 22.8119 15.3135 22.9715C15.2525 23.1169 15.0976 23.2673 14.9475 23.3331C14.6799 23.4507 14.3697 23.0937 14.2334 23.1454C14.0925 23.1972 13.7921 23.319 13.4678 23.0891C13.3223 22.9859 13.2473 22.6943 13.2987 22.4787C13.3459 22.3235 13.4773 22.2016 13.5805 22.103C13.6745 22.0089 13.6086 21.6473 13.9464 21.4314C14.1816 21.281 14.5053 21.4032 14.7546 21.5346C14.8053 21.5184 14.8517 21.4912 14.8906 21.4549C14.9233 21.356 14.9751 21.0556 15.0223 20.8207C15.0786 20.5668 15.0976 20.4027 15.1726 20.1681C15.3607 19.6 15.8111 18.7827 16.2812 18.3552C16.6521 18.0263 17.2296 17.7635 17.6572 17.7917C17.6146 17.8566 17.0842 18.3313 16.9289 18.5426ZM18.0145 12.9831C18.3716 12.4854 19.3109 11.7339 20.0342 11.7765C19.6395 12.1192 19.2919 12.4995 19.0478 12.9034C18.7287 13.425 18.4702 14.0776 18.4139 14.5804C18.6534 14.491 19.2169 14.3314 19.5409 14.261C19.8275 13.6363 20.2033 12.946 20.6684 12.5748C21.0016 12.3072 21.4806 12.0772 21.9271 12.1286C21.8236 12.2744 21.6545 12.3871 21.5278 12.5044C21.2978 12.7062 21.1382 12.9788 21.0111 13.2559C20.9171 13.4623 20.7576 14.0825 20.7527 14.1106C21.0767 14.1061 21.6496 14.1434 21.7718 14.1811C22.1525 13.6831 22.9839 12.9598 23.9792 13.1242C23.5471 13.3588 22.7582 14.0442 22.8054 14.4203C23.4534 14.8386 24.4208 15.7166 24.4631 16.5293C24.0218 16.0691 23.2939 15.6134 22.9273 15.4866C22.049 15.1767 21.0016 15.1344 20.1282 15.294C18.3061 15.637 16.6953 16.4258 15.1503 17.3513C15.1129 17.6 14.9763 17.9757 14.8636 18.1028C14.7509 18.2296 14.5819 18.3515 14.3987 18.3797C14.1688 18.4173 13.9336 18.3233 13.7366 18.2201C13.6096 18.1497 13.2764 18.2391 13.0651 18.1261C12.9196 18.0508 12.6939 17.8395 12.7551 17.5063C12.8066 17.2104 13.1024 17.0319 13.1447 16.7501C13.2056 16.3367 13.5064 16.1582 13.6613 16.1303C13.8304 16.0975 14.0043 16.1539 14.159 16.2243C14.2248 16.2571 14.2949 16.3134 14.3565 16.3324C14.4174 16.3134 14.5065 16.2384 14.5583 16.2151C14.5724 16.168 14.7276 15.3087 14.8119 14.9329C14.8964 14.5571 15.0419 14.2374 15.164 13.8856C15.5306 12.8431 16.6622 11.7909 17.569 11.8472C17.5218 11.9131 17.2306 12.1244 16.8266 12.5941C16.174 13.3594 16.0096 14.1722 15.7652 15.5671C16.2677 15.3322 16.7044 15.1632 17.1601 14.9987C17.2688 14.5664 17.4133 14.1438 17.5922 13.7355C17.7095 13.4715 17.8504 13.2134 18.0145 12.9831ZM45.3853 14.1379L28.6007 14.1523L28.6151 19.0929L45.0098 19.0834L45.3853 14.1379ZM30.5279 39.7186C30.3353 39.8172 30.0961 39.7563 29.9975 39.7137C29.8281 39.6433 29.7158 39.469 29.7014 39.2675C29.6876 39.108 29.8425 38.9154 29.8753 38.7411C29.8891 38.6707 29.8144 38.3237 30.1099 38.1448C30.1669 38.1121 30.3353 38.0508 30.4526 38.0701C30.5705 38.0934 30.6642 38.1687 30.7815 38.1874C30.9411 38.1309 31.0939 38.0568 31.2372 37.9666C31.3312 37.6046 31.4016 37.1872 31.4482 36.8158C30.6078 37.2338 29.5084 37.5155 28.5741 37.5532L28.579 51.0655C32.5004 49.0737 36.8022 45.8147 38.6335 44.025C41.5973 41.1365 43.5931 38.2107 43.8981 33.9931L44.175 30.1513L35.2664 30.1418C35.2664 32.3207 34.5385 34.5943 32.4575 36.2379C32.3403 36.7122 32.2842 37.5106 32.2931 37.5299C32.5797 37.412 32.8477 37.3091 33.0826 37.2387C33.1013 37.2105 33.4348 36.4826 33.5851 36.2853C33.9373 35.7405 34.4117 35.2751 34.9889 34.9651C35.3509 34.782 35.7922 34.613 36.1821 34.7587C35.67 35.0028 35.2704 35.4441 35.0312 35.6977C34.8104 35.9329 34.5522 36.2801 34.435 36.6372C34.4189 36.6991 34.4064 36.7617 34.3973 36.8249C34.6371 36.7496 35.4021 36.6372 35.7215 36.5947C35.7591 36.5897 35.8578 36.3787 35.9331 36.2752C36.0265 36.1485 36.0831 36.0688 36.2332 35.8995C36.6185 35.4815 37.2711 35.0353 37.905 35.1339C37.558 35.3547 37.177 35.7069 36.872 36.2608C36.8295 36.3457 36.7734 36.463 36.7967 36.5144C36.8907 36.5334 37.3559 36.5239 37.6376 36.557C37.9613 36.3555 38.3046 36.1766 38.6755 36.097C39.0935 36.003 39.6386 36.078 39.8545 36.2752C39.6009 36.2608 39.3612 36.308 39.1315 36.3971C38.9998 36.4492 38.7367 36.5711 38.6381 36.7398C38.8868 36.8102 39.2959 37.0782 39.5538 37.2944C39.7326 37.4445 39.9485 37.661 40.0848 37.8579C40.4275 38.3234 40.4982 39.1588 40.3145 39.4081C40.263 39.262 40.2067 39.1169 40.1268 38.9806C39.9623 38.7037 39.7038 38.4027 39.483 38.2383C38.4173 37.4261 36.8818 37.3835 35.6275 37.6371C34.5519 37.8579 32.6122 38.2621 31.3444 39.1634C31.3771 39.323 31.2785 39.5909 31.1334 39.6938C30.941 39.8356 30.6691 39.6433 30.5279 39.7186ZM32.6208 41.2373C32.7613 41.0214 32.9307 40.7069 33.0149 40.5703C33.311 40.0959 33.7386 39.7437 34.0292 39.6072C34.4288 39.4145 35.0716 39.3021 35.3583 39.4427C35.0438 39.518 34.8043 39.6635 34.5838 39.8185C34.3584 39.974 33.9162 40.3777 33.8038 40.547C33.677 40.7347 33.5928 40.9035 33.5597 40.9932C33.9162 40.913 34.344 40.8471 34.5645 40.8471C34.724 40.645 35.147 40.1618 35.4618 39.9361C35.7153 39.7572 36.2556 39.579 36.5933 39.7244C36.2696 39.828 35.6967 40.2791 35.4851 40.6031C35.4385 40.6778 35.3959 40.758 35.3864 40.8C35.5604 40.8144 35.889 40.8471 36.0678 40.8704C36.0865 40.8704 36.575 40.5703 36.7958 40.509C37.0824 40.4288 37.5519 40.3259 37.848 40.6407C37.6321 40.645 37.43 40.664 37.2701 40.7347C37.0398 40.8376 36.9412 40.913 36.8383 41.0584C37.2888 41.2982 37.7589 41.5472 38.0357 41.9885C38.1344 42.1435 38.2844 42.51 38.2002 42.7492C38.059 42.571 37.8664 42.397 37.7114 42.3079C37.4906 42.1811 37.3311 42.0592 37.0631 41.9557C36.2228 41.6412 35.124 41.5567 34.2454 41.674C33.1089 41.8195 31.714 42.3832 31.0004 42.8714C31.047 43.0922 30.9395 43.3504 30.8127 43.4116C30.5448 43.5479 30.2869 43.3176 30.2397 43.332C30.1693 43.3553 29.9531 43.4306 29.7984 43.3647C29.6429 43.3038 29.5449 43.0309 29.6058 42.8576C29.6524 42.7259 29.841 42.5382 29.841 42.5382C29.8122 42.2516 30.0003 42.0782 30.2584 42.0448C30.4045 42.0311 30.5071 42.1435 30.625 42.1673C30.7328 42.1153 30.8081 42.0782 30.8642 42.0494C30.93 41.8149 31.0286 41.5751 31.0945 41.3778C31.2023 41.0447 31.3618 40.7485 31.5639 40.4389C31.8552 39.9927 32.3721 39.5698 32.9867 39.5609C32.799 39.7064 32.6906 39.7863 32.5733 39.9318C32.3718 40.1853 32.2162 40.4156 32.0757 40.6879C31.9489 40.9277 31.831 41.2841 31.8126 41.599C32.0784 41.4706 32.3479 41.35 32.6208 41.2373ZM32.5298 43.7776C32.6894 43.7117 32.8581 43.6652 33.0275 43.6842C32.6327 43.9371 32.2713 44.308 32.1727 44.7499C32.1632 44.7964 32.1632 44.8904 32.2055 44.9186C32.3179 44.8904 32.6045 44.8295 32.6799 44.7918C32.7264 44.6932 32.8437 44.5383 32.924 44.4348C33.2057 44.0596 33.6099 43.6842 34.1685 43.8247C33.8019 43.9892 33.5906 44.2189 33.4311 44.5101C33.4029 44.5622 33.3845 44.6608 33.4216 44.6608C33.5156 44.6608 33.8727 44.6464 33.9241 44.6464C34.0886 44.5009 34.5679 44.2234 34.8968 44.327C34.7324 44.4038 34.5816 44.5071 34.4506 44.6326C34.4178 44.6696 34.3752 44.7168 34.3664 44.7732C34.657 44.9186 34.9154 45.0831 35.1552 45.2901C35.282 45.3979 35.4651 45.6 35.5775 45.9473C35.2958 45.7032 34.3752 45.2659 33.873 45.2426C33.5441 45.2288 33.1362 45.2898 32.9292 45.3366C32.1354 45.5155 31.3183 45.8726 30.6186 46.2716C30.6235 46.4079 30.5996 46.5717 30.4452 46.6988C30.3417 46.7836 30.1163 46.8256 30.0312 46.7037C29.9846 46.6379 29.679 46.7086 29.6138 46.6241C29.6138 46.6241 29.5335 46.5022 29.524 46.3561C29.5152 46.2012 29.6181 46.1075 29.7029 46.0272C29.7262 45.999 29.7216 45.7366 29.9188 45.6469C30.0407 45.5905 30.1629 45.6098 30.2664 45.6757C30.309 45.6518 30.3417 45.6285 30.3699 45.6098C30.3932 45.3042 30.4495 45.0224 30.5625 44.7174C30.7175 44.285 31.2246 43.7592 31.6613 43.7779C31.3652 44.0973 31.126 44.5386 31.0458 44.9055C31.0225 45.0227 31.0136 45.253 31.0136 45.3605C31.1181 45.2965 31.2279 45.2417 31.3419 45.1967C31.3891 45.0837 31.525 44.8019 31.5955 44.6752C31.7731 44.3456 32.1727 43.9233 32.5298 43.7776ZM12.3668 34.4902C12.4232 36.1243 13.0902 38.0974 14.0058 39.4635H27.6676L27.6394 37.5572C25.8831 37.5572 23.2014 36.3968 22.1399 34.4996L12.3668 34.4902ZM21.759 30.2279C21.759 38.9163 34.4671 38.9163 34.4671 30.317L34.472 19.8625L21.759 19.8579V30.2279ZM25.8531 26.0639C26.0035 25.8994 26.1352 25.6835 26.163 25.5004C26.1866 25.35 25.764 25.3595 25.609 25.4536C25.5245 25.505 25.4446 25.6085 25.3788 25.7025C25.3319 25.773 25.1629 25.8293 25.0783 25.7497C24.9889 25.6652 25.1488 25.5194 25.1439 25.4303C25.1439 25.2799 24.8572 25.5053 24.7258 25.4441C24.6367 25.4018 24.6318 25.2658 24.6931 25.1859C24.7258 25.1436 24.8199 25.1623 24.8621 25.1158C24.9044 25.0686 24.9044 24.9982 24.9185 24.9372C24.9375 24.8668 25.0125 24.8337 25.0593 24.7823C25.2379 24.6086 25.576 24.3125 25.6418 24.3174C25.7965 24.3315 26.0176 24.4114 26.1535 24.3407C26.1817 24.3266 26.2335 24.2797 26.1863 24.2516L25.82 24.0115C25.8184 23.9736 25.8251 23.9359 25.8397 23.901C25.8544 23.866 25.8765 23.8347 25.9046 23.8093C26.0736 23.659 26.3367 23.7625 26.5575 23.7294C26.7124 23.7058 26.8579 23.6449 26.9706 23.5371C26.9988 23.6498 26.9283 23.7625 26.9283 23.8798C27.0692 24.0115 27.215 24.1239 27.3513 24.2509C27.7552 24.6546 27.9288 25.2419 27.957 25.7586C27.9806 25.9981 27.9806 26.2421 27.9806 26.6415C28.0464 26.4724 28.0887 26.2234 28.1028 26.0072C28.1637 25.3684 28.0651 24.8003 27.7037 24.3165C27.5569 24.1125 27.3901 23.9236 27.2058 23.7527C27.2248 23.565 27.3843 23.2455 27.5347 23.3631C27.6333 23.4382 27.4878 23.5509 27.591 23.6167C27.7041 23.6868 27.8682 23.6777 27.9386 23.6633C28.1031 23.6213 28.2626 23.579 28.4127 23.565C28.4831 23.5604 28.6004 23.5273 28.6243 23.5977C28.643 23.6446 28.5915 23.6777 28.5395 23.6963C28.4785 23.7153 28.3845 23.7012 28.3331 23.7527C28.2905 23.7949 28.2489 23.8421 28.2626 23.903C28.2813 23.9735 28.3567 24.0112 28.432 23.9876C28.7152 23.9093 29.0068 23.8651 29.3005 23.8559C29.4561 23.8559 29.4224 23.9689 29.3477 24.0108C29.2962 24.039 29.216 24.0626 29.1645 24.0675C28.8877 24.1 28.6807 24.1189 28.7134 24.2785C28.7367 24.3866 28.911 24.2831 28.948 24.363C28.9906 24.4475 28.8733 24.4944 28.8828 24.5511C28.911 24.7296 29.2536 24.6919 29.4132 24.6543C29.5305 24.6261 29.7182 24.5324 29.7746 24.6074C29.8266 24.6729 29.784 24.7765 29.7182 24.7954C29.5489 24.8423 29.2582 24.9268 29.178 25.0205C29.1027 25.11 29.1924 25.2931 29.2815 25.3026C29.4836 25.3259 29.7044 25.3259 29.864 25.3727C29.9243 25.3917 29.9764 25.434 29.9764 25.4995C29.9764 25.5699 29.9059 25.5935 29.8496 25.6122C29.7412 25.645 29.5583 25.645 29.4597 25.6875C29.427 25.7016 29.3611 25.7252 29.3706 25.7626C29.3988 25.833 29.54 25.814 29.6573 25.8281C29.7231 25.833 29.8499 25.8847 29.8499 25.9552C29.8499 26.0305 29.784 26.0538 29.6668 26.0446C29.4836 26.0305 29.3146 26.0538 29.235 26.0869C29.2111 26.0961 29.0705 26.1147 29.0748 26.1809C29.0843 26.2605 29.235 26.2091 29.2723 26.289C29.3051 26.3643 29.2022 26.4063 29.1927 26.5003C29.1927 26.538 29.2114 26.5566 29.249 26.5707C29.3709 26.6222 29.5115 26.6173 29.6343 26.5943C29.7611 26.5707 29.8076 26.7401 29.7749 26.7588C29.611 26.8479 29.2444 26.7542 29.1599 26.8056C29.0426 26.8806 29.3568 27.0497 29.3477 27.0874C29.3382 27.1296 29.3005 27.1719 29.2723 27.1814C29.1128 27.2423 28.9064 27.1247 28.7891 27.1909C28.6905 27.2518 28.7321 27.4068 28.6712 27.4867C28.5958 27.5853 28.4271 27.543 28.3518 27.5994C28.2538 27.6695 28.2489 27.8389 28.3567 27.9424C28.4415 28.022 28.5211 28.0781 28.6289 28.1301C29.1177 28.3742 29.6248 28.6183 30.0992 28.5852C30.3432 28.5714 30.7429 28.5576 30.9634 28.614C31.25 28.6841 31.5413 28.9046 31.6913 28.9992C31.8132 29.074 32.0107 29.0932 32.1657 29.0363C32.2781 28.9992 32.3534 28.8675 32.3301 28.7545C32.2597 28.3788 31.6393 28.2618 31.6304 27.886C31.6209 27.4539 31.5832 27.219 31.4427 26.9465C31.3906 26.8433 31.3817 26.6038 31.5036 26.571C31.6022 26.5475 31.6353 26.6837 31.7146 26.651C32.0766 26.5101 32.091 25.9371 32.4664 25.8287C32.6866 25.7678 33.4289 25.7586 33.3677 25.6646C33.2127 25.4434 33.2835 25.1902 33.3677 25.0726C33.424 24.9976 33.5787 24.9222 33.6406 24.9976C33.7248 25.0962 33.5132 25.2135 33.5276 25.3592C33.5413 25.4955 33.7392 25.7586 33.5885 25.8994C33.4994 25.984 32.8278 26.0124 32.6303 26.3129C32.5084 26.4957 32.4946 26.6415 32.6398 26.6274C32.757 26.6133 32.8557 26.4724 32.9641 26.3925C33.1567 26.2519 33.3117 26.1953 33.4198 26.2985C33.4761 26.3499 33.4008 26.4488 33.2973 26.477C33.213 26.5052 33.0066 26.726 33.0627 26.7823C33.1469 26.8715 33.6167 26.4632 33.7343 26.5475C33.7952 26.5943 33.504 26.895 33.5554 26.9747C33.6164 27.0733 33.8139 26.9183 33.8748 26.9936C33.964 27.1063 33.7199 27.3271 33.5787 27.4258C33.4709 27.4959 33.5129 27.7593 33.3579 27.8392C33.1846 27.9237 33.1043 28.0735 33.1233 28.0973C33.142 28.1344 33.1843 28.1632 33.2501 28.1206C33.4427 27.9987 33.6819 27.853 33.7805 27.8906C33.8369 27.9142 33.7572 28.1816 33.6865 28.3083C33.6158 28.4351 33.9731 28.3647 33.9211 28.4728C33.884 28.553 33.8601 28.6749 33.884 28.7873C33.9122 28.9334 33.4988 28.9655 33.4611 29.0641C33.4191 29.1772 33.5037 29.2053 33.5453 29.2102C33.7946 29.2479 33.7618 29.4776 33.6632 29.5762C33.5315 29.7079 33.3061 29.7593 33.1086 29.7262C32.9393 29.6981 32.5595 29.6283 32.3341 29.4589C32.2637 29.4074 32.1602 29.4445 32.1464 29.5152C32.132 29.5955 32.2165 29.7406 32.2542 29.8628C32.3063 30.046 32.2775 30.2763 32.2165 30.4551C32.0855 30.826 31.7333 31.1359 31.6347 31.5821C31.6108 31.6994 31.6442 31.8451 31.691 31.9578C31.7945 32.2025 31.9446 32.4322 32.1133 32.6392C32.1372 32.7051 32.1703 32.7798 32.1421 32.8407C32.1044 32.9347 31.8132 33.1369 31.7287 33.2171C31.4607 33.4658 31.2304 33.7901 31.179 34.1423C31.16 34.269 30.8877 34.3958 30.7046 34.4473C30.5689 34.4849 30.4278 34.5226 30.3154 34.6117C30.301 34.7146 30.3619 34.8044 30.3757 34.9073C30.3996 35.0861 30.1742 35.1752 30 35.2316C29.9203 35.2597 29.8355 35.2836 29.7415 35.2836C29.7087 35.2836 29.6995 35.2267 29.7044 35.1988C29.7559 34.9547 29.8024 34.7575 29.8964 34.5557C29.9341 34.4804 29.9951 34.4194 30.0566 34.3673L30.7276 33.8039L31.254 33.0478C31.3006 32.9773 31.3199 32.9161 31.3199 32.8646C31.3199 32.7185 31.2589 32.5829 31.1554 32.4889C31.0237 32.371 30.8311 32.3526 30.6859 32.2772C30.4982 32.1832 30.2253 31.9208 30.1877 31.9015C30.0848 31.85 30.0238 32.0378 30.0094 32.1456C29.9862 32.31 30.0376 32.465 30.0327 32.6294C30.0327 32.7048 30.0238 32.7467 29.9862 32.7939C29.5449 33.0474 28.9952 33.1415 28.6709 33.5451C28.6145 33.6155 28.5631 33.6912 28.4877 33.7426C28.3046 33.8694 27.9996 33.7239 27.863 33.9208C27.8021 34.0106 27.8725 34.1279 27.8492 34.2265C27.8351 34.2828 27.727 34.3582 27.6425 34.3998C27.5295 34.4519 27.4079 34.48 27.2854 34.4895C27.1491 34.4237 27.2337 34.2311 27.2805 34.0948C27.3274 33.9536 27.3935 33.813 27.5013 33.719C27.6609 33.5779 27.8627 33.3996 27.9898 33.3387C28.0976 33.2866 28.2617 33.2866 28.3934 33.2352C28.5321 33.1927 28.6635 33.1294 28.7833 33.0474C28.9753 32.9256 29.1541 32.7752 29.2622 32.5685C29.3841 32.3333 29.37 32.0194 29.215 31.8173C29.0739 31.6341 28.91 31.4553 28.816 31.2492C28.764 31.1362 28.8016 30.9812 28.8819 30.8777C28.877 30.8734 28.8203 30.8351 28.7878 30.8449C28.1159 30.8737 27.4352 30.7984 26.8104 30.5494C26.646 30.4836 26.4769 30.272 26.3593 30.2582C26.2515 30.2438 26.1857 30.3801 26.0776 30.4082C25.904 30.4554 25.6783 30.4272 25.4764 30.4082C25.2416 30.385 24.7531 30.2815 24.4009 30.1691C24.3446 30.178 24.2836 30.1878 24.2319 30.2205C24.1565 30.272 24.1425 30.385 24.1379 30.479C24.1284 30.6058 24.166 30.7231 24.1516 30.8547C24.147 30.9206 24.1094 30.991 24.1284 31.0523C24.1474 31.127 24.2224 31.1601 24.2738 31.2072C24.3584 31.2869 24.3724 31.4513 24.3724 31.583C24.3724 31.7285 24.321 31.9214 24.4429 32.0203C24.5182 32.0806 24.6214 32.0013 24.7154 32.0203C24.8186 32.039 24.8514 32.1658 24.8563 32.2644C24.8612 32.3768 24.7672 32.6159 24.7059 32.6778C24.6637 32.7198 24.5932 32.6867 24.5415 32.6634C24.4055 32.6025 24.2784 32.5039 24.2034 32.3722C24.1706 32.3158 24.1706 32.2454 24.1376 32.1845C24.0858 32.0809 23.9918 32.0206 23.8981 31.9499C23.7854 31.865 23.7621 31.7101 23.7431 31.5741C23.729 31.4467 23.7526 31.3248 23.7621 31.1977C23.7864 30.9464 23.7705 30.6928 23.7149 30.4465C23.6727 30.2588 23.5692 30.0708 23.6163 29.883C23.6399 29.7939 23.7009 29.7091 23.7857 29.6714C24.2399 29.6502 24.6896 29.5714 25.124 29.4368L24.8422 29.1594C24.7718 29.1594 24.7154 29.2298 24.645 29.2298C24.5697 29.2298 24.4665 29.122 24.4383 29.0844C24.2925 28.8685 24.1988 28.6189 24.133 28.3653C24.072 28.2667 23.997 28.1684 23.884 28.1212C23.8056 28.0872 23.7207 28.0711 23.6353 28.0741C23.4004 28.1776 23.1845 28.3797 23.1655 28.6382C23.1609 28.704 23.1983 28.7601 23.1891 28.8259C23.1753 28.9383 23.0905 29.0136 23.0106 29.0939C22.9307 29.1735 22.8556 29.2534 22.8229 29.3661C22.7944 29.4601 22.8274 29.5587 22.8694 29.6478C22.8976 29.7088 22.9307 29.7697 22.9071 29.8356C22.8507 29.9905 22.4799 30.1501 22.3718 30.1501C22.3341 30.1501 22.3013 30.0986 22.2872 30.0561C22.245 29.9149 22.2545 29.7648 22.2826 29.6243C22.3818 29.5168 22.4556 29.3883 22.4985 29.2485C22.5552 29.0608 22.5267 28.8587 22.6161 28.6844C22.8507 28.2854 23.4519 27.487 23.5692 27.3697C23.6209 27.3183 23.7477 27.2898 23.7995 27.3229C24.053 27.4873 24.2034 27.6891 24.4475 27.8159C24.5792 27.8818 24.7433 27.9807 24.8609 27.8866C24.9782 27.7926 24.9969 27.1633 25.0722 27.0034C25.2097 26.7263 25.5901 26.3597 25.8531 26.0639ZM30.5279 22.1516L30.4244 22.5461H30.0486L30.5374 20.6958H30.9646L31.4347 22.532H31.0583L30.9643 22.1516H30.5279ZM30.9129 21.8157L30.7435 21.0737L30.584 21.8157H30.9129ZM29.5409 21.2277C29.5458 21.1055 29.5081 20.946 29.4098 20.9083C29.3063 20.8706 29.1982 20.9037 29.1514 20.9741C29.0711 21.1055 29.0711 21.2841 29.076 21.5563C29.076 21.7208 29.0809 21.9508 29.1137 22.0592C29.1933 22.3078 29.4049 22.3222 29.5078 22.167C29.5599 22.0919 29.5599 21.9462 29.555 21.8148H29.3385V21.5422H29.8977V22.5378H29.6303V22.4018C29.6254 22.4113 29.5078 22.5005 29.4515 22.5289C29.3575 22.5709 29.1792 22.5709 29.0341 22.51C28.9116 22.4582 28.7943 22.2941 28.7428 22.0824C28.6908 21.8616 28.714 21.575 28.714 21.3309C28.7189 21.0725 28.8552 20.7861 29.0429 20.678C29.1746 20.603 29.4187 20.603 29.5734 20.6593C29.7617 20.7252 29.9072 20.9974 29.879 21.2277H29.5409ZM23.2495 20.7236C23.3998 20.8177 23.4794 20.9916 23.4519 21.1934H23.1557C23.1557 21.0057 23.0761 20.9163 22.9163 20.9117C22.8176 20.9071 22.6955 21.0198 22.6955 21.1043C22.6906 21.353 22.9114 21.4047 23.0617 21.4516C23.1744 21.4847 23.3107 21.5551 23.3765 21.6537C23.4984 21.8322 23.5128 22.02 23.4142 22.2643C23.3674 22.3816 23.1888 22.5225 23.0385 22.5556C22.8694 22.5933 22.6627 22.5746 22.4936 22.4475C22.3574 22.3443 22.2961 22.1422 22.3243 21.959H22.6578C22.6578 22.0484 22.6719 22.114 22.7095 22.1703C22.7377 22.208 22.7895 22.2689 22.8786 22.2735C22.914 22.2761 22.9495 22.2709 22.9827 22.2582C23.0158 22.2456 23.0458 22.2257 23.0704 22.2002C23.095 22.1747 23.1137 22.144 23.1252 22.1104C23.1367 22.0768 23.1406 22.0412 23.1368 22.0059C23.1181 21.7192 22.6391 21.7006 22.4747 21.5174C22.2771 21.292 22.3384 20.9304 22.4979 20.7846C22.719 20.5782 23.0198 20.5782 23.2495 20.7236ZM32.7325 21.9486C32.7374 22.019 32.742 22.268 32.7512 22.4276C32.7561 22.4744 32.8033 22.5357 32.8033 22.5403H32.4511C32.404 22.5403 32.3991 22.4557 32.3948 22.3856C32.3853 22.1979 32.4036 21.7517 32.2208 21.7517H31.9954V22.536H31.6432V20.7043H32.2772C32.5966 20.7043 32.7561 20.8878 32.7561 21.1365C32.7561 21.3009 32.7512 21.4935 32.5635 21.5732C32.6618 21.6669 32.7182 21.8077 32.7325 21.9486ZM32.2499 20.9686H31.9869V21.462H32.1795C32.4986 21.462 32.494 20.9686 32.2499 20.9686ZM24.3204 22.5436H23.9682V20.9983H23.5643V20.6884H24.7289V20.9983H24.3204V22.5436ZM26.5878 22.5436V20.9983H26.1839V20.6884H27.3531V20.9983H26.9397V22.5436H26.5878ZM27.5117 20.6887H28.681V21.0032H28.2675V22.5436H27.9157V21.0032H27.5117V20.6887ZM33.6213 21.0035V22.5485H33.2691V21.0035H32.8655V20.689H34.0301V21.0035H33.6213ZM25.6501 22.0114V20.6918H25.9928V21.9786C25.9928 22.7488 24.875 22.7488 24.875 22.0022V20.6918H25.2177V22.0163C25.218 22.3029 25.6501 22.3029 25.6501 22.0114ZM26.4408 23.3971C26.5443 23.308 26.6895 23.1861 26.8585 23.078C27.0089 22.9794 26.8398 23.2051 26.8303 23.2988C26.8022 23.5524 26.6095 23.5806 26.3982 23.5337C26.3612 23.5242 26.3753 23.4535 26.4408 23.3971ZM35.2728 29.3183L44.243 29.3134L44.642 24.3538L35.2728 24.3587V29.3183ZM27.7077 44.7643L18.4558 44.7456C20.3625 46.4599 24.7773 49.6675 27.6796 50.9684L27.7077 44.7643ZM21.0102 24.2231C20.8317 24.3826 20.4749 24.7774 20.4042 24.9556C20.5594 25.012 20.8644 25.1482 21.0102 25.2468V24.2231Z" fill="#8A8A9C"/>
</svg>
