<svg width="64" height="64" viewBox="0 0 64 64" fill="none" xmlns="http://www.w3.org/2000/svg">
<path fill-rule="evenodd" clip-rule="evenodd" d="M3.2 29.6C3.2 15.0197 15.0197 3.2 29.6 3.2C44.1803 3.2 56 15.0197 56 29.6V33.6C56 34.4837 56.7163 35.2 57.6 35.2C58.4837 35.2 59.2 34.4837 59.2 33.6V29.6C59.2 13.2524 45.9476 0 29.6 0C13.2524 0 0 13.2524 0 29.6C0 45.8837 11.5898 58.4 28 58.4C28.8837 58.4 29.6 57.6837 29.6 56.8C29.6 55.9163 28.8837 55.2 28 55.2C13.4823 55.2 3.2 44.2443 3.2 29.6ZM42.4 28.8001C43.2837 28.8001 44 28.0837 44 27.2001C44 26.3164 43.2837 25.6001 42.4 25.6001H38.6755C39.4765 24.4946 40 23.1725 40 21.6C40 16.0373 34.7001 12 28.8 12C25.8993 12 23.3356 12.7286 21.4633 14.2415C19.5513 15.7866 18.5143 18.0297 18.5143 20.6857C18.5143 21.5694 19.2306 22.2857 20.1143 22.2857C20.9979 22.2857 21.7143 21.5694 21.7143 20.6857C21.7143 18.9235 22.3692 17.6237 23.4745 16.7305C24.6196 15.8051 26.3987 15.2 28.8 15.2C33.5038 15.2 36.8 18.3261 36.8 21.6C36.8 23.041 35.9338 24.2752 34.246 25.4175C34.1549 25.4792 34.0621 25.5401 33.968 25.6001H29.6H16.8C15.9163 25.6001 15.2 26.3164 15.2 27.2001C15.2 28.0837 15.9163 28.8001 16.8 28.8001H26.2558C24.6613 29.401 23.0049 30.1394 21.5872 31.0858H16.8C15.9163 31.0858 15.2 31.8021 15.2 32.6858C15.2 33.5694 15.9163 34.2858 16.8 34.2858H18.462C17.9265 35.2408 17.6 36.3392 17.6 37.6C17.6 43.1627 22.8999 47.2 28.8 47.2C31.7669 47.2 34.7213 46.2676 36.9694 44.6774C39.2111 43.0917 40.9143 40.7152 40.9143 37.8286C40.9143 36.9449 40.1979 36.2286 39.3143 36.2286C38.4306 36.2286 37.7143 36.9449 37.7143 37.8286C37.7143 39.3602 36.8113 40.8695 35.1214 42.0649C33.4378 43.2558 31.135 44 28.8 44C24.0962 44 20.8 40.8739 20.8 37.6C20.8 36.3448 21.4165 35.2723 22.6302 34.2858H29.6H42.4C43.2837 34.2858 44 33.5694 44 32.6858C44 31.8021 43.2837 31.0858 42.4 31.0858H29.6H29.4021C31.0695 30.5276 33.0585 29.7991 34.8461 28.8001H42.4Z" fill="url(#paint0_linear_851_5838)"/>
<path d="M63.9628 49.1649C63.962 49.1649 63.9613 49.1644 63.9612 49.1636C63.7432 48.0235 62.8367 47.2747 61.6653 47.2693C59.8558 47.2612 58.0463 47.2558 56.2369 47.2504C55.9995 47.2498 55.7621 47.2497 55.5224 47.2499C55.1304 47.2501 54.8648 46.8734 54.9698 46.4957C55.3478 45.1604 55.462 43.7927 55.466 42.4129C55.4701 41.2193 55.3872 40.0312 55.22 38.8498C55.1547 38.384 55.0745 37.9142 54.9372 37.4646C54.7645 36.9002 54.4138 36.4452 53.8646 36.1792C52.7987 35.6662 51.4474 36.3034 51.1497 37.4686C51.0844 37.7211 51.0763 37.9911 51.064 38.2544C51.011 39.4088 50.765 40.5186 50.2987 41.5785C49.604 43.1595 48.5273 44.4489 47.1936 45.5344C45.5323 46.8872 43.6495 47.8377 41.6198 48.5155C41.1847 48.6613 40.9849 48.9354 40.9822 49.3944C40.9794 49.9237 40.9754 50.4543 40.974 50.9836C40.9645 54.2806 40.955 57.5763 40.9468 60.8734C40.9468 61.3095 41.2092 61.6335 41.6401 61.7199C43.2946 62.0507 44.9478 62.395 46.6077 62.7015C47.9916 62.9567 49.381 63.1862 50.7745 63.386C52.0741 63.5723 53.3792 63.7168 54.6857 63.8531C55.9799 63.9882 57.2782 64.0449 58.5792 63.9598C59.0455 63.9301 59.505 63.8572 59.9428 63.6803C60.7694 63.3482 61.2425 62.634 61.203 61.7645C61.1704 61.0543 60.6892 60.4575 60.004 60.2739C59.9901 60.2705 59.996 60.245 60.0103 60.2457C61.3688 60.3118 62.2268 59.3411 62.3368 58.3743C62.3836 57.9612 62.2961 57.4638 62.0231 57.0294C61.9071 56.8448 62.0819 55.7158 62.2498 55.5768C62.7202 55.1866 62.9785 54.6843 63.0247 54.0808C63.0601 53.6191 62.9486 53.1884 62.6998 52.7968C62.4914 52.4701 62.2235 52.2257 61.9038 52.0507C61.7892 51.988 61.8192 51.7994 61.9494 51.7896C63.2255 51.6938 64.2013 50.4174 63.9644 49.1663C63.9642 49.1655 63.9636 49.1649 63.9628 49.1649Z" fill="#F1DD23"/>
<path d="M62.9791 49.3523L62.9789 49.3514C62.8518 48.6864 62.3596 48.2725 61.6606 48.2693C59.8522 48.2612 58.0436 48.2558 56.2341 48.2504C56.234 48.2504 56.234 48.2504 56.2339 48.2504L56.2369 47.2504C55.9995 47.2498 55.7621 47.2497 55.5224 47.2499C55.1304 47.2501 54.8648 46.8734 54.9698 46.4957L62.9791 49.3523ZM62.9791 49.3523C62.9823 49.369 62.986 49.3856 62.99 49.402M62.9791 49.3523L62.99 49.402M62.99 49.402C63.0803 50.053 62.5386 50.7425 61.8745 50.7924L61.8742 50.7924C61.2474 50.8397 60.9157 51.335 60.8486 51.7347C60.7831 52.1244 60.9215 52.6529 61.4236 52.9278L61.4236 52.9278C61.5983 53.0235 61.7402 53.1521 61.8564 53.3341C61.9922 53.5482 62.046 53.7646 62.0277 54.0045C62.0021 54.3381 61.873 54.5901 61.6114 54.8071C61.4099 54.9742 61.3125 55.1804 61.2797 55.2512C61.2316 55.3551 61.1956 55.461 61.1688 55.5511C61.1143 55.7341 61.0717 55.9403 61.0418 56.1323C61.012 56.3245 60.99 56.5335 60.9862 56.724C60.9843 56.8179 60.9863 56.9289 61.0001 57.0417C61.0096 57.1188 61.0388 57.3426 61.1765 57.5616C61.3214 57.7922 61.3659 58.0595 61.3433 58.2611C61.2877 58.7487 60.8472 59.2852 60.0589 59.2469C59.3536 59.2126 59.0751 59.8015 59.0216 60.0358C58.986 60.1917 58.9754 60.4134 59.0725 60.6491C59.1819 60.9142 59.416 61.153 59.7482 61.2407C60.0115 61.3126 60.1915 61.537 60.2041 61.8104C60.2232 62.2373 60.0189 62.5721 59.5699 62.7524L59.5682 62.7531C59.2666 62.875 58.924 62.9358 58.5157 62.9618L58.514 62.9619C57.2844 63.0423 56.0449 62.9895 54.7895 62.8586C53.4857 62.7225 52.1963 62.5796 50.9164 62.3961M62.99 49.402L53.9808 37.7567C53.8797 37.4265 53.6988 37.2104 53.4298 37.0798C52.9453 36.8474 52.2632 37.15 52.1186 37.7162L52.1179 37.7189C52.0843 37.8488 52.0769 38.0006 52.063 38.3008C52.0046 39.5698 51.7331 40.8012 51.2142 41.9807C50.444 43.7335 49.2569 45.1443 47.8251 46.3098C46.0652 47.7429 44.0854 48.7416 41.9819 49.4488C41.981 49.6102 41.9801 49.7709 41.9791 49.9313C41.977 50.2838 41.9749 50.6346 41.974 50.9861L41.974 50.9865L41.9739 51.0188C41.9645 54.267 41.9552 57.5136 41.9471 60.7615M50.9164 62.3961C50.9164 62.3961 50.9164 62.3961 50.9164 62.3961L50.7745 63.386L50.9164 62.3961ZM50.9164 62.3961C49.537 62.1983 48.1609 61.971 46.7892 61.7181M46.7892 61.7181C45.5701 61.493 44.3578 61.248 43.1363 61.0011C42.7411 60.9213 42.3448 60.8412 41.9471 60.7615M46.7892 61.7181C46.7892 61.7181 46.7891 61.7181 46.789 61.7181L46.6077 62.7015L46.7892 61.7181ZM41.9471 60.7615C41.947 60.7996 41.9469 60.8377 41.9468 60.8759H41.9467M41.9471 60.7615C41.9103 60.7542 41.8735 60.7468 41.8367 60.7394C41.8343 60.7389 41.8331 60.7386 41.8331 60.7386L41.9467 60.8759M41.9315 49.4457L41.9376 49.4637C41.9035 49.4751 41.8899 49.483 41.8899 49.483C41.8899 49.483 41.8907 49.4825 41.8922 49.4815C41.8995 49.4766 41.9142 49.4653 41.9307 49.4467L41.9151 49.4L40.9822 49.3944L41.9149 49.3992L41.9315 49.4457ZM41.9315 49.4457L41.9162 49.4M41.9315 49.4457C41.9369 49.4396 41.9424 49.4328 41.9479 49.4252C41.9543 49.4165 41.9596 49.4081 41.9641 49.4003M41.9162 49.4L41.9847 49.3537C41.9852 49.3517 41.9855 49.3507 41.9855 49.3507C41.9855 49.3507 41.9823 49.3656 41.9821 49.4004L41.9641 49.4003M41.9162 49.4L41.9641 49.4003M41.9162 49.4L41.9641 49.4003M41.9467 60.8759C41.9467 60.8752 41.9465 60.8744 41.9463 60.8734H41.9468C41.9468 60.8759 41.9469 60.8771 41.9469 60.8771C41.9469 60.8771 41.9469 60.8767 41.9467 60.8759ZM41.8095 60.8755L41.8099 60.8734H41.8094L41.809 60.8755L41.8095 60.8755Z" stroke="white" stroke-opacity="0.23" stroke-width="2"/>
<path d="M39.8239 49.0434C39.8198 48.1483 39.0993 47.4178 38.2197 47.4151C36.6807 47.4111 35.1432 47.4111 33.6042 47.4151C32.8035 47.4165 32.083 48.0578 32.0273 48.8517C31.9878 49.4026 32.0028 49.9575 32.0028 50.511C32.0028 54.0538 32.0082 57.5966 32.0001 61.1394C31.9973 62.2087 32.8253 62.8892 33.7402 62.8757C35.2016 62.8527 36.6644 62.8703 38.1259 62.8689C39.1129 62.8689 39.8252 62.1574 39.8252 61.1745C39.8252 59.1641 39.8252 57.1537 39.8252 55.1434C39.8252 54.2253 39.8252 53.3085 39.8252 52.3904C39.8252 51.2739 39.8293 50.1573 39.8239 49.0421V49.0434Z" fill="#F1DD23"/>
<path d="M38.8239 49.048H38.8239C38.8222 48.6871 38.532 48.4162 38.2167 48.4151L38.8239 49.048ZM38.8239 49.048C38.8277 49.8252 38.8268 50.6013 38.826 51.381C38.8256 51.7167 38.8252 52.053 38.8252 52.3904V52.3958V52.4012V52.4066V52.4119V52.4173V52.4227V52.4281V52.4335V52.4388V52.4442V52.4496V52.455V52.4604V52.4657V52.4711V52.4765V52.4819V52.4873V52.4926V52.498V52.5034V52.5088V52.5141V52.5195V52.5249V52.5303V52.5357V52.541V52.5464V52.5518V52.5572V52.5626V52.5679V52.5733V52.5787V52.5841V52.5895V52.5948V52.6002V52.6056V52.611V52.6163V52.6217V52.6271V52.6325V52.6379V52.6432V52.6486V52.654V52.6594V52.6647V52.6701V52.6755V52.6809V52.6863V52.6916V52.697V52.7024V52.7078V52.7131V52.7185V52.7239V52.7293V52.7347V52.74V52.7454V52.7508V52.7562V52.7615V52.7669V52.7723V52.7777V52.7831V52.7884V52.7938V52.7992V52.8046V52.8099V52.8153V52.8207V52.8261V52.8315V52.8368V52.8422V52.8476V52.853V52.8583V52.8637V52.8691V52.8745V52.8798V52.8852V52.8906V52.896V52.9014V52.9067V52.9121V52.9175V52.9229V52.9282V52.9336V52.939V52.9444V52.9498V52.9551V52.9605V52.9659V52.9713V52.9766V52.982V52.9874V52.9928V52.9981V53.0035V53.0089V53.0143V53.0196V53.025V53.0304V53.0358V53.0412V53.0465V53.0519V53.0573V53.0627V53.068V53.0734V53.0788V53.0842V53.0895V53.0949V53.1003V53.1057V53.1111V53.1164V53.1218V53.1272V53.1326V53.1379V53.1433V53.1487V53.1541V53.1594V53.1648V53.1702V53.1756V53.1809V53.1863V53.1917V53.1971V53.2024V53.2078V53.2132V53.2186V53.224V53.2293V53.2347V53.2401V53.2455V53.2508V53.2562V53.2616V53.267V53.2723V53.2777V53.2831V53.2885V53.2938V53.2992V53.3046V53.31V53.3153V53.3207V53.3261V53.3315V53.3368V53.3422V53.3476V53.353V53.3584V53.3637V53.3691V53.3745V53.3799V53.3852V53.3906V53.396V53.4014V53.4067V53.4121V53.4175V53.4229V53.4282V53.4336V53.439V53.4444V53.4497V53.4551V53.4605V53.4659V53.4712V53.4766V53.482V53.4874V53.4927V53.4981V53.5035V53.5089V53.5143V53.5196V53.525V53.5304V53.5358V53.5411V53.5465V53.5519V53.5573V53.5626V53.568V53.5734V53.5788V53.5841V53.5895V53.5949V53.6003V53.6056V53.611V53.6164V53.6218V53.6271V53.6325V53.6379V53.6433V53.6486V53.654V53.6594V53.6648V53.6701V53.6755V53.6809V53.6863V53.6916V53.697V53.7024V53.7078V53.7131V53.7185V53.7239V53.7293V53.7346V53.74V53.7454V53.7508V53.7562V53.7615V53.7669V53.7723V53.7777V53.783V53.7884V53.7938V53.7992V53.8045V53.8099V53.8153V53.8207V53.826V53.8314V53.8368V53.8422V53.8475V53.8529V53.8583V53.8637V53.869V53.8744V53.8798V53.8852V53.8905V53.8959V53.9013V53.9067V53.912V53.9174V53.9228V53.9282V53.9335V53.9389V53.9443V53.9497V53.955V53.9604V53.9658V53.9712V53.9765V53.9819V53.9873V53.9927V53.9981V54.0034V54.0088V54.0142V54.0196V54.0249V54.0303V54.0357V54.0411V54.0464V54.0518V54.0572V54.0626V54.0679V54.0733V54.0787V54.0841V54.0894V54.0948V54.1002V54.1056V54.1109V54.1163V54.1217V54.1271V54.1324V54.1378V54.1432V54.1486V54.1539V54.1593V54.1647V54.1701V54.1755V54.1808V54.1862V54.1916V54.197V54.2023V54.2077V54.2131V54.2185V54.2238V54.2292V54.2346V54.24V54.2453V54.2507V54.2561V54.2615V54.2668V54.2722V54.2776V54.283V54.2883V54.2937V54.2991V54.3045V54.3099V54.3152V54.3206V54.326V54.3314V54.3367V54.3421V54.3475V54.3529V54.3582V54.3636V54.369V54.3744V54.3797V54.3851V54.3905V54.3959V54.4012V54.4066V54.412V54.4174V54.4228V54.4281V54.4335V54.4389V54.4443V54.4496V54.455V54.4604V54.4658V54.4711V54.4765V54.4819V54.4873V54.4926V54.498V54.5034V54.5088V54.5142V54.5195V54.5249V54.5303V54.5357V54.541V54.5464V54.5518V54.5572V54.5625V54.5679V54.5733V54.5787V54.5841V54.5894V54.5948V54.6002V54.6056V54.6109V54.6163V54.6217V54.6271V54.6324V54.6378V54.6432V54.6486V54.654V54.6593V54.6647V54.6701V54.6755V54.6808V54.6862V54.6916V54.697V54.7023V54.7077V54.7131V54.7185V54.7239V54.7292V54.7346V54.74V54.7454V54.7507V54.7561V54.7615V54.7669V54.7723V54.7776V54.783V54.7884V54.7938V54.7991V54.8045V54.8099V54.8153V54.8207V54.826V54.8314V54.8368V54.8422V54.8475V54.8529V54.8583V54.8637V54.8691V54.8744V54.8798V54.8852V54.8906V54.8959V54.9013V54.9067V54.9121V54.9175V54.9228V54.9282V54.9336V54.939V54.9444V54.9497V54.9551V54.9605V54.9659V54.9712V54.9766V54.982V54.9874V54.9928V54.9981V55.0035V55.0089V55.0143V55.0197V55.025V55.0304V55.0358V55.0412V55.0465V55.0519V55.0573V55.0627V55.0681V55.0734V55.0788V55.0842V55.0896V55.095V55.1003V55.1057V55.1111V55.1165V55.1219V55.1272V55.1326V55.138V55.1434V55.1552V55.1669V55.1787V55.1905V55.2023V55.2141V55.2258V55.2376V55.2494V55.2612V55.2729V55.2847V55.2965V55.3083V55.3201V55.3318V55.3436V55.3554V55.3672V55.379V55.3907V55.4025V55.4143V55.4261V55.4379V55.4496V55.4614V55.4732V55.485V55.4968V55.5085V55.5203V55.5321V55.5439V55.5557V55.5674V55.5792V55.591V55.6028V55.6146V55.6263V55.6381V55.6499V55.6617V55.6735V55.6852V55.697V55.7088V55.7206V55.7323V55.7441V55.7559V55.7677V55.7795V55.7912V55.803V55.8148V55.8266V55.8384V55.8501V55.8619V55.8737V55.8855V55.8973V55.909V55.9208V55.9326V55.9444V55.9562V55.9679V55.9797V55.9915V56.0033V56.0151V56.0268V56.0386V56.0504V56.0622V56.074V56.0857V56.0975V56.1093V56.1211V56.1329V56.1446V56.1564V56.1682V56.18V56.1917V56.2035V56.2153V56.2271V56.2389V56.2506V56.2624V56.2742V56.286V56.2978V56.3095V56.3213V56.3331V56.3449V56.3567V56.3684V56.3802V56.392V56.4038V56.4156V56.4273V56.4391V56.4509V56.4627V56.4745V56.4862V56.498V56.5098V56.5216V56.5334V56.5451V56.5569V56.5687V56.5805V56.5923V56.604V56.6158V56.6276V56.6394V56.6511V56.6629V56.6747V56.6865V56.6983V56.71V56.7218V56.7336V56.7454V56.7572V56.7689V56.7807V56.7925V56.8043V56.8161V56.8278V56.8396V56.8514V56.8632V56.875V56.8867V56.8985V56.9103V56.9221V56.9339V56.9456V56.9574V56.9692V56.981V56.9928V57.0045V57.0163V57.0281V57.0399V57.0517V57.0634V57.0752V57.087V57.0988V57.1105V57.1223V57.1341V57.1459V57.1577V57.1694V57.1812V57.193V57.2048V57.2166V57.2283V57.2401V57.2519V57.2637V57.2755V57.2872V57.299V57.3108V57.3226V57.3344V57.3461V57.3579V57.3697V57.3815V57.3933V57.405V57.4168V57.4286V57.4404V57.4522V57.4639V57.4757V57.4875V57.4993V57.5111V57.5228V57.5346V57.5464V57.5582V57.5699V57.5817V57.5935V57.6053V57.6171V57.6288V57.6406V57.6524V57.6642V57.676V57.6877V57.6995V57.7113V57.7231V57.7349V57.7466V57.7584V57.7702V57.782V57.7938V57.8055V57.8173V57.8291V57.8409V57.8527V57.8644V57.8762V57.888V57.8998V57.9116V57.9233V57.9351V57.9469V57.9587V57.9705V57.9822V57.994V58.0058V58.0176V58.0293V58.0411V58.0529V58.0647V58.0765V58.0882V58.1V58.1118V58.1236V58.1354V58.1471V58.1589V58.1707V58.1825V58.1943V58.206V58.2178V58.2296V58.2414V58.2532V58.2649V58.2767V58.2885V58.3003V58.3121V58.3238V58.3356V58.3474V58.3592V58.371V58.3827V58.3945V58.4063V58.4181V58.4299V58.4416V58.4534V58.4652V58.477V58.4887V58.5005V58.5123V58.5241V58.5359V58.5476V58.5594V58.5712V58.583V58.5948V58.6065V58.6183V58.6301V58.6419V58.6537V58.6654V58.6772V58.689V58.7008V58.7126V58.7243V58.7361V58.7479V58.7597V58.7715V58.7832V58.795V58.8068V58.8186V58.8304V58.8421V58.8539V58.8657V58.8775V58.8892V58.901V58.9128V58.9246V58.9364V58.9481V58.9599V58.9717V58.9835V58.9953V59.007V59.0188V59.0306V59.0424V59.0542V59.0659V59.0777V59.0895V59.1013V59.1131V59.1248V59.1366V59.1484V59.1602V59.172V59.1837V59.1955V59.2073V59.2191V59.2309V59.2426V59.2544V59.2662V59.278V59.2898V59.3015V59.3133V59.3251V59.3369V59.3486V59.3604V59.3722V59.384V59.3958V59.4075V59.4193V59.4311V59.4429V59.4547V59.4664V59.4782V59.49V59.5018V59.5136V59.5253V59.5371V59.5489V59.5607V59.5725V59.5842V59.596V59.6078V59.6196V59.6314V59.6431V59.6549V59.6667V59.6785V59.6903V59.702V59.7138V59.7256V59.7374V59.7492V59.7609V59.7727V59.7845V59.7963V59.8081V59.8198V59.8316V59.8434V59.8552V59.8669V59.8787V59.8905V59.9023V59.9141V59.9258V59.9376V59.9494V59.9612V59.973V59.9847V59.9965V60.0083V60.0201V60.0319V60.0436V60.0554V60.0672V60.079V60.0908V60.1025V60.1143V60.1261V60.1379V60.1497V60.1614V60.1732V60.185V60.1968V60.2086V60.2203V60.2321V60.2439V60.2557V60.2674V60.2792V60.291V60.3028V60.3146V60.3263V60.3381V60.3499V60.3617V60.3735V60.3852V60.397V60.4088V60.4206V60.4324V60.4441V60.4559V60.4677V60.4795V60.4913V60.503V60.5148V60.5266V60.5384V60.5502V60.5619V60.5737V60.5855V60.5973V60.6091V60.6208V60.6326V60.6444V60.6562V60.668V60.6797V60.6915V60.7033V60.7151V60.7268V60.7386V60.7504V60.7622V60.774V60.7857V60.7975V60.8093V60.8211V60.8329V60.8446V60.8564V60.8682V60.88V60.8918V60.9035V60.9153V60.9271V60.9389V60.9507V60.9624V60.9742V60.986V60.9978V61.0096V61.0213V61.0331V61.0449V61.0567V61.0685V61.0802V61.092V61.1038V61.1156V61.1274V61.1391V61.1509V61.1627V61.1745C38.8252 61.6028 38.5628 61.8689 38.1259 61.8689H38.1249C37.6689 61.8693 37.2085 61.8679 36.7458 61.8664C35.744 61.8632 34.7308 61.86 33.725 61.8758M38.8239 49.048L33.725 61.8758M33.725 61.8758C33.7251 61.8758 33.7253 61.8758 33.7254 61.8758L33.7402 62.8757L33.7245 61.8758C33.7247 61.8758 33.7248 61.8758 33.725 61.8758ZM33.725 61.8758C33.3226 61.8815 32.9989 61.6064 33.0001 61.1419L33.0001 61.1417C33.0059 58.6097 33.0048 56.077 33.0037 53.5459C33.0032 52.534 33.0028 51.5223 33.0028 50.511C33.0028 50.3777 33.0021 50.2492 33.0014 50.1244C32.999 49.6971 32.9968 49.3129 33.0247 48.9231L33.0248 48.9217C33.0418 48.6798 33.3004 48.4157 33.6059 48.4151L33.6069 48.4151M33.725 61.8758L33.6069 48.4151M33.6069 48.4151C35.1439 48.4111 36.6796 48.4111 38.2166 48.4151L33.6069 48.4151Z" stroke="white" stroke-opacity="0.23" stroke-width="2"/>
<defs>
<linearGradient id="paint0_linear_851_5838" x1="29.6" y1="29.2" x2="45.3375" y2="44.0135" gradientUnits="userSpaceOnUse">
<stop stop-color="white"/>
<stop offset="1" stop-color="white" stop-opacity="0"/>
</linearGradient>
</defs>
</svg>
