<svg viewBox="0 0 72 48">
<path
    fill-rule="evenodd"
    clip-rule="evenodd"
    d="M18.2467 17.0181C20.5383 17.0181 22.4225 16.4623 23.8936 15.3508L23.8879 15.3452C25.3478 14.2337 26.2587 12.7933 26.6152 11.024H22.5356C22.264 11.8576 21.9132 12.4871 21.4945 12.9067C20.7363 13.6836 19.599 14.0749 18.1901 14.0749C16.7812 14.0749 15.6213 13.6213 14.7046 12.7139C13.7937 11.8066 13.3354 10.4456 13.3354 8.61961C13.3354 6.79361 13.7654 5.38726 14.6311 4.3892C15.4968 3.39681 16.7077 2.89778 18.1788 2.89778C19.6499 2.89778 20.7646 3.25504 21.5115 3.95821C21.9302 4.35517 22.2753 4.94493 22.5413 5.72183H26.6605C26.5982 4.70676 26.1456 3.69736 25.2968 2.68796C23.7635 0.895986 21.3361 0 18.0204 0C15.5421 0 13.4994 0.669154 11.8925 2.00746C10.0479 3.54425 9.12563 5.73317 9.12563 8.56857C9.12563 11.1941 9.93476 13.2583 11.5587 14.7668C13.1826 16.2695 15.4119 17.0181 18.2467 17.0181ZM32.3937 13.3547H39.54L40.7905 16.7345H45.1926L38.3178 0.289195H33.7347L26.809 16.7345H31.0527L32.3937 13.3547ZM35.9923 4.04893L38.414 10.5193H33.4914L35.9923 4.04893ZM54.7263 10.2528H50.4826V16.5928H46.4653V0.430992H56.1125C57.4931 0.453675 58.5512 0.589774 59.2925 0.84496C60.0337 1.10015 60.6617 1.48009 61.1823 1.97345C61.6067 2.38175 61.9462 2.83541 62.1951 3.33444C62.4441 3.83347 62.5686 4.40055 62.5686 5.03568C62.5686 5.80123 62.3309 6.55545 61.8613 7.29832C61.3917 8.0412 60.6108 8.56291 59.5244 8.86913C60.4298 9.16969 61.0748 9.595 61.4539 10.1451C61.833 10.6951 62.0197 11.5401 62.0197 12.6742V13.7574C62.0197 14.4946 62.0537 14.9993 62.1272 15.2601C62.2347 15.6741 62.4837 15.986 62.8741 16.1788V16.5871H58.3532C58.2287 16.2298 58.1382 15.9406 58.0873 15.7195C57.9798 15.2658 57.9232 14.8008 57.9118 14.3244L57.8836 12.8217C57.8666 11.7896 57.6346 11.1034 57.1989 10.7632C56.7576 10.4173 55.9315 10.2471 54.7263 10.2471V10.2528ZM57.2215 7.31534C58.042 7.00911 58.4494 6.40234 58.4494 5.49501C58.4494 4.51396 58.0533 3.85615 57.2612 3.52157C56.8142 3.32877 56.1521 3.23804 55.2581 3.23804H50.4826V7.58186H55.1393C56.0616 7.58186 56.7576 7.4968 57.2215 7.32101V7.31534ZM4.02865 21.4072H0V37.569H13.5797V34.6656H4.02865V21.4072ZM15.5592 21.4072H19.5199V37.569H15.5592V21.4072ZM30.4188 38C31.9861 38 33.3101 37.7278 34.3852 37.1777H34.4022C35.0302 36.8658 35.7319 36.3214 36.5184 35.5559L36.9258 37.5747H39.6191V28.8984H31.5052V31.5977H36.0091C35.8054 32.6581 35.2679 33.5201 34.3965 34.1722C33.5252 34.8244 32.4331 35.1533 31.0412 35.1533C29.6493 35.1533 28.4045 34.7393 27.3124 33.9114C26.2204 33.0834 25.6715 31.6601 25.6715 29.6866C25.6715 27.7132 26.1751 26.2331 27.1823 25.2521C28.1895 24.271 29.4795 23.7776 31.0469 23.7776C31.8673 23.7776 32.6142 23.8967 33.2819 24.1406C34.4757 24.5772 35.2283 25.3485 35.5395 26.4543H39.5455C39.3248 24.8948 38.4591 23.5962 36.9597 22.5528C35.4546 21.5093 33.4686 20.9876 30.9903 20.9876C28.1329 20.9876 25.8413 21.7759 24.1042 23.358C22.3671 24.9345 21.5014 27.0667 21.5014 29.6526C21.5014 32.2385 22.3558 34.28 24.0759 35.7714C25.7225 37.2571 27.8386 38 30.4188 38ZM54.1947 37.569V30.3558H46.5052V37.569H42.4369V21.4072H46.5052V27.5714H54.1947V21.4072H58.1317H58.28H71.9943H72V24.271H67.7394V37.569H63.7843V24.271H58.28V37.569H54.1947Z"
    fill="white"
  />
<path
    d="M51.0694 35L20 37.1726L20.7454 47.832L51.8148 45.6594L51.0694 35Z"
    fill="#8A8A9C"
  />
<path
    d="M27.7075 38.682L28.073 43.8898L26.9763 43.9685L26.937 43.4342C26.7908 43.6761 26.622 43.856 26.4196 43.9741C26.2171 44.0923 25.9697 44.1597 25.6603 44.1822C25.1542 44.216 24.7211 44.0641 24.35 43.7267C23.9788 43.3893 23.7763 42.9281 23.737 42.3601C23.692 41.7021 23.8269 41.1734 24.1363 40.7685C24.4512 40.3692 24.8899 40.1443 25.4579 40.1049C25.7166 40.088 25.9584 40.1218 26.1665 40.2117C26.3746 40.3017 26.5545 40.4311 26.6895 40.6054L26.5602 38.7664L27.7075 38.6877V38.682ZM24.8955 42.2026C24.918 42.5569 25.0192 42.8381 25.1936 43.0406C25.3623 43.243 25.6097 43.333 25.9303 43.3105C26.2509 43.288 26.4871 43.1643 26.6389 42.9393C26.7908 42.7144 26.8526 42.4332 26.8301 42.0958C26.7964 41.6233 26.6389 41.2972 26.3577 41.1116C26.1834 40.9991 25.9922 40.9541 25.7728 40.9653C25.441 40.9878 25.2104 41.1172 25.0698 41.3478C24.9292 41.584 24.873 41.8652 24.8955 42.1914V42.2026Z"
    fill="white"
  />
<path
    d="M32.598 42.4613C32.5868 42.6975 32.4687 42.9393 32.2493 43.198C31.9063 43.603 31.4001 43.8335 30.7365 43.8785C30.1853 43.9179 29.6904 43.7886 29.2462 43.4961C28.8019 43.2037 28.5544 42.6975 28.5038 41.972C28.4588 41.2915 28.6107 40.7629 28.965 40.3748C29.3193 39.9868 29.7973 39.7731 30.4047 39.7281C30.7646 39.7056 31.0908 39.7393 31.3889 39.8462C31.6869 39.953 31.9344 40.1274 32.1425 40.3748C32.3281 40.5942 32.4574 40.8585 32.5305 41.1622C32.5699 41.3422 32.6036 41.5952 32.6205 41.9383L29.6623 42.1464C29.7073 42.54 29.8592 42.8044 30.1291 42.945C30.2922 43.035 30.4834 43.0687 30.7028 43.0518C30.9333 43.0349 31.1189 42.9618 31.2595 42.8325C31.3326 42.765 31.4001 42.6694 31.4507 42.5457L32.6036 42.4669L32.598 42.4613ZM31.3945 41.3365C31.3551 41.0666 31.2539 40.8697 31.0796 40.7404C30.9052 40.611 30.7028 40.5548 30.4609 40.5717C30.1966 40.5885 29.9998 40.6785 29.8704 40.836C29.7354 40.9935 29.6623 41.2016 29.6398 41.4603L31.3945 41.3365Z"
    fill="white"
  />
<path
    d="M36.3095 39.6044C36.6638 39.7787 36.8831 40.0993 36.9675 40.5717L35.8258 40.6504C35.8033 40.5211 35.7527 40.4198 35.6796 40.3467C35.5446 40.2174 35.3253 40.1611 35.0272 40.1836C34.7798 40.2005 34.6054 40.2455 34.5042 40.3242C34.403 40.403 34.358 40.4873 34.3636 40.5773C34.3692 40.6954 34.4311 40.7741 34.5492 40.8191C34.6673 40.8641 35.0666 40.9316 35.7583 41.0216C36.2195 41.0835 36.5682 41.2072 36.81 41.3815C37.0462 41.5615 37.1756 41.7977 37.1981 42.0958C37.2262 42.4838 37.0856 42.81 36.7819 43.0799C36.4782 43.3499 35.9889 43.5017 35.314 43.5524C34.6392 43.603 34.1105 43.5074 33.7675 43.2712C33.4244 43.035 33.2332 42.7144 33.2051 42.3151L34.3636 42.2364C34.403 42.4163 34.4592 42.54 34.5492 42.6132C34.701 42.7369 34.9654 42.7875 35.3478 42.765C35.5727 42.7481 35.7471 42.7088 35.8764 42.6357C36.0058 42.5682 36.062 42.4726 36.0564 42.3545C36.0508 42.2364 35.9889 42.1576 35.8764 42.1014C35.764 42.0451 35.359 41.972 34.6673 41.8764C34.1668 41.8033 33.8068 41.6852 33.5931 41.539C33.3794 41.3928 33.2613 41.1622 33.2388 40.8585C33.2163 40.4986 33.3513 40.178 33.6494 39.8968C33.9474 39.6156 34.3861 39.4525 34.9597 39.4132C35.5334 39.3738 35.9552 39.4413 36.3151 39.61L36.3095 39.6044Z"
    fill="white"
  />
<path
    d="M38.6892 39.2501L38.9648 43.1756L37.84 43.2543L37.5645 39.3288L38.6892 39.2501Z"
    fill="white"
  />
<path
    d="M41.0734 43.7155C41.2028 43.7998 41.4109 43.8336 41.7033 43.8111C42.1139 43.7829 42.3782 43.6423 42.5019 43.3836C42.5806 43.2205 42.6088 42.9506 42.5806 42.5794L42.5638 42.3263C42.4682 42.5007 42.3557 42.6357 42.2376 42.7256C42.0239 42.8944 41.7314 42.9956 41.3715 43.0237C40.8091 43.0631 40.3536 42.9169 39.9936 42.585C39.6337 42.2532 39.4312 41.7864 39.3919 41.1847C39.3525 40.5829 39.4762 40.1049 39.7743 39.6831C40.0667 39.2669 40.511 39.0364 41.1072 38.9914C41.3265 38.9745 41.5177 38.9914 41.6864 39.042C41.9733 39.1263 42.2095 39.3007 42.4007 39.565L42.3613 39.0026L43.4692 38.9239L43.7279 42.6357C43.7617 43.1418 43.6942 43.5299 43.5255 43.7998C43.233 44.261 42.62 44.5253 41.6977 44.5928C41.1409 44.6322 40.6798 44.5647 40.3142 44.396C39.9486 44.2272 39.7349 43.946 39.6674 43.558L40.9047 43.4736C40.9441 43.5917 41.0003 43.6761 41.079 43.7211L41.0734 43.7155ZM40.7416 41.7077C40.9216 42.0283 41.2084 42.1745 41.6077 42.1464C41.872 42.1295 42.0914 42.0227 42.2657 41.8258C42.4344 41.6346 42.5075 41.3365 42.4794 40.9429C42.4513 40.5717 42.3444 40.2961 42.1588 40.1161C41.9733 39.9362 41.7314 39.8518 41.439 39.8743C41.0397 39.9024 40.7754 40.088 40.646 40.4367C40.5785 40.6223 40.556 40.8473 40.5729 41.1116C40.5898 41.3365 40.646 41.539 40.7416 41.7077Z"
    fill="white"
  />
<path
    d="M46.1062 39.5031C45.7238 39.5312 45.4651 39.6943 45.347 39.998C45.2851 40.1555 45.2627 40.358 45.2795 40.5998L45.4257 42.7031L44.2953 42.7819L44.0254 38.8957L45.1221 38.817L45.1614 39.385C45.2964 39.1769 45.4201 39.0195 45.5438 38.9239C45.7688 38.7495 46.0556 38.6539 46.4156 38.6258C46.8655 38.5921 47.2366 38.6764 47.5403 38.8676C47.8384 39.0588 48.0071 39.3963 48.0409 39.8856L48.2265 42.5063L47.0623 42.585L46.8992 40.2174C46.8823 40.0149 46.843 39.8574 46.7755 39.7506C46.6518 39.5594 46.4324 39.475 46.1175 39.4975L46.1062 39.5031Z"
    fill="white"
  />
<path
    d="M22.3154 38.1121L21.1934 38.1906L21.2597 39.1387L22.3817 39.0602L22.3154 38.1121Z"
    fill="white"
  />
</svg>
