<svg width="25" height="24" viewBox="0 0 25 24" fill="none" xmlns="http://www.w3.org/2000/svg">
<path d="M7.87756 11.6296H7.12756H7.87756ZM7.87756 12.5556L7.31609 13.0528C7.45137 13.2056 7.64306 13.2966 7.84695 13.3049C8.05084 13.3133 8.24932 13.2382 8.39662 13.0969L7.87756 12.5556ZM10.0191 11.5414C10.318 11.2547 10.328 10.7799 10.0414 10.4809C9.7547 10.182 9.27994 10.172 8.98095 10.4586L10.0191 11.5414ZM7.06148 10.5028C6.78686 10.1927 6.31286 10.1639 6.00277 10.4385C5.69267 10.7131 5.66391 11.1871 5.93852 11.4972L7.06148 10.5028ZM15.4317 9.0093C15.713 9.31337 16.1875 9.33184 16.4915 9.05055C16.7956 8.76927 16.8141 8.29476 16.5328 7.9907L15.4317 9.0093ZM12.5437 6.25C9.55802 6.25 7.12756 8.653 7.12756 11.6296H8.62756C8.62756 9.49251 10.3753 7.75 12.5437 7.75V6.25ZM7.12756 11.6296L7.12756 12.5556H8.62756L8.62756 11.6296H7.12756ZM8.39662 13.0969L10.0191 11.5414L8.98095 10.4586L7.35851 12.0142L8.39662 13.0969ZM8.43904 12.0583L7.06148 10.5028L5.93852 11.4972L7.31609 13.0528L8.43904 12.0583ZM16.5328 7.9907C15.5431 6.9209 14.1212 6.25 12.5437 6.25V7.75C13.6879 7.75 14.7154 8.23504 15.4317 9.0093L16.5328 7.9907Z" fill="white"/>
<path d="M17.1188 11.4443L17.6795 10.9462C17.544 10.7937 17.3523 10.703 17.1485 10.6949C16.9447 10.6868 16.7464 10.7621 16.5993 10.9034L17.1188 11.4443ZM14.9805 12.4581C14.6817 12.745 14.6722 13.2198 14.9591 13.5185C15.246 13.8173 15.7208 13.8269 16.0195 13.54L14.9805 12.4581ZM17.9393 13.4972C18.2144 13.8068 18.6885 13.8348 18.9981 13.5597C19.3078 13.2846 19.3358 12.8106 19.0607 12.5009L17.9393 13.4972ZM9.54688 15.0047C9.26342 14.7027 8.78879 14.6876 8.48675 14.9711C8.18472 15.2545 8.16966 15.7292 8.45312 16.0312L9.54688 15.0047ZM12.4348 17.7499C15.4276 17.7499 17.8688 15.3496 17.8688 12.3703H16.3688C16.3688 14.5047 14.6158 16.2499 12.4348 16.2499V17.7499ZM17.8688 12.3703V11.4443H16.3688V12.3703H17.8688ZM16.5993 10.9034L14.9805 12.4581L16.0195 13.54L17.6383 11.9853L16.5993 10.9034ZM16.5581 11.9425L17.9393 13.4972L19.0607 12.5009L17.6795 10.9462L16.5581 11.9425ZM8.45312 16.0312C9.44543 17.0885 10.8635 17.7499 12.4348 17.7499V16.2499C11.292 16.2499 10.2655 15.7704 9.54688 15.0047L8.45312 16.0312Z" fill="white"/>
<path d="M2.5 12C2.5 7.28595 2.5 4.92893 3.96447 3.46447C5.42893 2 7.78595 2 12.5 2C17.214 2 19.5711 2 21.0355 3.46447C22.5 4.92893 22.5 7.28595 22.5 12C22.5 16.714 22.5 19.0711 21.0355 20.5355C19.5711 22 17.214 22 12.5 22C7.78595 22 5.42893 22 3.96447 20.5355C2.5 19.0711 2.5 16.714 2.5 12Z" stroke="white" stroke-width="1.5"/>
</svg>
