<svg width="33" height="32" viewBox="0 0 33 32" fill="none" xmlns="http://www.w3.org/2000/svg">
<path d="M29.8333 16.0002C29.8333 22.2856 29.8333 25.4283 27.8807 27.3809C25.9281 29.3335 22.7854 29.3335 16.5 29.3335C10.2146 29.3335 7.07192 29.3335 5.1193 27.3809C3.16668 25.4283 3.16668 22.2856 3.16668 16.0002C3.16668 9.71477 3.16668 6.57208 5.1193 4.61945C7.07192 2.66683 10.2146 2.66683 16.5 2.66683C22.7854 2.66683 25.9281 2.66683 27.8807 4.61945C29.8333 6.57207 29.8333 9.71477 29.8333 16.0002Z" stroke="white" stroke-width="1.5"/>
<path d="M11.1667 16L21.8333 16M21.8333 16L17.5667 20M21.8333 16L17.5667 12" stroke="white" stroke-width="1.5" stroke-linecap="round" stroke-linejoin="round"/>
</svg>
