<svg width="64" height="64" viewBox="0 0 64 64" fill="none" xmlns="http://www.w3.org/2000/svg">
<path fill-rule="evenodd" clip-rule="evenodd" d="M24.7632 5.55457V3.2H34.4368V5.55457C34.4368 6.74333 35.2283 7.74077 36.3052 8.07586C37.6176 8.48422 38.8787 9.00942 40.0764 9.63943C41.0751 10.1648 42.3406 10.0192 43.1814 9.1784L44.8475 7.51227L51.6878 14.3525L50.0216 16.0187C49.1809 16.8594 49.0353 18.1249 49.5606 19.1236C50.1906 20.3214 50.7158 21.5824 51.1241 22.8948L52.6519 22.4194L51.1241 22.8948C51.4592 23.9717 52.4567 24.7632 53.6454 24.7632H56V26.2186C56 27.1023 56.7163 27.8186 57.6 27.8186C58.4837 27.8186 59.2 27.1023 59.2 26.2186V24.1814C59.2 22.7354 58.0278 21.5632 56.5818 21.5632H54.0579C53.6522 20.328 53.1556 19.1341 52.5762 17.9895L54.3619 16.2038C55.3844 15.1814 55.3844 13.5236 54.3619 12.5012L46.6989 4.83812L45.5675 5.96949L46.6989 4.83812C45.6764 3.81566 44.0187 3.81566 42.9962 4.83812L44.1276 5.96949L42.9962 4.83812L41.2105 6.62381C40.0659 6.04436 38.8721 5.54781 37.6368 5.14213V2.61818C37.6368 1.1722 36.4646 0 35.0186 0H24.1814C22.7354 0 21.5632 1.1722 21.5632 2.61818V5.14213C20.3279 5.54781 19.1341 6.04436 17.9895 6.62381L16.2038 4.83813C15.1814 3.81567 13.5236 3.81567 12.5012 4.83813L4.8381 12.5012C3.81564 13.5237 3.81564 15.1814 4.8381 16.2039L5.96947 15.0725L4.8381 16.2039L6.62379 17.9895C6.04435 19.1341 5.5478 20.328 5.14213 21.5632H2.61818C1.1722 21.5632 0 22.7354 0 24.1814V35.0186C0 36.4646 1.1722 37.6368 2.61818 37.6368H5.14213C5.5478 38.872 6.04435 40.0659 6.6238 41.2105L4.8381 42.9962L5.96947 44.1275L4.8381 42.9962C3.81563 44.0186 3.81563 45.6764 4.8381 46.6988L5.96947 45.5675L4.8381 46.6988L12.5012 54.3619C13.1562 55.0169 13.939 55.0939 14.5081 55.0182C14.755 54.9855 14.9768 54.9237 15.1203 54.882C15.1901 54.8617 15.2425 54.8459 15.2864 54.8327C15.3571 54.8115 15.4061 54.7968 15.4712 54.78C16.0688 54.6262 16.5508 54.3006 16.8973 54.0084C17.2542 53.7074 17.554 53.3679 17.7854 53.0738C17.9057 52.9209 18.0138 52.7722 18.108 52.6358C19.2164 53.1897 20.3705 53.6662 21.5632 54.0579V56.5818C21.5632 58.0278 22.7354 59.2 24.1814 59.2H25.4186C26.3023 59.2 27.0186 58.4837 27.0186 57.6C27.0186 56.7163 26.3023 56 25.4186 56H24.7632V53.6454C24.7632 52.4567 23.9717 51.4592 22.8948 51.1241C21.5824 50.7158 20.3213 50.1906 19.1236 49.5606C18.1249 49.0353 16.8594 49.1808 16.0186 50.0216L15.853 50.1872L15.7441 50.3892L15.7436 50.3901L15.7429 50.3914L15.7424 50.3923L15.7421 50.3928L15.7418 50.3934L15.7411 50.3945L15.7358 50.4039L15.7205 50.4308C15.7004 50.4657 15.6682 50.5202 15.6255 50.5883C15.5389 50.7267 15.4162 50.91 15.2704 51.0952C15.1213 51.2847 14.9712 51.4468 14.8344 51.5621C14.7241 51.6551 14.6653 51.6816 14.6604 51.6844C14.5704 51.7079 14.487 51.732 14.4173 51.7526L7.51225 44.8475L9.17839 43.1814L8.06557 42.0685L9.1784 43.1814C10.0191 42.3406 10.1648 41.0751 9.63942 40.0764C9.00941 38.8787 8.48421 37.6176 8.07586 36.3052C7.74077 35.2283 6.74333 34.4368 5.55457 34.4368H3.2V24.7632H5.55457C6.74333 24.7632 7.74077 23.9717 8.07586 22.8948C8.48421 21.5824 9.00941 20.3214 9.63941 19.1236C10.1647 18.1249 10.0191 16.8594 9.17839 16.0187L7.51225 14.3525L14.3525 7.51228L16.0186 9.17841C16.8594 10.0192 18.1249 10.1648 19.1236 9.63943C20.3213 9.00942 21.5824 8.48422 22.8948 8.07586C23.9717 7.74077 24.7632 6.74333 24.7632 5.55457ZM33.0282 15.5402C30.8827 15.0709 28.6588 15.0873 26.5205 15.5882C24.3821 16.0891 22.3835 17.0618 20.6722 18.435C18.9608 19.8082 17.5803 21.5469 16.633 23.5233C15.6857 25.4997 15.1959 27.663 15.2 29.8535C15.2041 32.0441 15.702 34.2056 16.6567 36.1784C17.6114 38.1512 18.9984 39.8848 20.7149 41.2517C21.4062 41.8021 22.4128 41.688 22.9632 40.9967C23.5137 40.3054 23.3995 39.2988 22.7083 38.7484C21.3662 37.6796 20.2827 36.3249 19.5372 34.7845C18.7917 33.244 18.4032 31.5569 18.4 29.8475C18.3968 28.1381 18.779 26.4496 19.5187 24.9064C20.2584 23.3632 21.3368 22.0045 22.6749 20.9308C24.013 19.8571 25.5765 19.0959 27.2503 18.7039C28.9241 18.3118 30.665 18.299 32.3444 18.6663C34.0239 19.0337 35.5986 19.7717 36.9526 20.8256C38.3065 21.8795 39.405 23.2222 40.1676 24.7543C40.5613 25.5454 41.5218 25.8675 42.3129 25.4738C43.104 25.0801 43.4261 24.1196 43.0324 23.3285C42.0558 21.3664 40.6497 19.6482 38.9181 18.3004C37.1866 16.9526 35.1737 16.0095 33.0282 15.5402Z" fill="url(#paint0_linear_851_2184)"/>
<path fill-rule="evenodd" clip-rule="evenodd" d="M43.9489 30.3999C43.6115 30.3999 43.338 30.6734 43.338 31.0108V32.7726C43.338 33.0474 43.154 33.2871 42.8917 33.3688C42.0478 33.6313 41.2371 33.969 40.4673 34.3739C40.224 34.5019 39.9244 34.4625 39.73 34.2681L38.4835 33.0216C38.2449 32.783 37.8581 32.783 37.6195 33.0216L33.0217 37.6194C32.7831 37.858 32.7831 38.2448 33.0217 38.4834L34.2682 39.7299C34.4626 39.9243 34.502 40.2239 34.374 40.4672C33.9691 41.237 33.6315 42.0477 33.3689 42.8915C33.2872 43.1539 33.0476 43.3378 32.7728 43.3378H31.0109C30.6735 43.3378 30.4 43.6113 30.4 43.9487V50.4511C30.4 50.7885 30.6735 51.062 31.0109 51.062H32.7728C33.0476 51.062 33.2872 51.2459 33.3689 51.5083C33.6315 52.3521 33.9691 53.1628 34.374 53.9326C34.502 54.1759 34.4626 54.4755 34.2682 54.6699L33.0217 55.9164C32.7831 56.155 32.7831 56.5418 33.0217 56.7804L37.6195 61.3782C37.8581 61.6168 38.2449 61.6168 38.4835 61.3782L39.73 60.1317C39.9244 59.9373 40.224 59.8979 40.4673 60.0259C41.2371 60.4308 42.0478 60.7685 42.8917 61.031C43.154 61.1127 43.338 61.3524 43.338 61.6272V63.389C43.338 63.7264 43.6115 63.9999 43.9489 63.9999H50.4512C50.7886 63.9999 51.0621 63.7264 51.0621 63.389V61.6272C51.0621 61.3524 51.246 61.1127 51.5084 61.031C52.3522 60.7685 53.1629 60.4308 53.9327 60.0259C54.176 59.8979 54.4756 59.9373 54.67 60.1317L55.9165 61.3782C56.1551 61.6168 56.5419 61.6168 56.7805 61.3782L61.3783 56.7804C61.6169 56.5418 61.6169 56.155 61.3783 55.9164L60.1318 54.6699C59.9374 54.4755 59.898 54.1759 60.026 53.9326C60.4309 53.1628 60.7686 52.3521 61.0312 51.5083C61.1128 51.2459 61.3525 51.062 61.6273 51.062H63.3891C63.7265 51.062 64 50.7885 64 50.4511V43.9487C64 43.6113 63.7265 43.3378 63.3891 43.3378H61.6273C61.3525 43.3378 61.1128 43.1539 61.0312 42.8915C60.7686 42.0477 60.4309 41.237 60.026 40.4672C59.898 40.2239 59.9374 39.9243 60.1318 39.7299L61.3783 38.4834C61.6169 38.2448 61.6169 37.858 61.3783 37.6194L56.7805 33.0216C56.5419 32.783 56.1551 32.783 55.9166 33.0216L54.67 34.2681C54.4757 34.4625 54.176 34.5019 53.9328 34.3739C53.1629 33.969 52.3522 33.6313 51.5084 33.3688C51.246 33.2871 51.0621 33.0474 51.0621 32.7726V31.0108C51.0621 30.6734 50.7886 30.3999 50.4512 30.3999H43.9489ZM47.2 55.3102C51.6792 55.3102 55.3104 51.6791 55.3104 47.1999C55.3104 42.7207 51.6792 39.0896 47.2 39.0896C42.7208 39.0896 39.0897 42.7207 39.0897 47.1999C39.0897 51.6791 42.7208 55.3102 47.2 55.3102Z" fill="#F1DD23"/>
<path d="M44.338 32.7726V31.3999H50.0621V32.7726C50.0621 33.5042 50.5491 34.1176 51.2113 34.3236C51.9963 34.5679 52.7507 34.8821 53.4672 35.259C54.0813 35.582 54.8598 35.4926 55.3771 34.9752L56.3485 34.0038L60.3961 38.0514L59.4247 39.0228C58.9073 39.5402 58.818 40.3187 59.141 40.9327C59.5179 41.6492 59.832 42.4036 60.0763 43.1886C60.2823 43.8508 60.8958 44.3378 61.6273 44.3378H63V50.062H61.6273C60.8958 50.062 60.2823 50.549 60.0763 51.2112C59.832 51.9962 59.5178 52.7506 59.141 53.4671C58.818 54.0812 58.9073 54.8596 59.4247 55.377L60.3961 56.3484L56.3485 60.396L55.3771 59.4246C54.8597 58.9072 54.0813 58.8178 53.4672 59.1408C52.7507 59.5177 51.9963 59.8319 51.2113 60.0762C50.5491 60.2822 50.0621 60.8956 50.0621 61.6272V62.9999H44.338V61.6272C44.338 60.8956 43.8509 60.2822 43.1888 60.0762C42.4037 59.8319 41.6493 59.5177 40.9328 59.1408C40.3188 58.8178 39.5403 58.9072 39.0229 59.4246L38.0515 60.396L34.0039 56.3484L34.9753 55.377C35.4927 54.8596 35.5821 54.0812 35.2591 53.4671C34.8822 52.7506 34.568 51.9962 34.3237 51.2112C34.1177 50.549 33.5043 50.062 32.7728 50.062H31.4V44.3378H32.7728C33.5043 44.3378 34.1177 43.8508 34.3237 43.1886C34.568 42.4036 34.8822 41.6492 35.2591 40.9327C35.5821 40.3187 35.4927 39.5402 34.9753 39.0228L34.0039 38.0514L38.0515 34.0038L39.0229 34.9752C39.5403 35.4926 40.3188 35.582 40.9328 35.259C41.6493 34.8821 42.4037 34.5679 43.1888 34.3236C43.8509 34.1176 44.338 33.5042 44.338 32.7726ZM47.2 56.3102C52.2315 56.3102 56.3104 52.2314 56.3104 47.1999C56.3104 42.1684 52.2315 38.0896 47.2 38.0896C42.1685 38.0896 38.0897 42.1684 38.0897 47.1999C38.0897 52.2314 42.1685 56.3102 47.2 56.3102Z" stroke="white" stroke-opacity="0.23" stroke-width="2"/>
<defs>
<linearGradient id="paint0_linear_851_2184" x1="29.6" y1="29.6" x2="45.5385" y2="44.4" gradientUnits="userSpaceOnUse">
<stop stop-color="white"/>
<stop offset="1" stop-color="white" stop-opacity="0"/>
</linearGradient>
</defs>
</svg>
