<svg width="14" height="14" viewBox="0 0 14 14" fill="none" xmlns="http://www.w3.org/2000/svg">
<path d="M5.10215 2.60575C5.94658 1.09091 6.3688 0.333496 7.00004 0.333496C7.63128 0.333496 8.0535 1.09091 8.89793 2.60575L9.1164 2.99765C9.35636 3.42812 9.47634 3.64335 9.66341 3.78537C9.85049 3.92738 10.0835 3.9801 10.5494 4.08553L10.9737 4.18152C12.6135 4.55253 13.4334 4.73804 13.6284 5.36532C13.8235 5.99259 13.2645 6.64621 12.1466 7.95345L11.8574 8.29164C11.5398 8.66312 11.3809 8.84886 11.3095 9.07864C11.238 9.30842 11.262 9.55624 11.3101 10.0519L11.3538 10.5031C11.5228 12.2472 11.6073 13.1193 11.0966 13.507C10.5859 13.8947 9.81826 13.5412 8.28293 12.8343L7.88572 12.6514C7.44942 12.4505 7.23128 12.3501 7.00004 12.3501C6.76881 12.3501 6.55066 12.4505 6.11437 12.6514L5.71716 12.8343C4.18182 13.5412 3.41416 13.8947 2.90347 13.507C2.39279 13.1193 2.47729 12.2472 2.64631 10.5031L2.69003 10.0519C2.73806 9.55624 2.76207 9.30842 2.69062 9.07864C2.61916 8.84886 2.46032 8.66312 2.14265 8.29164L1.85344 7.95345C0.73554 6.64621 0.17659 5.99259 0.371655 5.36532C0.566719 4.73804 1.38661 4.55253 3.0264 4.18152L3.45063 4.08553C3.91661 3.9801 4.1496 3.92738 4.33667 3.78537C4.52374 3.64335 4.64372 3.42812 4.88369 2.99765L5.10215 2.60575Z" fill="#0A0A0A"/>
</svg>
