<svg width="64" height="64" viewBox="0 0 64 64" fill="none" xmlns="http://www.w3.org/2000/svg">
<path fill-rule="evenodd" clip-rule="evenodd" d="M8 0C3.58173 0 0 3.58171 0 7.99999V36.944V40.8C0 45.2183 3.58172 48.8 8 48.8H26.4V56H16.8C15.9163 56 15.2 56.7163 15.2 57.6C15.2 58.4837 15.9163 59.2 16.8 59.2H28C28.8837 59.2 29.6 58.4837 29.6 57.6V47.2C29.6 46.3163 28.8837 45.6 28 45.6H8C5.34903 45.6 3.2 43.451 3.2 40.8V38.544H28C28.8837 38.544 29.6 37.8277 29.6 36.944C29.6 36.0603 28.8837 35.344 28 35.344H3.2V7.99999C3.2 5.34903 5.34903 3.2 8 3.2H51.2C53.851 3.2 56 5.34903 56 8V26.4C56 27.2837 56.7164 28 57.6 28C58.4837 28 59.2 27.2837 59.2 26.4V8C59.2 3.58172 55.6183 0 51.2 0H8ZM44.7314 14.1941C44.1065 13.5693 43.0935 13.5693 42.4686 14.1941L30.5941 26.0686C28.7196 27.9431 25.6804 27.9432 23.8059 26.0686L20.3314 22.5941C19.7065 21.9693 18.6935 21.9693 18.0686 22.5941L12.3314 28.3314C11.7065 28.9562 10.6935 28.9562 10.0686 28.3314C9.44379 27.7065 9.44379 26.6935 10.0686 26.0686L15.8059 20.3314C17.6804 18.4569 20.7196 18.4569 22.5941 20.3314L26.0686 23.8059C26.6935 24.4307 27.7065 24.4307 28.3314 23.8059L40.2059 11.9314C42.0804 10.0569 45.1196 10.0569 46.9941 11.9314L49.9314 14.8686C50.5562 15.4935 50.5562 16.5065 49.9314 17.1314C49.3065 17.7562 48.2935 17.7562 47.6686 17.1314L44.7314 14.1941ZM12.4 14.4C13.9464 14.4 15.2 13.1464 15.2 11.6C15.2 10.0536 13.9464 8.8 12.4 8.8C10.8536 8.8 9.6 10.0536 9.6 11.6C9.6 13.1464 10.8536 14.4 12.4 14.4ZM24 11.6C24 13.1464 22.7464 14.4 21.2 14.4C19.6536 14.4 18.4 13.1464 18.4 11.6C18.4 10.0536 19.6536 8.8 21.2 8.8C22.7464 8.8 24 10.0536 24 11.6ZM30 14.4C31.5464 14.4 32.8 13.1464 32.8 11.6C32.8 10.0536 31.5464 8.8 30 8.8C28.4536 8.8 27.2 10.0536 27.2 11.6C27.2 13.1464 28.4536 14.4 30 14.4Z" fill="url(#paint0_linear_851_2188)"/>
<mask id="path-2-inside-1_851_2188" fill="white">
<path fill-rule="evenodd" clip-rule="evenodd" d="M41.6 57.7C43.3673 57.7 44.8 56.2897 44.8 54.55L44.8 39.85C44.8 34.6309 49.0981 30.4 54.4 30.4C59.7019 30.4 64 34.6309 64 39.85L64 54.86C64 55.9646 63.1046 56.86 62 56.86L59.6 56.86C58.4954 56.86 57.6 55.9646 57.6 54.86L57.6 39.85C57.6 38.1103 56.1673 36.7 54.4 36.7C52.6327 36.7 51.2 38.1103 51.2 39.85L51.2 54.55C51.2 59.7691 46.9019 64 41.6 64C36.2981 64 32 59.7691 32 54.55L32 39.96C32 38.8554 32.8954 37.96 34 37.96L36.4 37.96C37.5046 37.96 38.4 38.8554 38.4 39.96L38.4 54.55C38.4 56.2897 39.8327 57.7 41.6 57.7ZM62.95 59.8C62.3701 59.8 61.9 59.3299 61.9 58.75C61.9 58.1701 61.4299 57.7 60.85 57.7C60.2701 57.7 59.8 58.1701 59.8 58.75C59.8 59.3299 59.3299 59.8 58.75 59.8C58.1701 59.8 57.7 60.2701 57.7 60.85C57.7 61.4299 58.1701 61.9 58.75 61.9C59.3299 61.9 59.8 62.3701 59.8 62.95C59.8 63.5299 60.2701 64 60.85 64C61.4299 64 61.9 63.5299 61.9 62.95C61.9 62.3701 62.3701 61.9 62.95 61.9C63.5299 61.9 64 61.4299 64 60.85C64 60.2701 63.5299 59.8 62.95 59.8ZM34.2 32.5L36.3 32.5L37.35 32.5C37.9299 32.5 38.4 32.9701 38.4 33.55C38.4 34.1299 37.9299 34.6 37.35 34.6L36.3 34.6L34.2 34.6L33.15 34.6C32.5701 34.6 32.1 34.1299 32.1 33.55C32.1 32.9701 32.5701 32.5 33.15 32.5L34.2 32.5Z"/>
</mask>
<path fill-rule="evenodd" clip-rule="evenodd" d="M41.6 57.7C43.3673 57.7 44.8 56.2897 44.8 54.55L44.8 39.85C44.8 34.6309 49.0981 30.4 54.4 30.4C59.7019 30.4 64 34.6309 64 39.85L64 54.86C64 55.9646 63.1046 56.86 62 56.86L59.6 56.86C58.4954 56.86 57.6 55.9646 57.6 54.86L57.6 39.85C57.6 38.1103 56.1673 36.7 54.4 36.7C52.6327 36.7 51.2 38.1103 51.2 39.85L51.2 54.55C51.2 59.7691 46.9019 64 41.6 64C36.2981 64 32 59.7691 32 54.55L32 39.96C32 38.8554 32.8954 37.96 34 37.96L36.4 37.96C37.5046 37.96 38.4 38.8554 38.4 39.96L38.4 54.55C38.4 56.2897 39.8327 57.7 41.6 57.7ZM62.95 59.8C62.3701 59.8 61.9 59.3299 61.9 58.75C61.9 58.1701 61.4299 57.7 60.85 57.7C60.2701 57.7 59.8 58.1701 59.8 58.75C59.8 59.3299 59.3299 59.8 58.75 59.8C58.1701 59.8 57.7 60.2701 57.7 60.85C57.7 61.4299 58.1701 61.9 58.75 61.9C59.3299 61.9 59.8 62.3701 59.8 62.95C59.8 63.5299 60.2701 64 60.85 64C61.4299 64 61.9 63.5299 61.9 62.95C61.9 62.3701 62.3701 61.9 62.95 61.9C63.5299 61.9 64 61.4299 64 60.85C64 60.2701 63.5299 59.8 62.95 59.8ZM34.2 32.5L36.3 32.5L37.35 32.5C37.9299 32.5 38.4 32.9701 38.4 33.55C38.4 34.1299 37.9299 34.6 37.35 34.6L36.3 34.6L34.2 34.6L33.15 34.6C32.5701 34.6 32.1 34.1299 32.1 33.55C32.1 32.9701 32.5701 32.5 33.15 32.5L34.2 32.5Z" fill="#F1DD23"/>
<path d="M64 39.85L66 39.85L64 39.85ZM64 54.86L62 54.86L64 54.86ZM62 56.86L62 54.86L62 56.86ZM59.6 56.86L59.6 58.86L59.6 56.86ZM34 37.96L34 39.96L34 37.96ZM36.4 37.96L36.4 35.96L36.4 37.96ZM36.3 32.5L36.3 30.5L36.3 32.5ZM34.2 32.5L34.2 34.5L34.2 32.5ZM36.3 34.6L36.3 32.6L36.3 34.6ZM34.2 34.6L34.2 36.6L34.2 34.6ZM62.95 61.9L62.95 63.9L62.95 61.9ZM58.75 61.9L58.75 63.9L58.75 61.9ZM58.75 59.8L58.75 61.8L58.75 59.8ZM42.8 54.55C42.8 55.1556 42.2925 55.7 41.6 55.7L41.6 59.7C44.4421 59.7 46.8 57.4238 46.8 54.55L42.8 54.55ZM42.8 39.85L42.8 54.55L46.8 54.55L46.8 39.85L42.8 39.85ZM54.4 28.4C48.0233 28.4 42.8 33.4968 42.8 39.85L46.8 39.85C46.8 35.7651 50.1728 32.4 54.4 32.4L54.4 28.4ZM66 39.85C66 33.4968 60.7767 28.4 54.4 28.4L54.4 32.4C58.6272 32.4 62 35.7651 62 39.85L66 39.85ZM66 54.86L66 39.85L62 39.85L62 54.86L66 54.86ZM62 58.86C64.2091 58.86 66 57.0691 66 54.86L62 54.86L62 54.86L62 58.86ZM59.6 58.86L62 58.86L62 54.86L59.6 54.86L59.6 58.86ZM55.6 54.86C55.6 57.0691 57.3909 58.86 59.6 58.86L59.6 54.86L59.6 54.86L55.6 54.86ZM55.6 39.85L55.6 54.86L59.6 54.86L59.6 39.85L55.6 39.85ZM54.4 38.7C55.0926 38.7 55.6 39.2445 55.6 39.85L59.6 39.85C59.6 36.9762 57.2421 34.7 54.4 34.7L54.4 38.7ZM53.2 39.85C53.2 39.2445 53.7074 38.7 54.4 38.7L54.4 34.7C51.5579 34.7 49.2 36.9762 49.2 39.85L53.2 39.85ZM53.2 54.55L53.2 39.85L49.2 39.85L49.2 54.55L53.2 54.55ZM41.6 66C47.9767 66 53.2 60.9032 53.2 54.55L49.2 54.55C49.2 58.6349 45.8272 62 41.6 62L41.6 66ZM30 54.55C30 60.9032 35.2233 66 41.6 66L41.6 62C37.3728 62 34 58.6349 34 54.55L30 54.55ZM30 39.96L30 54.55L34 54.55L34 39.96L30 39.96ZM34 35.96C31.7909 35.96 30 37.7509 30 39.96L34 39.96L34 35.96ZM36.4 35.96L34 35.96L34 39.96L36.4 39.96L36.4 35.96ZM40.4 39.96C40.4 37.7509 38.6091 35.96 36.4 35.96L36.4 39.96L40.4 39.96ZM40.4 54.55L40.4 39.96L36.4 39.96L36.4 54.55L40.4 54.55ZM41.6 55.7C40.9074 55.7 40.4 55.1556 40.4 54.55L36.4 54.55C36.4 57.4238 38.7579 59.7 41.6 59.7L41.6 55.7ZM60.85 59.7C60.3253 59.7 59.9 59.2747 59.9 58.75L63.9 58.75C63.9 57.0655 62.5345 55.7 60.85 55.7L60.85 59.7ZM61.8 58.75C61.8 59.2747 61.3747 59.7 60.85 59.7L60.85 55.7C59.1655 55.7 57.8 57.0655 57.8 58.75L61.8 58.75ZM59.7 60.85C59.7 61.3747 59.2747 61.8 58.75 61.8L58.75 57.8C57.0655 57.8 55.7 59.1655 55.7 60.85L59.7 60.85ZM58.75 59.9C59.2747 59.9 59.7 60.3253 59.7 60.85L55.7 60.85C55.7 62.5345 57.0655 63.9 58.75 63.9L58.75 59.9ZM60.85 62C61.3747 62 61.8 62.4253 61.8 62.95L57.8 62.95C57.8 64.6345 59.1655 66 60.85 66L60.85 62ZM59.9 62.95C59.9 62.4253 60.3253 62 60.85 62L60.85 66C62.5345 66 63.9 64.6345 63.9 62.95L59.9 62.95ZM62 60.85C62 60.3253 62.4253 59.9 62.95 59.9L62.95 63.9C64.6345 63.9 66 62.5345 66 60.85L62 60.85ZM62.95 61.8C62.4253 61.8 62 61.3747 62 60.85L66 60.85C66 59.1655 64.6345 57.8 62.95 57.8L62.95 61.8ZM36.3 30.5L34.2 30.5L34.2 34.5L36.3 34.5L36.3 30.5ZM37.35 30.5L36.3 30.5L36.3 34.5L37.35 34.5L37.35 30.5ZM40.4 33.55C40.4 31.8655 39.0345 30.5 37.35 30.5L37.35 34.5C36.8253 34.5 36.4 34.0747 36.4 33.55L40.4 33.55ZM37.35 36.6C39.0345 36.6 40.4 35.2345 40.4 33.55L36.4 33.55C36.4 33.0253 36.8253 32.6 37.35 32.6L37.35 36.6ZM36.3 36.6L37.35 36.6L37.35 32.6L36.3 32.6L36.3 36.6ZM34.2 36.6L36.3 36.6L36.3 32.6L34.2 32.6L34.2 36.6ZM33.15 36.6L34.2 36.6L34.2 32.6L33.15 32.6L33.15 36.6ZM30.1 33.55C30.1 35.2345 31.4655 36.6 33.15 36.6L33.15 32.6C33.6747 32.6 34.1 33.0253 34.1 33.55L30.1 33.55ZM33.15 30.5C31.4655 30.5 30.1 31.8655 30.1 33.55L34.1 33.55C34.1 34.0747 33.6747 34.5 33.15 34.5L33.15 30.5ZM34.2 30.5L33.15 30.5L33.15 34.5L34.2 34.5L34.2 30.5ZM63.9 62.95C63.9 63.4747 63.4747 63.9 62.95 63.9L62.95 59.9C61.2655 59.9 59.9 61.2655 59.9 62.95L63.9 62.95ZM58.75 63.9C58.2253 63.9 57.8 63.4747 57.8 62.95L61.8 62.95C61.8 61.2655 60.4345 59.9 58.75 59.9L58.75 63.9ZM57.8 58.75C57.8 58.2253 58.2253 57.8 58.75 57.8L58.75 61.8C60.4345 61.8 61.8 60.4345 61.8 58.75L57.8 58.75ZM59.9 58.75C59.9 60.4345 61.2655 61.8 62.95 61.8L62.95 57.8C63.4747 57.8 63.9 58.2253 63.9 58.75L59.9 58.75Z" fill="white" fill-opacity="0.23" mask="url(#path-2-inside-1_851_2188)"/>
<defs>
<linearGradient id="paint0_linear_851_2188" x1="29.6" y1="29.6" x2="45.5385" y2="44.4" gradientUnits="userSpaceOnUse">
<stop stop-color="white"/>
<stop offset="1" stop-color="white" stop-opacity="0"/>
</linearGradient>
</defs>
</svg>
