<svg width="18" height="20" viewBox="0 0 18 20" fill="none" xmlns="http://www.w3.org/2000/svg">
<path d="M13.2694 0.760816L12.7668 0H9.72539V6.85231L9.71503 13.5455C9.72021 13.5952 9.72539 13.6499 9.72539 13.6997C9.72539 15.3754 8.3057 16.7429 6.5544 16.7429C4.80311 16.7429 3.38342 15.3804 3.38342 13.6997C3.38342 12.0239 4.80311 10.6564 6.5544 10.6564C6.9171 10.6564 7.26943 10.721 7.59586 10.8304V7.48881C7.25907 7.43411 6.91192 7.40428 6.5544 7.40428C2.94301 7.40925 0 10.2337 0 13.7046C0 17.1755 2.94301 20 6.55959 20C10.1762 20 13.1192 17.1755 13.1192 13.7046V5.74341C14.4301 7.00149 16.1244 8.22974 18 8.62257V5.20636C15.9637 4.34112 13.9378 1.78518 13.2694 0.760816Z" fill="#8A8A9C"/>
</svg>
