<svg width="64" height="64" viewBox="0 0 64 64" fill="none" xmlns="http://www.w3.org/2000/svg">
<path fill-rule="evenodd" clip-rule="evenodd" d="M52.7694 1.94876C49.2324 -0.320125 44.5206 -0.685696 40.7022 1.26403C36.1099 3.58597 32.4163 8.60154 32.6269 14.0982C32.5976 15.4528 31.7648 16.4842 30.437 17.8137C30.3488 17.6658 30.2538 17.5196 30.1511 17.3786C29.1681 15.9938 28.0558 14.8224 26.9622 13.744C26.5925 13.3793 26.2325 13.0323 25.8795 12.6921L25.8794 12.692C25.1551 11.9938 24.4604 11.3241 23.7719 10.5896L23.7555 10.5721L23.7385 10.5551C22.7613 9.5733 21.7815 8.5948 20.8037 7.61824L20.803 7.61754L20.8027 7.61724L20.8026 7.61716C19.8292 6.64494 18.8577 5.67463 17.8891 4.70165C17.0161 3.77506 15.9102 2.60352 14.6314 1.70676C13.3532 0.810448 11.7636 0.0879005 9.90324 0.206094C7.19374 0.0997906 4.8292 1.65721 3.33133 3.28757C3.28501 3.33798 3.22723 3.39373 3.15332 3.45786C1.39256 4.98581 -0.0901287 7.87802 0.257077 10.6666C0.337903 12.4461 1.07767 13.8419 1.96318 14.9789C2.59263 15.7871 3.38262 16.5602 4.06981 17.2326C4.30414 17.4619 4.52651 17.6795 4.7265 17.8828L4.72647 17.8829L4.73393 17.8903C5.46728 18.6262 6.21419 19.3733 6.9596 20.1189C7.59728 20.7568 8.23386 21.3936 8.85993 22.0213L10.4112 19.0457C10.4112 19.0458 10.4113 19.0459 10.4114 19.046L8.86021 22.0216C11.1218 24.29 13.1758 26.3289 15.6061 28.7125L15.6069 28.7132C16.2975 29.3896 17.0653 29.9732 17.9006 30.4608C17.6447 30.6278 17.4025 30.828 17.1793 31.0623L16.93 31.3242C16.4657 31.7918 15.8112 32.1355 15.0307 32.3422L15.0236 32.3441C14.2841 32.5435 13.5364 32.6107 12.6332 32.692H12.6331L12.6327 32.692C12.4256 32.7106 12.2103 32.73 11.985 32.7518C10.8678 32.8602 9.55514 33.0316 8.27246 33.628C3.18495 35.6512 -0.301552 40.9931 0.0206079 46.4992C0.00234798 47.3087 0.210505 48.3122 0.836082 49.069C1.18667 49.4931 1.70499 49.8752 2.39311 50C3.07737 50.1241 3.73208 49.9581 4.29572 49.6553L4.32413 49.6401L4.3519 49.6237C5.47327 48.9618 6.59211 48.286 7.70282 47.6152L7.7057 47.6135C8.17438 47.3304 8.64161 47.0483 9.10697 46.7684C9.45663 46.5581 9.80917 46.3466 10.1626 46.1345C10.4239 45.9778 10.6857 45.8207 10.9471 45.6636C11.6879 46.2334 12.266 47.0199 12.5579 47.8808C12.5564 47.8873 12.5526 47.8997 12.544 47.9179C12.5114 47.9861 12.4289 48.0909 12.2874 48.1754C12.0256 48.3317 11.7635 48.488 11.5012 48.6445L11.5002 48.6451C10.2084 49.4156 8.91111 50.1894 7.6164 50.9808L7.52591 51.0361L7.4435 51.1029C7.3752 51.1582 7.25059 51.2358 6.99725 51.368C6.95336 51.3908 6.90243 51.4169 6.8465 51.4455C6.64159 51.5504 6.36955 51.6896 6.13063 51.8329C5.51201 52.2042 4.49894 52.9563 4.41751 54.3872L4.41426 54.4444L4.4151 54.5017C4.42742 55.3347 4.82132 55.9756 5.22384 56.4101C5.61665 56.8341 6.09548 57.1504 6.50837 57.3833C6.93191 57.6221 7.37229 57.8204 7.73678 57.9776C7.87586 58.0376 7.99674 58.0888 8.10383 58.1341C8.30882 58.2209 8.46327 58.2863 8.59801 58.351L8.65728 58.3795L8.7187 58.403C12.8491 59.9847 17.691 59.1801 21.0639 56.2774C23.2934 54.3855 25.2465 51.8666 26.1203 48.8656C26.4518 47.8728 26.4841 46.8799 26.5084 46.1323L26.5102 46.076C26.5377 45.2372 26.5645 44.6758 26.7328 44.1623C27.0323 43.257 27.6386 42.4709 28.4975 41.6013C29.4631 40.6235 29.7927 39.3843 29.6114 38.226C29.8835 38.1599 30.1355 38.1251 30.3569 38.125C30.7422 38.1249 30.9302 38.2241 31.0484 38.3423L33.0372 40.3312C33.6621 40.956 34.6751 40.956 35.3 40.3312C35.9248 39.7063 35.9248 38.6933 35.3 38.0684L33.3111 36.0795C32.4337 35.2022 31.3356 34.9247 30.3558 34.925C29.4457 34.9254 28.5589 35.1602 27.8218 35.4389C27.6766 35.3415 27.5238 35.252 27.3637 35.1714C26.5259 34.7495 25.8942 34.3677 25.5496 34.0906C24.9735 33.3874 24.5859 32.5698 24.1121 31.5702L24.1119 31.5698C23.9508 31.23 23.7797 30.8691 23.5878 30.4845L23.5606 30.4299L23.5292 30.3775C23.2375 29.8898 22.8014 29.4794 22.4213 29.186C22.0303 28.8842 21.5507 28.5926 21.0656 28.4173L21.0624 28.4162C19.8086 27.9663 18.7324 27.2953 17.846 26.4271C15.4247 24.0525 13.3794 22.0221 11.1261 19.762L11.1258 19.7617C10.8879 19.5231 10.6497 19.2845 10.4114 19.046L16.3376 7.67791C17.0716 8.41342 17.8064 9.14727 18.54 9.88003L18.5403 9.88034L18.5414 9.88142C19.5145 10.8533 20.4857 11.8232 21.4539 12.7959C22.193 13.5831 22.981 14.3431 23.731 15.0664L23.7311 15.0664L23.7313 15.0666C24.0697 15.393 24.4004 15.7119 24.7154 16.0225C25.7662 17.0588 26.7247 18.0785 27.5471 19.2385L27.5541 19.2485L27.5613 19.2583C27.7877 19.5675 27.9448 19.9393 28.1924 20.5251L28.2734 20.7164C28.4705 21.1809 28.7391 21.8013 29.1675 22.3792C29.1677 22.3796 29.168 22.38 29.1682 22.3804C29.4988 22.9442 29.9957 23.3921 30.5907 23.6626L30.7038 23.714C31.0277 23.8951 31.3379 24.0299 31.5973 24.1389C31.7097 24.1861 31.8128 24.2288 31.9079 24.2683L31.9084 24.2685C31.9711 24.2944 32.0303 24.319 32.0864 24.3424L32.6341 24.5914C32.7235 24.6388 32.8051 24.6879 32.8839 24.743L32.9253 24.772L32.9684 24.7982C33.5194 25.1338 33.9742 25.4515 34.3414 25.7492L34.7107 26.414C34.9366 26.8207 35.2237 27.1734 35.5545 27.4663C35.5474 27.5519 35.5259 27.6326 35.4959 27.713C35.2167 28.4602 34.9579 29.3872 34.9527 30.3392C34.9474 31.3178 35.2152 32.4247 36.1011 33.3106L38.3217 35.5312C38.9465 36.156 39.9596 36.156 40.5844 35.5312C41.2093 34.9063 41.2093 33.8933 40.5844 33.2684L38.3638 31.0478C38.2492 30.9332 38.1505 30.7496 38.1527 30.3566C38.1549 29.937 38.2775 29.4111 38.4935 28.8329C38.5413 28.705 38.5822 28.5778 38.6166 28.4512C39.0555 28.4061 39.4937 28.2873 39.9138 28.0891L43.3743 26.4567C43.5226 26.3868 43.7469 26.3482 44.0404 26.3961C52.1136 27.7122 59.838 20.6781 59.1584 12.4113C59.1496 12.3048 59.1308 12.2024 59.1031 12.1046C58.9515 11.4884 58.6587 10.8679 58.1106 10.4169C57.5099 9.92262 56.8176 9.80718 56.2401 9.85393C55.2622 9.93308 54.3601 10.4935 53.824 10.8706C53.4597 11.0884 53.0948 11.3063 52.7293 11.5245L52.729 11.5247C51.6426 12.1735 50.5521 12.8246 49.466 13.4802C49.4259 13.5044 49.3892 13.5226 49.3577 13.5357C48.7552 13.107 48.1016 12.1994 47.7837 11.2637C47.7956 11.2439 47.8158 11.2158 47.8477 11.1828C47.8889 11.1401 47.9431 11.0961 48.0083 11.0571C48.5103 10.7564 49.0087 10.4534 49.5021 10.1534L49.5412 10.1297C50.049 9.82094 50.5518 9.51539 51.0575 9.21292L51.1203 9.17539L51.1794 9.13229C51.47 8.92027 51.7854 8.75285 52.2106 8.52719L52.2107 8.52714C52.3351 8.46113 52.4689 8.39013 52.6141 8.31157C53.1825 8.00429 53.918 7.58211 54.5226 6.93758C54.7666 6.67742 55.0582 6.27758 55.1856 5.73688C55.5042 4.38498 54.7325 3.4364 54.1915 2.95433C53.9154 2.70828 53.6198 2.5066 53.3905 2.35634C53.2855 2.28755 53.2006 2.23316 53.1271 2.18608C53.0104 2.11129 52.9224 2.05492 52.8284 1.98855L52.7993 1.968L52.7694 1.94876ZM38.1564 25.2699C38.2874 25.2783 38.4221 25.2546 38.5486 25.1949L42.0091 23.5626C42.8579 23.1622 43.7608 23.1082 44.5553 23.2378C50.3917 24.1893 56.0959 19.1964 55.9986 13.2711C55.8801 13.3413 55.7549 13.4238 55.6263 13.5154L55.5741 13.5526L55.519 13.5855C55.1338 13.8159 54.7491 14.0456 54.3648 14.275C53.2801 14.9228 52.199 15.5683 51.1197 16.2198C50.3844 16.6636 49.0698 17.1106 47.8218 16.3534C46.3541 15.4627 45.2253 13.7399 44.7246 12.2055C44.1455 10.4307 45.2725 8.96566 46.364 8.31187C46.8568 8.01671 47.3473 7.71851 47.8433 7.41692L47.8789 7.39531C48.3665 7.09887 48.8594 6.79928 49.3569 6.50142C49.8375 6.15997 50.3857 5.87067 50.8152 5.64393C50.9147 5.59145 51.0077 5.54233 51.0922 5.49668C51.3574 5.35328 51.5729 5.22756 51.7501 5.10844C51.7147 5.08449 51.6769 5.05933 51.6365 5.03281C51.5928 5.00422 51.5389 4.96954 51.4792 4.93118C51.3362 4.83932 51.1604 4.72638 51.0154 4.62552C48.3831 2.95014 44.8941 2.71541 42.1549 4.11527L42.1484 4.11858C38.4251 6.00004 35.6555 9.99476 35.826 14.0107L35.8278 14.0532L35.8273 14.0958C35.7948 17.105 33.6749 19.1499 32.1872 20.5849C32.1271 20.6429 32.068 20.6998 32.0102 20.7558C32.0569 20.7923 32.1098 20.8285 32.1706 20.8656L33.3061 21.3818C33.516 21.4695 33.7508 21.5722 33.9907 21.6929L35.1416 22.2161C35.8394 22.5333 36.4295 23.0433 36.8441 23.6836C37.244 24.0512 37.5973 24.4391 37.8875 24.8501C37.984 24.9867 38.0738 25.1267 38.1564 25.2699ZM23.2859 36.3633C23.4257 36.5235 23.5725 36.6797 23.7271 36.8309C24.4015 37.6295 25.1831 38.2399 26.0877 38.5456C26.2037 38.5848 26.3197 38.6183 26.4355 38.6463C26.4376 38.6554 26.4395 38.6645 26.4412 38.6735C26.4842 38.8985 26.4312 39.1395 26.2207 39.3526C25.2494 40.3361 24.2268 41.5478 23.6942 43.159L23.6933 43.1617C23.3705 44.1442 23.3388 45.1335 23.3149 45.8779V45.8779L23.3119 45.9712C23.2847 46.8015 23.253 47.3611 23.0792 47.8695L23.0665 47.9066L23.0557 47.9443C22.4067 50.1982 20.8925 52.227 18.9895 53.8409L18.9848 53.8449L18.98 53.849C16.5268 55.9625 12.9553 56.5751 9.91737 55.4352C9.7227 55.3444 9.48515 55.2437 9.26565 55.1507L9.26381 55.1499C9.17266 55.1113 9.08465 55.074 9.00416 55.0392C8.66595 54.8934 8.35174 54.7491 8.08044 54.596C8.01949 54.5616 7.96442 54.5289 7.91482 54.4978C8.00921 54.4458 8.10925 54.3945 8.22959 54.3329C8.30328 54.2951 8.38458 54.2535 8.47686 54.2053C8.72066 54.0782 9.05132 53.9001 9.36293 53.6637C10.6157 52.8987 11.8699 52.1506 13.1353 51.3959L13.1358 51.3955C13.3993 51.2383 13.6633 51.0809 13.9278 50.9229C15.1142 50.2146 16.1955 48.6514 15.5917 46.8629C14.9659 45.0088 13.6155 43.4298 11.9298 42.4889C11.646 42.3206 11.293 42.2089 10.8953 42.2267C10.4957 42.2445 10.1844 42.3875 9.98428 42.5084C9.49528 42.8031 9.00924 43.0947 8.52168 43.3873C8.16842 43.5992 7.81437 43.8116 7.4578 44.026L7.45772 44.0261C6.98115 44.3127 6.50746 44.5988 6.03523 44.884L6.03299 44.8854L6.03244 44.8857C5.09286 45.4532 4.15903 46.0172 3.21968 46.5752C3.21987 46.5662 3.22016 46.5573 3.22057 46.5484L3.22458 46.46L3.21881 46.3716C2.94903 42.2383 5.6204 38.107 9.49169 36.587L9.54277 36.5669L9.59235 36.5434C10.3564 36.1812 11.2136 36.0417 12.2941 35.9369C12.4622 35.9206 12.6389 35.905 12.8225 35.8889H12.8226C13.7354 35.8086 14.8183 35.7134 15.8535 35.4346C17.0338 35.1215 18.2515 34.5429 19.2185 33.561L19.2279 33.5514L19.2372 33.5416L19.4968 33.269C19.8373 32.9114 20.4855 32.9214 20.8316 33.3925C21.5966 34.4338 22.486 35.5821 23.1536 36.2385C23.1961 36.2803 23.2402 36.3219 23.2859 36.3633ZM16.3375 7.67786L17.8891 4.70165L16.3376 7.67791C16.3375 7.6779 16.3375 7.67788 16.3375 7.67786ZM16.3375 7.67786L10.4112 19.0457C10.0137 18.6478 9.61598 18.25 9.21837 17.8522L9.217 17.8509C8.47784 17.1115 7.73919 16.3726 7.00411 15.6351C6.70833 15.3344 6.42754 15.0597 6.16079 14.7986C5.52844 14.1798 4.975 13.6382 4.48784 13.0126C3.84925 12.1927 3.48346 11.4062 3.45201 10.4767L3.44922 10.3944L3.43799 10.3128C3.22628 8.77391 4.12059 6.85537 5.25063 5.87474C5.39204 5.75203 5.54122 5.61207 5.68778 5.45254C6.85767 4.17919 8.4044 3.32694 9.83433 3.40631L9.94322 3.41236L10.0519 3.40357C10.9458 3.33131 11.8352 3.65434 12.7941 4.32677C13.7699 5.01106 14.6663 5.94742 15.575 6.91197L15.5901 6.92798L15.6056 6.94358C15.8495 7.18854 16.0934 7.43329 16.3375 7.67786ZM58.1876 11.0694C58.4763 11.1924 58.7412 11.4066 58.9222 11.6976C58.7454 11.4161 58.4853 11.1988 58.1876 11.0694ZM57.0613 14.062C56.6512 13.9213 56.2972 13.6179 56.1086 13.2083L56.1113 13.2068C56.2974 13.5937 56.6483 13.9107 57.0613 14.062ZM58.6921 13.6759C58.1835 14.1824 57.5744 14.25 57.0613 14.062C57.5897 14.2433 58.2112 14.1548 58.6921 13.6759ZM55.9594 12.7546C55.9594 12.7546 55.96 12.7557 55.9611 12.7581C55.9599 12.7558 55.9593 12.7546 55.9594 12.7546ZM7.54778 54.7407C7.54725 54.7407 7.55002 54.7372 7.55769 54.7299C7.55213 54.7371 7.5483 54.7407 7.54778 54.7407ZM56.2777 54.0792L56.2799 54.0803L57.7142 51.2197L57.712 51.2187L56.2777 54.0792Z" fill="url(#paint0_linear_851_3137)"/>
<mask id="path-2-inside-1_851_3137" fill="white">
<path fill-rule="evenodd" clip-rule="evenodd" d="M49.2341 33.4148C48.6072 32.5951 47.3928 32.5951 46.7659 33.4148L41.6098 40.1563C41.4288 40.3929 41.1862 40.5728 40.9097 40.6752L33.0325 43.5927C32.0739 43.9477 31.6982 45.1286 32.2694 45.9909L36.9598 53.0721C37.1248 53.3211 37.2176 53.6126 37.2276 53.913L37.5139 62.4552C37.5487 63.495 38.5316 64.2243 39.511 63.937L47.5677 61.5741C47.8502 61.4913 48.1498 61.4913 48.4323 61.5741L56.489 63.937C57.4684 64.2243 58.4513 63.495 58.4861 62.4552L58.7724 53.913C58.7824 53.6126 58.8752 53.3211 59.0402 53.0721L63.7306 45.9909C64.3018 45.1286 63.9261 43.9477 62.9675 43.5927L55.0903 40.6752C54.8138 40.5728 54.5712 40.3929 54.3902 40.1563L49.2341 33.4148ZM48.617 41.0995C48.3036 40.7002 47.6964 40.7002 47.383 41.0995L44.8049 44.3838C44.7144 44.4991 44.5931 44.5868 44.4548 44.6366L40.5162 46.058C40.037 46.231 39.8491 46.8062 40.1347 47.2264L42.4799 50.6762C42.5624 50.7975 42.6088 50.9395 42.6138 51.0858L42.7569 55.2475C42.7744 55.754 43.2658 56.1093 43.7555 55.9693L47.7839 54.8182C47.9251 54.7778 48.0749 54.7778 48.2161 54.8182L52.2445 55.9693C52.7342 56.1093 53.2256 55.754 53.2431 55.2475L53.3862 51.0858C53.3912 50.9395 53.4376 50.7975 53.5201 50.6762L55.8653 47.2264C56.1509 46.8062 55.963 46.231 55.4838 46.058L51.5452 44.6366C51.4069 44.5868 51.2856 44.4991 51.1951 44.3838L48.617 41.0995Z"/>
</mask>
<path fill-rule="evenodd" clip-rule="evenodd" d="M49.2341 33.4148C48.6072 32.5951 47.3928 32.5951 46.7659 33.4148L41.6098 40.1563C41.4288 40.3929 41.1862 40.5728 40.9097 40.6752L33.0325 43.5927C32.0739 43.9477 31.6982 45.1286 32.2694 45.9909L36.9598 53.0721C37.1248 53.3211 37.2176 53.6126 37.2276 53.913L37.5139 62.4552C37.5487 63.495 38.5316 64.2243 39.511 63.937L47.5677 61.5741C47.8502 61.4913 48.1498 61.4913 48.4323 61.5741L56.489 63.937C57.4684 64.2243 58.4513 63.495 58.4861 62.4552L58.7724 53.913C58.7824 53.6126 58.8752 53.3211 59.0402 53.0721L63.7306 45.9909C64.3018 45.1286 63.9261 43.9477 62.9675 43.5927L55.0903 40.6752C54.8138 40.5728 54.5712 40.3929 54.3902 40.1563L49.2341 33.4148ZM48.617 41.0995C48.3036 40.7002 47.6964 40.7002 47.383 41.0995L44.8049 44.3838C44.7144 44.4991 44.5931 44.5868 44.4548 44.6366L40.5162 46.058C40.037 46.231 39.8491 46.8062 40.1347 47.2264L42.4799 50.6762C42.5624 50.7975 42.6088 50.9395 42.6138 51.0858L42.7569 55.2475C42.7744 55.754 43.2658 56.1093 43.7555 55.9693L47.7839 54.8182C47.9251 54.7778 48.0749 54.7778 48.2161 54.8182L52.2445 55.9693C52.7342 56.1093 53.2256 55.754 53.2431 55.2475L53.3862 51.0858C53.3912 50.9395 53.4376 50.7975 53.5201 50.6762L55.8653 47.2264C56.1509 46.8062 55.963 46.231 55.4838 46.058L51.5452 44.6366C51.4069 44.5868 51.2856 44.4991 51.1951 44.3838L48.617 41.0995Z" fill="#F1DD23"/>
<path d="M46.7659 33.4148L45.1773 32.1997V32.1997L46.7659 33.4148ZM49.2341 33.4148L50.8227 32.1997V32.1997L49.2341 33.4148ZM41.6098 40.1563L40.0212 38.9412L40.0212 38.9412L41.6098 40.1563ZM40.9097 40.6752L41.6043 42.5507V42.5507L40.9097 40.6752ZM33.0325 43.5927L32.3378 41.7172L32.3378 41.7172L33.0325 43.5927ZM32.2694 45.9909L33.9368 44.8865L32.2694 45.9909ZM36.9598 53.0721L38.6272 51.9677L38.6272 51.9677L36.9598 53.0721ZM37.2276 53.913L39.2265 53.846L39.2265 53.846L37.2276 53.913ZM37.5139 62.4552L39.5128 62.3883L37.5139 62.4552ZM39.511 63.937L40.0739 65.8562H40.0739L39.511 63.937ZM47.5677 61.5741L47.0048 59.6549L47.0048 59.6549L47.5677 61.5741ZM48.4323 61.5741L48.9952 59.6549L48.9951 59.6549L48.4323 61.5741ZM56.489 63.937L55.9261 65.8562H55.9261L56.489 63.937ZM58.4861 62.4552L60.485 62.5222V62.5222L58.4861 62.4552ZM58.7724 53.913L56.7735 53.846V53.846L58.7724 53.913ZM59.0402 53.0721L57.3728 51.9677L57.3728 51.9677L59.0402 53.0721ZM63.7306 45.9909L65.398 47.0954V47.0954L63.7306 45.9909ZM62.9675 43.5927L62.2729 45.4682V45.4682L62.9675 43.5927ZM55.0903 40.6752L55.7849 38.7997L55.7849 38.7997L55.0903 40.6752ZM54.3902 40.1563L52.8016 41.3713L52.8016 41.3713L54.3902 40.1563ZM47.383 41.0995L45.8098 39.8646L45.8098 39.8646L47.383 41.0995ZM48.617 41.0995L47.0438 42.3344L47.0438 42.3344L48.617 41.0995ZM44.8049 44.3838L43.2317 43.1489L43.2317 43.1489L44.8049 44.3838ZM44.4548 44.6366L45.1337 46.5179L45.1337 46.5179L44.4548 44.6366ZM40.5162 46.058L41.1951 47.9392L41.1951 47.9392L40.5162 46.058ZM40.1347 47.2264L38.4807 48.3508L38.4807 48.3508L40.1347 47.2264ZM42.4799 50.6762L40.8259 51.8006L40.8259 51.8006L42.4799 50.6762ZM42.6138 51.0858L44.6126 51.0171V51.0171L42.6138 51.0858ZM42.7569 55.2475L40.7581 55.3162V55.3162L42.7569 55.2475ZM43.7555 55.9693L43.206 54.0463H43.206L43.7555 55.9693ZM47.7839 54.8182L48.3334 56.7412L48.3334 56.7412L47.7839 54.8182ZM48.2161 54.8182L47.6666 56.7412L47.6666 56.7412L48.2161 54.8182ZM52.2445 55.9693L52.794 54.0463H52.794L52.2445 55.9693ZM53.2431 55.2475L51.2442 55.1787V55.1787L53.2431 55.2475ZM53.3862 51.0858L55.385 51.1546V51.1546L53.3862 51.0858ZM53.5201 50.6762L55.1741 51.8006L55.1741 51.8006L53.5201 50.6762ZM55.8653 47.2264L54.2113 46.102V46.102L55.8653 47.2264ZM55.4838 46.058L56.1627 44.1767L56.1627 44.1767L55.4838 46.058ZM51.5452 44.6366L50.8662 46.5179L50.8663 46.5179L51.5452 44.6366ZM51.1951 44.3838L52.7683 43.1489L52.7683 43.1489L51.1951 44.3838ZM48.3545 34.6298C48.1809 34.8568 47.8191 34.8568 47.6454 34.6298L50.8227 32.1997C49.3953 30.3335 46.6047 30.3335 45.1773 32.1997L48.3545 34.6298ZM43.1984 41.3713L48.3545 34.6298L45.1773 32.1997L40.0212 38.9412L43.1984 41.3713ZM41.6043 42.5507C42.2392 42.3155 42.7904 41.9048 43.1984 41.3713L40.0212 38.9412C40.0672 38.8811 40.1332 38.83 40.2151 38.7997L41.6043 42.5507ZM33.7271 45.4682L41.6043 42.5507L40.2151 38.7997L32.3378 41.7172L33.7271 45.4682ZM33.9368 44.8865C34.0054 44.9901 34.0132 45.1135 33.9831 45.2079C33.9528 45.3031 33.8678 45.4161 33.7271 45.4682L32.3378 41.7172C30.1404 42.5311 29.3368 45.1852 30.602 47.0954L33.9368 44.8865ZM38.6272 51.9677L33.9368 44.8865L30.602 47.0954L35.2924 54.1766L38.6272 51.9677ZM39.2265 53.846C39.2041 53.1783 38.9979 52.5273 38.6272 51.9677L35.2924 54.1766C35.2516 54.115 35.231 54.0469 35.2288 53.98L39.2265 53.846ZM39.5128 62.3883L39.2265 53.846L35.2288 53.98L35.515 62.5222L39.5128 62.3883ZM38.9481 62.0179C39.274 61.9223 39.5056 62.1758 39.5128 62.3883L35.515 62.5222C35.5918 64.8141 37.7893 66.5262 40.0739 65.8562L38.9481 62.0179ZM47.0048 59.6549L38.9481 62.0179L40.0739 65.8562L48.1306 63.4933L47.0048 59.6549ZM48.9951 59.6549C48.3452 59.4643 47.6548 59.4643 47.0048 59.6549L48.1306 63.4933C48.0455 63.5182 47.9544 63.5182 47.8694 63.4933L48.9951 59.6549ZM57.0519 62.0179L48.9952 59.6549L47.8694 63.4933L55.9261 65.8562L57.0519 62.0179ZM56.4872 62.3883C56.4944 62.1758 56.726 61.9223 57.0519 62.0179L55.9261 65.8562C58.2107 66.5262 60.4082 64.8141 60.485 62.5222L56.4872 62.3883ZM56.7735 53.846L56.4872 62.3883L60.485 62.5222L60.7712 53.98L56.7735 53.846ZM57.3728 51.9677C57.0021 52.5273 56.7959 53.1783 56.7735 53.846L60.7712 53.98C60.769 54.0469 60.7484 54.115 60.7076 54.1766L57.3728 51.9677ZM62.0632 44.8865L57.3728 51.9677L60.7076 54.1766L65.398 47.0954L62.0632 44.8865ZM62.2729 45.4682C62.1322 45.4161 62.0472 45.3031 62.0169 45.2079C61.9868 45.1135 61.9946 44.9901 62.0632 44.8865L65.398 47.0954C66.6632 45.1852 65.8596 42.5311 63.6622 41.7172L62.2729 45.4682ZM54.3957 42.5507L62.2729 45.4682L63.6622 41.7172L55.7849 38.7997L54.3957 42.5507ZM52.8016 41.3713C53.2096 41.9048 53.7608 42.3155 54.3957 42.5507L55.7849 38.7997C55.8668 38.83 55.9328 38.8811 55.9788 38.9412L52.8016 41.3713ZM47.6454 34.6298L52.8016 41.3713L55.9788 38.9412L50.8227 32.1997L47.6454 34.6298ZM48.9562 42.3344C48.4689 42.9552 47.5311 42.9553 47.0438 42.3344L50.1902 39.8646C49.0761 38.4452 46.9239 38.4452 45.8098 39.8646L48.9562 42.3344ZM46.3781 45.6188L48.9562 42.3344L45.8098 39.8646L43.2317 43.1489L46.3781 45.6188ZM45.1337 46.5179C45.6238 46.341 46.0554 46.0299 46.3781 45.6188L43.2317 43.1489C43.3734 42.9684 43.5624 42.8325 43.7759 42.7554L45.1337 46.5179ZM41.1951 47.9392L45.1337 46.5179L43.7759 42.7554L39.8373 44.1767L41.1951 47.9392ZM41.7887 46.102C42.2419 46.7687 41.9364 47.6718 41.1951 47.9392L39.8373 44.1767C38.1375 44.7902 37.4562 46.8438 38.4807 48.3508L41.7887 46.102ZM44.1339 49.5518L41.7887 46.102L38.4807 48.3508L40.8259 51.8006L44.1339 49.5518ZM44.6126 51.0171C44.5946 50.4927 44.4283 49.9848 44.1339 49.5518L40.8259 51.8006C40.6965 51.6102 40.623 51.3863 40.615 51.1546L44.6126 51.0171ZM44.7558 55.1787L44.6126 51.0171L40.615 51.1546L40.7581 55.3162L44.7558 55.1787ZM43.206 54.0463C43.9537 53.8326 44.728 54.3724 44.7558 55.1787L40.7581 55.3162C40.8207 57.1356 42.5779 58.3859 44.305 57.8924L43.206 54.0463ZM47.2343 52.8952L43.206 54.0463L44.305 57.8924L48.3334 56.7412L47.2343 52.8952ZM48.7657 52.8952C48.2653 52.7522 47.7347 52.7522 47.2343 52.8952L48.3334 56.7412C48.1155 56.8035 47.8845 56.8035 47.6666 56.7412L48.7657 52.8952ZM52.794 54.0463L48.7657 52.8952L47.6666 56.7412L51.695 57.8924L52.794 54.0463ZM51.2442 55.1787C51.272 54.3724 52.0463 53.8326 52.794 54.0463L51.695 57.8924C53.4221 58.3859 55.1793 57.1356 55.2419 55.3162L51.2442 55.1787ZM51.3874 51.0171L51.2442 55.1787L55.2419 55.3162L55.385 51.1546L51.3874 51.0171ZM51.8661 49.5518C51.5717 49.9848 51.4054 50.4927 51.3874 51.0171L55.385 51.1546C55.377 51.3863 55.3035 51.6102 55.1741 51.8006L51.8661 49.5518ZM54.2113 46.102L51.8661 49.5518L55.1741 51.8006L57.5193 48.3508L54.2113 46.102ZM54.8049 47.9392C54.0636 47.6718 53.7581 46.7687 54.2113 46.102L57.5193 48.3508C58.5438 46.8438 57.8624 44.7902 56.1627 44.1767L54.8049 47.9392ZM50.8663 46.5179L54.8049 47.9392L56.1627 44.1767L52.2241 42.7554L50.8663 46.5179ZM49.6219 45.6187C49.9446 46.0299 50.3762 46.341 50.8662 46.5179L52.2241 42.7554C52.4376 42.8325 52.6266 42.9684 52.7683 43.1489L49.6219 45.6187ZM47.0438 42.3344L49.6219 45.6188L52.7683 43.1489L50.1902 39.8646L47.0438 42.3344Z" fill="white" fill-opacity="0.23" mask="url(#path-2-inside-1_851_3137)"/>
<defs>
<linearGradient id="paint0_linear_851_3137" x1="29.6001" y1="29.6001" x2="45.5386" y2="44.4001" gradientUnits="userSpaceOnUse">
<stop stop-color="white"/>
<stop offset="1" stop-color="white" stop-opacity="0"/>
</linearGradient>
</defs>
</svg>
