<svg width="24" height="24" fill="none" xmlns="http://www.w3.org/2000/svg">
<path
    d="M20.0001 6H3"
    stroke="#C80F0F"
    stroke-width="1.5"
    stroke-linecap="round"
  />
<path
    d="M18.3346 8.5L17.8747 15.3991C17.6977 18.054 17.6092 19.3815 16.7442 20.1907C15.8792 21 14.5488 21 11.888 21H11.1146C8.45382 21 7.12342 21 6.25841 20.1907C5.3934 19.3815 5.3049 18.054 5.12791 15.3991L4.66797 8.5"
    stroke="#C80F0F"
    stroke-width="1.5"
    stroke-linecap="round"
  />
<path
    d="M9 11L9.5 16"
    stroke="#C80F0F"
    stroke-width="1.5"
    stroke-linecap="round"
  />
<path
    d="M14 11L13.5 16"
    stroke="#C80F0F"
    stroke-width="1.5"
    stroke-linecap="round"
  />
<path
    d="M6 6C6.05588 6 6.08382 6 6.10915 5.99936C6.93259 5.97849 7.65902 5.45491 7.93922 4.68032C7.94784 4.65649 7.95667 4.62999 7.97434 4.57697L8.07143 4.28571C8.15431 4.03708 8.19575 3.91276 8.25071 3.8072C8.47001 3.38607 8.87574 3.09364 9.34461 3.01877C9.46213 3 9.59317 3 9.85526 3H13.1447C13.4068 3 13.5379 3 13.6554 3.01877C14.1243 3.09364 14.53 3.38607 14.7493 3.8072C14.8043 3.91276 14.8457 4.03708 14.9286 4.28571L15.0257 4.57697C15.0433 4.62992 15.0522 4.65651 15.0608 4.68032C15.341 5.45491 16.0674 5.97849 16.8909 5.99936C16.9162 6 16.9441 6 17 6"
    stroke="#C80F0F"
    stroke-width="1.5"
  />
</svg>
