<svg width="12" height="14" viewBox="0 0 12 14" fill="none" xmlns="http://www.w3.org/2000/svg">
<path fill-rule="evenodd" clip-rule="evenodd" d="M6.00002 6.4C7.47278 6.4 8.66669 5.19117 8.66669 3.7C8.66669 2.20883 7.47278 1 6.00002 1C4.52726 1 3.33335 2.20883 3.33335 3.7C3.33335 5.19117 4.52726 6.4 6.00002 6.4ZM2.32797 7.80819C3.29068 7.3005 4.58988 7 6.00002 7C7.41016 7 8.70936 7.3005 9.67207 7.80819C10.6205 8.30833 11.3333 9.06632 11.3333 10L11.3333 10.0583C11.334 10.7222 11.3349 11.5554 10.5553 12.1506C10.1716 12.4435 9.63487 12.6518 8.90972 12.7894C8.18253 12.9274 7.23476 13 6.00002 13C4.76528 13 3.81751 12.9274 3.09033 12.7894C2.36517 12.6518 1.82843 12.4435 1.44476 12.1506C0.665175 11.5554 0.66604 10.7222 0.666728 10.0583L0.666769 10C0.666769 9.06632 1.37959 8.30833 2.32797 7.80819Z" stroke="#8A8A9C"/>
</svg>
