<svg width="48" height="56" viewBox="0 0 48 56" fill="none" xmlns="http://www.w3.org/2000/svg">
<path fill-rule="evenodd" clip-rule="evenodd" d="M51.0407 12.0907L48.1966 14.9348C50.6341 18.6964 52.0524 23.1821 52.0524 28C52.0524 41.2834 41.2834 52.0524 28 52.0524C14.7166 52.0524 3.94757 41.2834 3.94757 28C3.94757 14.7166 14.7166 3.94757 28 3.94757C32.8278 3.94757 37.3234 5.37088 41.0925 7.82076L43.9366 4.97662C39.4137 1.83989 33.9214 0 28 0C12.537 0 0 12.5345 0 28C0 43.4655 12.5345 56 28 56C43.4655 56 56 43.4655 56 28C55.9975 22.0886 54.1651 16.6086 51.0407 12.0907ZM16.9037 27.6778C16.9037 29.1209 18.0666 30.269 20.3975 30.269C22.7283 30.269 23.8789 29.1209 23.8789 27.6778C23.8789 26.2545 22.6589 25.1188 20.3826 25.1188C18.1113 25.1188 16.9037 26.2545 16.9037 27.6778ZM21.5976 27.6902C21.5827 28.5804 21.2133 29.5077 20.3603 29.4929C19.5296 29.478 19.1651 28.5605 19.18 27.648C19.1973 26.7033 19.6486 25.88 20.4272 25.8924C21.2058 25.9048 21.615 26.7454 21.5976 27.6902ZM25.2699 30.1201H32.0666V27.8512H31.3202C31.3202 28.7191 30.6854 29.3588 29.7159 29.3588H28.6695V25.9716H29.7977V25.2203H25.2699V25.9716H26.4106L26.413 29.3588H25.2699V30.1201ZM35.3347 30.1227L37.978 30.1252L40.2221 25.9743H41.3478V25.2229H37.9631V25.9743H38.9426L37.306 28.9969L35.6496 25.9743H36.8374V25.2229H31.9277L31.9252 25.9743H33.051L35.3347 30.1227ZM6.82643 25.2229H11.7361V25.9743H10.5484L12.2048 28.9969L13.8388 25.9743H12.8619V25.2229H16.2466V25.9743H15.1208L12.8767 30.1252L10.2334 30.1227L7.9497 25.9743H6.82395L6.82643 25.2229ZM45.4913 30.269C43.1605 30.269 41.9975 29.1209 41.9975 27.6778C41.9975 26.2545 43.2051 25.1188 45.4789 25.1188C47.7527 25.1188 48.9727 26.2545 48.9727 27.6778C48.9727 29.1209 47.8222 30.269 45.4913 30.269ZM46.6915 27.6902C46.7088 26.7454 46.2972 25.9073 45.5211 25.8924C44.7425 25.8776 44.2912 26.7008 44.2738 27.648C44.2589 28.5605 44.6235 29.478 45.4541 29.4929C46.3071 29.5077 46.6741 28.5804 46.6915 27.6902ZM42.0843 1.88691V1.10087H54.8965V13.9156H54.1303C53.2104 12.2419 52.1243 10.6425 50.9018 9.15967L46.9171 13.1444C45.7343 11.6418 44.3755 10.2829 42.8703 9.10264L46.8601 5.11291C45.3797 3.89293 43.7828 2.80685 42.0843 1.88691Z" fill="#8A8A9C"/>
</svg>
