<svg width="48" height="42" viewBox="0 0 48 42" fill="none" xmlns="http://www.w3.org/2000/svg">
<path fill-rule="evenodd" clip-rule="evenodd" d="M8.39401 18.1102C15.2035 6.03672 18.6083 0 24 0C29.3918 0 32.7965 6.03671 39.606 18.1101L40.4546 19.6146C46.1132 29.6476 48.9426 34.6641 46.3854 38.332C43.8283 42 37.5017 42 24.8486 42H23.1515C10.4983 42 4.17176 42 1.61462 38.332C-0.942515 34.6641 1.88682 29.6476 7.54547 19.6146L8.39401 18.1102ZM24 9.91667C24.9665 9.91667 25.75 10.7002 25.75 11.6667V23.3333C25.75 24.2998 24.9665 25.0833 24 25.0833C23.0335 25.0833 22.25 24.2998 22.25 23.3333V11.6667C22.25 10.7002 23.0335 9.91667 24 9.91667ZM24 32.6667C25.2887 32.6667 26.3334 31.622 26.3334 30.3333C26.3334 29.0447 25.2887 28 24 28C22.7114 28 21.6667 29.0447 21.6667 30.3333C21.6667 31.622 22.7114 32.6667 24 32.6667Z" fill="white"/>
</svg>
